<?xml version="1.0" encoding="UTF-8"?>
<svg width="20px" height="21px" viewBox="0 0 20 21" version="1.1" xmlns="http://www.w3.org/2000/svg" xmlns:xlink="http://www.w3.org/1999/xlink">
    <title>Combined Shape</title>
    <g id="Page-1" stroke="none" stroke-width="1" fill="none" fill-rule="evenodd">
        <g id="Home" transform="translate(-336.000000, -5263.000000)" fill="#FFFFFF" fill-rule="nonzero">
            <g id="Footer" transform="translate(0.000000, 5140.000000)">
                <g id="Group-19-Copy-3" transform="translate(165.000000, 32.000000)">
                    <g id="Social-links" transform="translate(139.000000, 91.000000)">
                        <path d="M42,0.000221238937 C47.5228475,0.000221238937 52,4.47737374 52,10.0002212 C52,15.5230687 47.5228475,20.0002212 42,20.0002212 C36.4771525,20.0002212 32,15.5230687 32,10.0002212 C32,4.47737374 36.4771525,0.000221238937 42,0.000221238937 Z M42.7536811,3.87968218 C40.5311419,3.87968218 40.0261328,5.54444741 40.0261328,6.60758692 L40.0261328,8.09427094 L38.7403472,8.09427094 L38.7403472,10.391679 L40.0261328,10.391679 L40.0261328,16.9288105 L42.729616,16.9288105 L42.729616,10.391679 L44.5139934,10.391679 L44.7501872,8.09641005 L42.7297943,8.09641005 L42.7297943,6.74431194 C42.7297943,6.23716373 43.0649221,6.1180864 43.303255,6.1180864 L44.756248,6.1180864 L44.756248,3.88806038 Z" id="Combined-Shape"></path>
                    </g>
                </g>
            </g>
        </g>
    </g>
</svg>