<?xml version="1.0" encoding="UTF-8"?>
<svg width="20px" height="21px" viewBox="0 0 20 21" version="1.1" xmlns="http://www.w3.org/2000/svg" xmlns:xlink="http://www.w3.org/1999/xlink">
    <title>Combined Shape</title>
    <g id="Page-1" stroke="none" stroke-width="1" fill="none" fill-rule="evenodd">
        <g id="Home" transform="translate(-368.000000, -5263.000000)" fill="#FFFFFF" fill-rule="nonzero">
            <g id="Footer" transform="translate(0.000000, 5140.000000)">
                <g id="Group-19-Copy-3" transform="translate(165.000000, 32.000000)">
                    <g id="Social-links" transform="translate(139.000000, 91.000000)">
                        <path d="M74,0.000221238938 C79.5226275,0.000221238938 84,4.47759373 84,10.0002212 C84,15.5228487 79.5226275,20.0002212 74,20.0002212 C68.4773725,20.0002212 64,15.5228487 64,10.0002212 C64,4.47759373 68.4773725,0.000221238938 74,0.000221238938 Z M76.9804586,4.01189708 L71.0195414,4.01189708 C69.346153,4.01189708 67.9847145,5.37333561 67.9847145,7.04672406 L67.9847145,13.0076412 C67.9847145,14.6812525 69.346153,16.0424682 71.0195414,16.0424682 L76.9804586,16.0424682 C78.6540698,16.0424682 80.0152855,14.6812525 80.0152855,13.0076412 L80.0152855,7.04672406 C80.0152855,5.37333561 78.6540698,4.01189708 76.9804586,4.01189708 Z M76.9804586,5.32119541 C77.9321286,5.32119541 78.70621,6.09527683 78.70621,7.04672406 L78.70621,13.0076412 C78.70621,13.9593112 77.9319058,14.7333927 76.9804586,14.7333927 L71.0195414,14.7333927 C70.0680942,14.7333927 69.2940128,13.9590884 69.2940128,13.0076412 L69.2940128,7.04672406 C69.2940128,6.09527683 70.0680942,5.32119541 71.0195414,5.32119541 Z M74,6.92885156 C72.2916286,6.92885156 70.9016689,8.31881123 70.9016689,10.0271826 C70.9016689,11.7357768 72.2916286,13.1257365 74,13.1257365 C75.7083714,13.1257365 77.0985539,11.735554 77.0985539,10.0271826 C77.0985539,8.31881123 75.7085942,6.92885156 74,6.92885156 Z M74,8.23814989 C74.9864302,8.23814989 75.7890327,9.04097527 75.7890327,10.0269598 C75.7890327,11.0136128 74.986653,11.8164382 74,11.8164382 C73.0137926,11.8164382 72.2107444,11.0136128 72.2107444,10.0269598 C72.2107444,9.04075245 73.0137926,8.23814989 74,8.23814989 Z M77.198155,6.1032984 C76.7937343,6.1032984 76.4648499,6.43218274 76.4648499,6.83638069 C76.4648499,7.24057864 76.7937343,7.56946298 77.198155,7.56946298 C77.602353,7.56946298 77.9312373,7.24057864 77.9312373,6.83638069 C77.9312373,6.43218274 77.602353,6.1032984 77.198155,6.1032984 Z" id="Combined-Shape"></path>
                    </g>
                </g>
            </g>
        </g>
    </g>
</svg>