<svg width="445" height="525" viewBox="0 0 445 525" fill="none" xmlns="http://www.w3.org/2000/svg"><g id="Group 1" clip-path="url(#clip0_190_61)"><g id="Page-1"><g id="Home"><g id="Group"><g id="Path"  style="animation: translateY 3s linear infinite; transform-origin: center; transform-box: fill-box;"><path id="Vector" d="M106 286.514L105.695 485.486L53.0996 516L53.4051 317.028L106 286.514Z" fill="#329AFF"/><path id="Vector_2" d="M53.2324 317.028L52.927 516L0 485.486L0.292194 286.514L53.2324 317.028Z" fill="#182F9F"/><path id="Vector_3" d="M106 286.514L53.4051 317.028L0.464859 286.514L53.0598 256L106 286.514Z" fill="#8CDCFF"/></g><path id="Path_2" d="M46.93 288.166C48.0875 288.671 48.8785 289.749 49 290.987C49 293.166 45.8813 294.998 42.0272 294.998C40.2964 295.032 38.5853 294.632 37.0564 293.835C35.9078 293.321 35.1244 292.247 35 291.013C35 288.821 38.1187 287.002 41.9728 287.002C43.6995 286.966 45.4066 287.367 46.93 288.166Z" fill="#329AFF"/><path id="Path_3" d="M64.5232 278.177C70.9795 281.965 75 287.208 75 292.985C75 294.092 73.4809 294.999 71.595 294.999C70.7558 295.016 69.9263 294.814 69.1854 294.412C68.6251 294.151 68.2417 293.609 68.177 292.985C68.177 288.315 64.916 284.086 59.7038 280.978C53.4681 277.59 46.484 275.886 39.4181 276.029C38.5749 276.044 37.7416 275.842 36.9953 275.442C36.4348 275.184 36.0543 274.638 36 274.014C36 272.894 37.506 272 39.405 272C49.1877 272.027 58.0799 274.375 64.5232 278.177Z" fill="#329AFF"/><path id="Path_4" d="M54.3723 283.805C58.4054 286.154 60.9866 289.389 61 292.972C61 294.1 59.4405 294.999 57.5047 294.999C56.6432 295.016 55.7917 294.813 55.031 294.408C54.4485 294.155 54.0514 293.604 53.9959 292.972C53.9959 290.516 52.2347 288.288 49.4385 286.664C46.0826 284.878 42.3241 283.982 38.5222 284.06C37.6567 284.075 36.8013 283.872 36.0352 283.469C35.4635 283.203 35.0716 282.659 35 282.033C35 280.906 36.5595 280.006 38.4953 280.006C44.026 279.896 49.4926 281.204 54.3723 283.805Z" fill="#329AFF"/><g id="Path_5"><path id="Vector_4" d="M291 96.0767L290.577 376.923L216.652 420L217.075 139.153L291 96.0767Z" fill="#329AFF"/><path id="Vector_5" d="M216.837 139.153L216.401 420L142 376.923L142.423 96.0767L216.837 139.153Z" fill="#182F9F"/><path id="Vector_6" d="M291 96.0767L217.075 139.153L142.661 96.0767L216.586 53L291 96.0767Z" fill="#8CDCFF"/></g><g id="Path_6"><path id="Vector_7" d="M291 96.0767L290.577 376.923L216.652 420L217.075 139.153L291 96.0767Z" fill="#329AFF"/><path id="Vector_8" d="M216.837 139.153L216.401 420L142 376.923L142.423 96.0767L216.837 139.153Z" fill="#182F9F"/><path id="Vector_9" d="M291 96.0767L217.075 139.153L142.661 96.0767L216.586 53L291 96.0767Z" fill="#8CDCFF"/></g><g id="Path_7"  style="animation: translateY 2s linear infinite; transform-origin: center; transform-box: fill-box;"><path id="Vector_10" d="M445 273.448L444.682 491.552L387.126 525L387.457 306.91L445 273.448Z" fill="#329AFF"/><path id="Vector_11" d="M387.258 306.91L386.94 525L329 491.552L329.331 273.448L387.258 306.91Z" fill="#182F9F"/><path id="Vector_12" d="M445 273.448L387.457 306.91L329.516 273.448L387.073 240L445 273.448Z" fill="#8CDCFF"/></g><g id="Path_8"><path id="Vector_13" d="M314 283.942L313.775 427.045L276.073 449L276.284 305.896L314 283.942Z" fill="#329AFF"/><path id="Vector_14" d="M276.165 305.896L275.954 449L238 427.045L238.212 283.942L276.165 305.896Z" fill="#182F9F"/><path id="Vector_15" d="M314 283.942L276.284 305.896L238.344 283.942L276.046 262L314 283.942Z" fill="#8CDCFF"/></g><path id="Path_9" d="M176.618 134.536C186.797 140.467 195.026 154.867 195 166.69L194.895 205L158 183.494L158.118 145.184C158.144 133.387 166.426 128.631 176.618 134.536Z" fill="black"/><g id="Path_10"><path id="Vector_16" d="M195.359 193.489C187.791 197.873 176.736 204.31 169.168 208.708L128.568 232.23L112.357 241.647C110.5 242.518 109.266 244.33 109.136 246.376V251.17C109.136 247.621 114.279 245.541 116.943 243.991L132.001 235.25L172.786 211.568L187.764 202.867L191.555 200.668L195.373 198.443L195.359 193.489Z" fill="#2C58D5"/><path id="Vector_17" d="M128.303 290.11L86.3509 265.898C76.8869 260.441 72.1682 253.263 72.1814 246.097V251.117C72.1814 258.283 76.8869 265.461 86.3509 270.918L128.303 295.129C130.49 296.388 131.577 298.043 131.577 299.699V294.679C131.577 293.023 130.49 291.368 128.303 290.11Z" fill="#2C58D5"/><path id="Vector_18" d="M168.531 294.798C168.531 304.07 161.016 310.586 153.659 314.864L141.266 322.056L101.621 345.075L92.0108 350.664C90.8135 351.256 89.7491 352.086 88.8826 353.101C87.3716 355.128 87.9548 358.293 87.9548 360.664C87.9548 356.916 94.0255 354.505 96.7958 352.89L114.146 342.81L150.955 321.447C154.223 319.694 157.328 317.656 160.234 315.354C164.067 312.304 166.814 308.101 168.067 303.368C168.534 300.536 168.689 297.663 168.531 294.798Z" fill="#2C58D5"/><path id="Vector_19" d="M65.1829 375.339C55.7189 369.883 50.9868 362.704 51.0132 355.539V360.558C51.0132 367.724 55.7189 374.902 65.1829 380.359L175.941 444V438.98L65.1829 375.339Z" fill="#2C58D5"/><path id="Vector_20" d="M202 423.855L201.987 428.861L175.928 444L175.941 438.98L202 423.855Z" fill="#2C58D5"/><path id="Vector_21" d="M195.28 193.582L112.357 241.7C108.049 244.203 108.062 248.322 112.357 250.773L154.322 274.984C173.118 285.832 173.224 303.474 154.547 314.321L91.1492 351.141C86.8414 353.645 86.8546 357.764 91.1492 360.214L201.907 423.855L175.941 438.98L65.1829 375.339C46.3741 364.492 46.2814 346.85 64.9575 336.003L128.422 299.182C132.73 296.692 132.717 292.56 128.422 290.11L86.4702 265.898C67.6615 255.051 67.5687 237.409 86.2449 226.575L195.479 163L195.28 193.582Z" fill="#8CDCFF"/></g><path id="Path_11" d="M277.76 124.199L224.747 154.731C224.275 155.006 223.989 155.514 224 156.059V261.473C223.986 262.011 224.265 262.515 224.729 262.791C225.194 263.066 225.772 263.07 226.24 262.801L279.253 232.269C279.726 231.994 280.011 231.486 280 230.941V125.487C280 124.956 279.715 124.465 279.253 124.199C278.791 123.934 278.222 123.934 277.76 124.199Z" fill="#8CDCFF"/><path id="Path_12" d="M276 133L229 159.929V251L276 224.071V133Z" fill="#182F9F"/><path id="Path_13" d="M254.784 158.646C259.644 155.871 264.238 156.581 266.137 160.96C268.513 166.43 265.818 175.649 260.082 182L258.754 178.936C262.631 174.465 264.437 168.127 262.804 164.339C261.476 161.249 258.21 160.75 254.837 162.709C253.938 163.244 253.097 163.87 252.328 164.576L251 161.525C252.138 160.416 253.409 159.449 254.784 158.646Z" fill="#F1F1F1"/><path id="Path_14" d="M251.06 161L252.354 164.111L251.746 164.727C247.451 169.313 245.355 176.365 247.063 180.481L247.257 180.897L247.334 181.044C248.628 183.31 250.957 183.873 253.596 182.774C254.041 182.591 254.474 182.376 254.89 182.13L255.226 181.929L255.744 181.58H255.821C256.158 181.326 256.494 181.058 256.83 180.763L256.96 180.642L257.335 180.293L257.477 180.159L257.956 179.663C258.215 179.382 258.473 179.1 258.706 178.805L260 181.929C259.754 182.224 259.508 182.506 259.25 182.774L258.564 183.484L258.357 183.672C258.189 183.846 258.008 184.007 257.827 184.168L257.645 184.342C257.167 184.758 256.688 185.147 256.209 185.495L256.093 185.576L255.433 186.032H255.356C255.215 186.135 255.068 186.229 254.916 186.313C254.553 186.528 254.204 186.716 253.855 186.89L253.079 187.238C249.055 188.901 245.459 187.855 243.841 183.967C241.422 178.135 244.398 168.133 250.491 161.63L251.06 161Z" fill="#FF2FCC"/><path id="Path_15" d="M257.001 200.322V201.269C256.997 201.531 257.137 201.774 257.367 201.905C257.597 202.035 257.88 202.031 258.106 201.896L262.636 199.295C262.862 199.166 263.001 198.927 263 198.668V197.721C262.996 197.463 262.854 197.226 262.627 197.097C262.401 196.969 262.122 196.968 261.895 197.095L257.365 199.695C257.13 199.815 256.987 200.06 257.001 200.322Z" fill="white"/><path id="Path_16" d="M243 213.351V214.287C243.004 214.543 243.143 214.777 243.366 214.904C243.589 215.031 243.863 215.032 244.087 214.907L262.642 204.255C262.859 204.122 262.993 203.889 263 203.636V202.713C262.996 202.457 262.857 202.223 262.634 202.096C262.411 201.969 262.137 201.968 261.913 202.093L243.358 212.745C243.141 212.872 243.006 213.101 243 213.351Z" fill="white"/><g id="Path_17" opacity="0.53"><path id="Vector_22" d="M250 218.282V219.257C250.004 219.523 250.139 219.768 250.356 219.9C250.573 220.032 250.838 220.033 251.056 219.903L261.652 213.378C261.863 213.239 261.994 212.996 262 212.732V211.743C261.996 211.477 261.861 211.232 261.644 211.1C261.428 210.968 261.162 210.967 260.944 211.097L250.348 217.622C250.13 217.76 249.997 218.011 250 218.282Z" fill="#3EABFF"/></g><path id="Path_18" d="M246 216.404V217.31C246.004 217.557 246.142 217.784 246.364 217.907C246.585 218.03 246.857 218.031 247.079 217.91L262.645 209.208C262.864 209.077 262.998 208.846 263 208.596V207.69C262.996 207.443 262.858 207.216 262.636 207.093C262.415 206.97 262.143 206.969 261.921 207.09L246.355 215.792C246.132 215.919 245.997 216.153 246 216.404Z" fill="#3EABFF"/><g id="Path_19" style="mix-blend-mode:overlay"><path id="Vector_23" d="M39.0702 231.391V232.339C39.0698 232.6 39.2069 232.842 39.4304 232.974C39.6538 233.106 39.9299 233.108 40.1555 232.98L44.6029 230.31C44.8232 230.173 44.9582 229.931 44.9603 229.67V228.722C44.956 228.463 44.817 228.226 44.5944 228.097C44.3718 227.969 44.0984 227.968 43.8749 228.095L39.4275 230.764C39.2034 230.891 39.0662 231.132 39.0702 231.391Z" fill="white"/><path id="Vector_24" d="M25 244.312V245.259C25.0043 245.518 25.1433 245.755 25.3659 245.884C25.5885 246.013 25.8618 246.014 26.0854 245.887L44.6161 235.102C44.8395 234.972 44.9798 234.735 44.9868 234.475V233.514C44.9825 233.255 44.8435 233.018 44.6209 232.889C44.3983 232.76 44.1249 232.759 43.9014 232.886L25.3706 243.671C25.1413 243.801 24.9996 244.046 25 244.312Z" fill="white"/><g id="Group_2" opacity="0.53"><path id="Vector_25" d="M32.6637 249.33V250.278C32.6681 250.537 32.8071 250.774 33.0297 250.903C33.2523 251.031 33.5256 251.032 33.7492 250.905L44.6426 244.565C44.8647 244.436 45.0011 244.197 45 243.938V242.99C44.9928 242.733 44.8542 242.497 44.6335 242.366C44.4128 242.236 44.1411 242.23 43.9146 242.35L33.0212 248.69C32.797 248.823 32.6607 249.068 32.6637 249.33Z" fill="#3EABFF"/></g><path id="Vector_26" d="M27.8855 247.368V248.316C27.8851 248.577 28.0223 248.819 28.2457 248.951C28.4692 249.083 28.7453 249.085 28.9709 248.957L44.6294 239.84C44.8497 239.703 44.9846 239.461 44.9868 239.2V238.252C44.9825 237.993 44.8435 237.756 44.6209 237.627C44.3983 237.499 44.1249 237.498 43.9014 237.625L28.2826 246.781C28.0552 246.891 27.9036 247.115 27.8855 247.368Z" fill="#3EABFF"/></g><g id="Path_20" style="mix-blend-mode:overlay"><path id="Vector_27" d="M311.949 170.342V171.295C311.953 171.558 311.815 171.803 311.59 171.935C311.365 172.066 311.087 172.062 310.865 171.925L306.423 169.309C306.203 169.177 306.068 168.938 306.066 168.678V167.726C306.071 167.466 306.209 167.227 306.432 167.098C306.654 166.968 306.927 166.967 307.15 167.095L311.592 169.712C311.818 169.837 311.956 170.081 311.949 170.342Z" fill="white"/><path id="Vector_28" d="M326 183.317V184.283C325.996 184.543 325.857 184.782 325.635 184.911C325.412 185.04 325.139 185.041 324.916 184.914L306.41 174.072C306.186 173.938 306.05 173.692 306.053 173.428V172.476C306.057 172.215 306.196 171.977 306.419 171.848C306.641 171.718 306.914 171.717 307.137 171.845L325.643 182.686C325.863 182.818 325.998 183.058 326 183.317Z" fill="white"/><g id="Group_3" opacity="0.53"><path id="Vector_29" d="M318.346 188.308V189.274C318.342 189.534 318.203 189.773 317.981 189.902C317.759 190.032 317.486 190.033 317.263 189.905L306.384 183.532C306.164 183.4 306.028 183.16 306.027 182.901V181.935C306.031 181.675 306.17 181.436 306.392 181.307C306.614 181.178 306.887 181.177 307.111 181.304L317.99 187.678C318.209 187.81 318.345 188.049 318.346 188.308Z" fill="#3EABFF"/></g><path id="Vector_30" d="M323.079 186.403V187.356C323.074 187.616 322.936 187.854 322.713 187.984C322.491 188.113 322.218 188.114 321.995 187.986L306.357 178.822C306.131 178.696 305.993 178.453 306 178.191V177.239C306.004 176.979 306.143 176.74 306.366 176.611C306.588 176.481 306.861 176.48 307.084 176.608L322.722 185.759C322.946 185.893 323.082 186.139 323.079 186.403Z" fill="#3EABFF"/></g><g id="Path_21" style="mix-blend-mode:overlay"><path id="Vector_31" d="M203 247.565L202.908 280.774L188.301 272.223L188.393 239L203 247.565Z" fill="#8CDCFF"/><path id="Vector_32" d="M202.843 302.671L202.751 335.894L188.144 327.329L188.236 294.106L202.843 302.671Z" fill="#8CDCFF"/><path id="Vector_33" d="M202.699 357.777L202.607 391L188 382.449L188.092 349.226L202.699 357.777Z" fill="#8CDCFF"/></g><g id="Path_22" style="mix-blend-mode:overlay"><path id="Vector_34" d="M195 251.551L194.908 284.774L180.314 276.223L180.405 243L195 251.551Z" fill="#8CDCFF"/><path id="Vector_35" d="M194.843 306.671L194.752 339.881L180.157 331.329L180.248 298.106L194.843 306.671Z" fill="#8CDCFF"/><path id="Vector_36" d="M194.686 361.777L194.595 395L180 386.449L180.105 353.226L194.686 361.777Z" fill="#8CDCFF"/></g><g id="box_4" style="animation: translateY 2s linear infinite; transform-origin: center; transform-box: fill-box;"><g id="Group_4" opacity="0.44"><path id="Vector_37" d="M95 326.609L94.933 341.391L83.5201 348L83.5871 333.232L95 326.609Z" fill="#1EA0FF"/></g><g id="Group_5" opacity="0.17"><path id="Vector_38" d="M83.5469 333.232L83.4799 348L72 341.391L72.067 326.609L83.5469 333.232Z" fill="#1E6BFF"/></g><path id="Vector_39" d="M95 326.609L83.5871 333.232L72.0938 326.609L83.5201 320L95 326.609Z" fill="#1E8DFF"/></g><g id="box_3" style="animation: translateX 2s linear infinite; transform-origin: center; transform-box: fill-box;"><g id="Group_6" opacity="0.44"><path id="Vector_40" d="M134 302.609L133.933 317.377L122.52 324L122.587 309.219L134 302.609Z" fill="#1EA0FF"/></g><g id="Group_7" opacity="0.17"><path id="Vector_41" d="M122.547 309.219L122.48 323.987L111 317.377L111.067 302.609L122.547 309.219Z" fill="#1E6BFF"/></g><path id="Vector_42" d="M134 302.609L122.587 309.219L111.094 302.609L122.507 296L134 302.609Z" fill="#1E8DFF"/></g><g id="box_2" style="animation: translateX 2s linear infinite; transform-origin: center; transform-box: fill-box;"><g id="Group_8" opacity="0.44"><path id="Vector_43" d="M134 257.609L133.933 272.391L122.52 279L122.587 264.232L134 257.609Z" fill="#1EA0FF"/></g><g id="Group_9" opacity="0.17"><path id="Vector_44" d="M122.547 264.232L122.48 279L111 272.391L111.067 257.609L122.547 264.232Z" fill="#1E6BFF"/></g><path id="Vector_45" d="M134 257.609L122.587 264.232L111.094 257.609L122.507 251L134 257.609Z" fill="#1E8DFF"/></g><g id="box_1" style="animation: translateY 2s linear infinite; transform-origin: center; transform-box: fill-box;"><g id="Group_10" opacity="0.44"><path id="Vector_46" d="M120 214.613L119.946 229.387L108.52 236L108.587 221.225L120 214.613Z" fill="#1EA0FF"/></g><g id="Group_11" opacity="0.17"><path id="Vector_47" d="M108.56 221.225L108.493 236L97 229.387L97.067 214.613L108.56 221.225Z" fill="#1E6BFF"/></g><path id="Vector_48" d="M120 214.613L108.587 221.225L97.1072 214.613L108.52 208L120 214.613Z" fill="#1E8DFF"/></g><g id="translate_5" style="animation: translateY 3s linear infinite; transform-origin: center; transform-box: fill-box;"><path id="Path_23" d="M245.03 310.092L269.657 324.365C269.871 324.486 270.003 324.715 270 324.962V374.3C269.999 374.549 269.867 374.779 269.652 374.905C269.438 375.03 269.173 375.032 268.957 374.91L244.343 360.637C244.129 360.516 243.997 360.287 244 360.041V310.702C243.995 310.453 244.125 310.222 244.338 310.096C244.551 309.969 244.816 309.968 245.03 310.092Z" fill="#8CDCFF"/><path id="Path_24" d="M246 314L268 326.557V369L246 356.456V314Z" fill="#182F9F"/><g id="Path_25" style="mix-blend-mode:overlay"><path id="Vector_49" d="M260 358.367L260.028 352.034L262.945 353.667L262.917 360L260 358.367Z" fill="#8CDCFF"/><path id="Vector_50" d="M260.028 347.856L260.055 341.51L262.972 343.144L262.959 349.49L260.028 347.856Z" fill="#8CDCFF"/><path id="Vector_51" d="M260.069 337.333L260.083 331L263 332.633L262.986 338.966L260.069 337.333Z" fill="#8CDCFF"/></g></g><path id="Path_26" d="M298.48 336.335C292.879 340.043 289.356 346.257 289 353.055V373L308 361.81V341.865C308.051 335.703 303.776 333.242 298.48 336.335Z" fill="#182F9F"/><g id="Path_27"><path id="Vector_52" d="M289 366.855L302.608 374.776L323.705 387.04L332.117 391.937C333.081 392.395 333.722 393.34 333.792 394.406V396.901C333.792 395.053 331.155 393.97 329.73 393.165L321.911 388.624L300.735 376.333L292.956 371.805L290.991 370.67L289 369.508V366.855Z" fill="#2C58D5"/><path id="Vector_53" d="M323.823 417.125L345.606 404.531C350.524 401.693 352.977 397.931 352.964 394.234V396.875C352.964 400.597 350.511 404.333 345.606 407.172L323.81 419.766C322.859 420.193 322.213 421.102 322.122 422.142V419.502C322.221 418.461 322.87 417.553 323.823 417.125Z" fill="#2C58D5"/><path id="Vector_54" d="M302.937 419.568C302.937 424.373 306.893 427.779 310.651 430.01L317.085 433.746L337.681 445.733L342.666 448.637C343.294 448.956 343.848 449.406 344.287 449.957C345.079 451.013 344.775 452.597 344.775 453.917C344.775 451.964 341.624 450.71 340.187 449.878L331.181 444.597L312.075 433.482C310.366 432.58 308.746 431.519 307.236 430.314C305.239 428.734 303.809 426.547 303.161 424.083C302.918 422.591 302.843 421.076 302.937 419.568Z" fill="#2C58D5"/><path id="Vector_55" d="M356.642 461.482C361.547 458.63 364.013 454.881 364 451.172V453.812C364 457.535 361.561 461.271 356.642 464.109L323.968 483V480.36L356.642 461.482Z" fill="#2C58D5"/><path id="Vector_56" d="M310.387 472.492V475.106L323.929 482.974L323.916 480.373L310.387 472.492Z" fill="#2C58D5"/><path id="Vector_57" d="M289.04 366.908L332.104 391.99C334.345 393.31 334.332 395.409 332.104 396.716L310.321 409.31C300.551 414.96 300.511 424.135 310.203 429.785L343.167 448.927C345.395 450.248 345.395 452.347 343.167 453.653L310.479 472.545L324.008 480.465L356.642 461.482C366.4 455.832 366.452 446.657 356.761 441.007L323.797 421.851C321.555 420.531 321.569 418.432 323.797 417.125L345.58 404.531C355.35 398.894 355.39 389.719 345.698 384.069L289 351L289.04 366.908Z" fill="#8CDCFF"/></g><g id="Path_28" opacity="0.44"><path id="Vector_58" style="mix-blend-mode:color-dodge" d="M400 181.744L399.974 190.085L354 163.328L354.013 155L400 181.744Z" fill="url(#paint0_linear_190_61)"/><g id="Vector_59" style="mix-blend-mode:overlay"><path fill-rule="evenodd" clip-rule="evenodd" d="M400 181.744L399.974 190.085L354 163.328L354.013 155L400 181.744Z" stroke="white" stroke-width="0.54"/></g><path id="Vector_60" style="mix-blend-mode:color-dodge" d="M396.319 194.182L396.306 199L369.77 183.559L369.784 178.742L396.319 194.182Z" fill="url(#paint1_linear_190_61)"/><g id="Vector_61" style="mix-blend-mode:overlay"><path fill-rule="evenodd" clip-rule="evenodd" d="M396.319 194.182L396.306 199L369.77 183.559L369.784 178.742L396.319 194.182Z" stroke="white" stroke-width="0.54"/></g></g><g id="translate_3" style="animation: translateX 2s linear infinite; transform-origin: center; transform-box: fill-box;"><g id="Path_29" opacity="0.37"><path id="Vector_62" d="M322.746 203.239C316.094 199.465 309.789 200.431 307.182 206.373C303.923 213.817 307.634 226.341 315.483 235L317.292 230.847C311.971 224.761 309.51 216.155 311.758 211.009C313.594 206.817 318.037 206.138 322.732 208.802C323.973 209.519 325.129 210.368 326.178 211.336L328 207.183C326.421 205.661 324.656 204.336 322.746 203.239Z" fill="#1EFFFF"/></g><path id="Path_30" d="M327.567 207L325.738 211.166C326.031 211.428 326.312 211.703 326.606 211.991C332.669 218.121 335.634 227.54 333.216 233.028C333.136 233.226 333.043 233.419 332.936 233.605C332.906 233.673 332.87 233.738 332.829 233.801C331.066 236.827 327.714 237.561 323.988 236.107C323.377 235.863 322.783 235.578 322.212 235.255L321.731 234.967L321.01 234.495L320.903 234.43C320.422 234.102 319.955 233.736 319.474 233.343L319.287 233.185L318.766 232.714L318.566 232.531L317.885 231.876C317.524 231.509 317.164 231.129 316.816 230.736L315 234.901C315.347 235.294 315.694 235.674 316.055 236.041C316.416 236.408 316.709 236.683 317.043 236.984L317.31 237.233C317.56 237.469 317.813 237.692 318.072 237.901L318.325 238.124C319.007 238.687 319.661 239.211 320.355 239.67L320.516 239.774C320.836 239.997 321.143 240.194 321.451 240.377H321.557L322.185 240.757C322.693 241.032 323.187 241.294 323.681 241.53L324.763 241.988C330.452 244.202 335.54 242.8 337.811 237.613C341.229 229.753 337.023 216.458 328.462 207.76C328.141 207.537 327.848 207.262 327.567 207Z" fill="#182F9F"/></g><path id="Path_31" d="M177.158 342.874C177.662 343.046 178 343.519 178 344.052C178 344.584 177.662 345.058 177.158 345.229L144.029 364.504C142.749 365.165 141.229 365.165 139.949 364.504L116.842 351.116C116.338 350.945 116 350.471 116 349.939C116 349.406 116.338 348.933 116.842 348.761L149.971 329.486C151.249 328.838 152.759 328.838 154.038 329.486L177.158 342.874Z" fill="#F2F8FD"/><path id="Path_32" d="M177.995 344.081V344.174C177.995 344.174 177.995 344.174 177.995 344.253C178 344.279 178 344.306 177.995 344.332C178.002 344.354 178.002 344.377 177.995 344.398V344.491L177.929 344.596C177.896 344.646 177.856 344.691 177.81 344.728C177.779 344.722 177.748 344.722 177.717 344.728L177.638 344.794L177.532 344.86L177.426 344.926L144.254 364.165C144.122 364.238 143.985 364.305 143.845 364.363H143.739L143.461 364.442L143.17 364.521H142.827H142.734H142.258H142.179H141.703H141.637C141.48 364.509 141.326 364.482 141.174 364.442H141.081L140.685 364.323H140.619L140.169 364.112L116.808 351.04C116.446 350.862 116.163 350.556 116.014 350.182C115.995 350.072 115.995 349.961 116.014 349.851V351.172C116.014 351.172 116.014 351.277 116.014 351.33C116.131 351.781 116.441 352.158 116.86 352.36L140.011 365.71L140.42 365.908H140.486L140.751 366H140.896H140.976H141.253H141.531H141.822H142.113H142.43H142.549H142.8H142.906L143.197 365.934H143.342H143.461H143.58L143.977 365.749L177.149 346.511H177.215L177.32 346.432H177.4L177.492 346.352L177.611 346.234V346.141V346.049C177.61 346.018 177.61 345.987 177.611 345.956C177.611 345.956 177.611 345.89 177.611 345.864V344.451C177.509 344.345 177.512 344.177 177.618 344.075C177.724 343.973 177.892 343.976 177.995 344.081Z" fill="#7BAEFF"/><path id="Path_33" d="M173.728 343.027C173.89 343.08 174 343.23 174 343.399C174 343.569 173.89 343.719 173.728 343.771L142.371 361.84C141.958 362.053 141.466 362.053 141.054 361.84L120.272 349.947C120.11 349.894 120 349.744 120 349.574C120 349.405 120.11 349.255 120.272 349.202L151.59 331.16C152.002 330.947 152.494 330.947 152.907 331.16L173.728 343.027Z" fill="#7CCCFF"/><g id="Path_34"><path id="Vector_63" d="M154.622 341.469L147 337.149V341.68L154.635 346L154.622 341.469Z" fill="#CE7C56"/><path id="Vector_64" d="M161.986 337.32L154.365 333L147 337.149L154.622 341.469L161.986 337.32Z" fill="#FFBE3D"/><path id="Vector_65" d="M154.622 341.469L154.635 346L162 341.851L161.986 337.32L154.622 341.469Z" fill="#E2A029"/></g><g id="Path_35"><path id="Vector_66" d="M145.608 341.67L138 337.247L138.027 346.578L145.635 351L145.608 341.67Z" fill="#2670D4"/><path id="Vector_67" d="M152.973 337.422L145.352 333L138 337.247L145.608 341.67L152.973 337.422Z" fill="#58AFFB"/><path id="Vector_68" d="M145.608 341.67L145.635 351L153 346.753L152.973 337.422L145.608 341.67Z" fill="#2689FD"/></g><g id="Path_36"><path id="Vector_69" d="M136.615 341.524L129 337.176L129.04 351.652L136.655 356L136.615 341.524Z" fill="#CC096A"/><path id="Vector_70" d="M143.96 337.348L136.358 333L129 337.176L136.615 341.524L143.96 337.348Z" fill="#FF5668"/><path id="Vector_71" d="M136.615 341.524L136.655 356L144 351.824L143.96 337.348L136.615 341.524Z" fill="#EE2C6A"/></g><g id="Path_37" style="mix-blend-mode:overlay"><path id="Vector_72" d="M19.8389 200.524L19.8522 202.872L19.8655 208.609L12.8437 212.678L12.8171 204.579L18.6686 201.191L19.8389 200.524Z" fill="#6CAAC5"/><path id="Vector_73" d="M13.9475 186.715L13.9741 198.175L4.0399 203.926L4 192.478L13.9475 186.715Z" fill="#6CAAC5"/><path id="Vector_74" d="M35.6513 198.789L35.6779 210.25L25.7436 216L25.7037 204.553L35.6513 198.789Z" fill="#6CAAC5"/><path id="Vector_75" d="M28.5896 186.341L28.6162 197.802L19.8522 202.872L19.8389 200.524L18.6686 201.191L18.642 192.091L28.5896 186.341Z" fill="#6CAAC5"/><path id="Vector_76" d="M39.9734 174L40 182.085L32.9782 186.154L32.9516 178.069L39.9734 174Z" fill="#6CAAC5"/></g><g id="Path_38" style="mix-blend-mode:overlay"><path id="Vector_77" d="M180.845 40.5151V42.8758L180.858 48.5976L173.847 52.6656L173.82 44.583L179.674 41.1953L180.845 40.5151Z" fill="#6CAAC5"/><path id="Vector_78" d="M174.938 26.724L174.978 38.1677L165.027 43.9295L165 32.4725L174.938 26.724Z" fill="#6CAAC5"/><path id="Vector_79" d="M196.65 38.7945L196.69 50.2382L186.738 56L186.712 44.543L196.65 38.7945Z" fill="#6CAAC5"/><path id="Vector_80" d="M189.585 26.3372L189.625 37.7942L180.845 42.8758V40.5151L179.674 41.1953L179.647 32.0991L189.585 26.3372Z" fill="#6CAAC5"/><path id="Vector_81" d="M200.987 14L201 22.0959L193.989 26.1505L193.962 18.068L200.987 14Z" fill="#6CAAC5"/></g><g id="Path_39" style="mix-blend-mode:overlay"><path id="Vector_82" d="M250.564 41.9405L250.55 43.6217V47.7198L255.613 50.6226L255.626 44.8433L251.399 42.4265L250.564 41.9405Z" fill="#6CAAC5"/><path id="Vector_83" d="M254.818 32.0893L254.804 40.2592L261.987 44.3704L262 36.2005L254.818 32.0893Z" fill="#6CAAC5"/><path id="Vector_84" d="M239.141 40.7058L239.114 48.8888L246.297 53L246.323 44.817L239.141 40.7058Z" fill="#6CAAC5"/><path id="Vector_85" d="M244.243 31.8135L244.216 39.9965L250.55 43.6217L250.564 41.9405L251.399 42.4265L251.425 35.9247L244.243 31.8135Z" fill="#6CAAC5"/><path id="Vector_86" d="M236.013 23L236 28.7793L241.062 31.6821L241.075 25.9028L236.013 23Z" fill="#6CAAC5"/></g><g id="Path_40" style="mix-blend-mode:overlay"><path id="Vector_87" d="M366.161 214.524V216.872L366.134 222.609L373.156 226.678L373.183 218.579L367.331 215.191L366.161 214.524Z" fill="#6CAAC5"/><path id="Vector_88" d="M372.066 200.715L372.026 212.175L381.973 217.926L382 206.478L372.066 200.715Z" fill="#6CAAC5"/><path id="Vector_89" d="M350.349 212.789L350.322 224.25L360.256 230L360.296 218.553L350.349 212.789Z" fill="#6CAAC5"/><path id="Vector_90" d="M357.424 200.341L357.384 211.802L366.161 216.872V214.524L367.331 215.191L367.358 206.091L357.424 200.341Z" fill="#6CAAC5"/><path id="Vector_91" d="M346.027 188L346 196.085L353.022 200.154L353.048 192.069L346.027 188Z" fill="#6CAAC5"/></g><g id="Path_41" style="mix-blend-mode:overlay" opacity="0.28"><path id="Vector_92" d="M28.948 168.038C26.6184 169.556 25.1505 172.107 25 174.901L25.1448 225.181C25.1448 227.703 26.9214 228.726 29.0928 227.451L102.052 184.975C104.385 183.461 105.854 180.907 106 178.113L105.934 127.819C105.934 125.297 104.158 124.274 101.986 125.549L28.948 168.038Z" fill="white"/></g><g id="Path_42" style="mix-blend-mode:overlay; animation: translateX 2s linear infinite; transform-origin: center; transform-box: fill-box;" opacity="0.52"><path id="Vector_93" d="M382.004 144.977C384.362 146.495 385.848 149.047 386 151.841L385.84 202.181C385.84 204.703 384.042 205.726 381.844 204.451L307.996 161.97C305.638 160.452 304.152 157.9 304 155.106L304.147 104.819C304.147 102.297 305.945 101.274 308.143 102.549L382.004 144.977Z" fill="#04B4E9"/></g><g id="Group_12" style="mix-blend-mode:overlay" opacity="0.53"><g id="Group_13"><path id="Shape" d="M320.674 147.298C323.955 149.425 326.015 152.986 326.217 156.878C326.217 160.387 323.71 161.807 320.635 160.046C317.358 157.922 315.299 154.366 315.092 150.478C315.092 146.956 317.613 145.537 320.674 147.298ZM320.674 156.852C322.205 157.746 323.459 157.036 323.459 155.275C323.365 153.328 322.333 151.547 320.688 150.491C319.157 149.598 317.903 150.307 317.903 152.068C317.997 154.015 319.029 155.797 320.674 156.852Z" fill="white"/><path id="Path_43" d="M330.268 146.444L330.255 149.874L315 141.108L315.013 137.665L330.268 146.444Z" fill="white"/><path id="Path_44" d="M341.974 147.429L341.96 150.873L315.026 135.378V131.935L341.974 147.429Z" fill="white"/><path id="Path_45" d="M342 137.481L341.974 145.379L315.04 129.898L315.066 122L342 137.481Z" fill="white"/></g><path id="Path_46" d="M340.364 164.238V165L333.594 161.11L331.918 162.069L329.107 160.453V159.691L331.641 161.136L333.317 160.19L340.364 164.238Z" fill="white"/><path id="Shape_2" d="M329.688 152.226C330.932 153.037 331.715 154.388 331.799 155.866C331.799 157.181 330.849 157.746 329.674 157.075C328.429 156.266 327.645 154.914 327.563 153.435C327.576 152.108 328.526 151.556 329.688 152.226ZM329.688 155.866C330.282 156.195 330.757 155.866 330.757 155.262C330.716 154.524 330.323 153.85 329.701 153.448C329.12 153.107 328.645 153.383 328.632 154.04C328.675 154.78 329.066 155.457 329.688 155.866Z" fill="white"/></g><g id="Group_14"><path id="Path_47" d="M253.96 88.3186C253.96 93.8783 250.126 98.5422 245.766 101.599C240.175 105.306 233.815 107.693 227.166 108.581C220.349 109.639 213.403 109.55 206.615 108.318C199.897 107.079 193.06 104.695 187.725 100.308C184.05 97.2906 181.073 93.022 181.138 88.1078C181.138 91.1248 180.77 94.4053 181.389 97.3301C182.706 103.325 187.844 107.646 193.007 110.373C199.088 113.461 205.727 115.293 212.53 115.761C219.09 116.354 225.702 115.841 232.092 114.246C239.733 112.231 248.387 108.568 252.339 101.23C254.434 97.2511 253.947 92.7058 253.96 88.3186Z" fill="#329AFF"/><path id="Oval" d="M253.933 88.3092C253.965 76.6529 237.678 67.158 217.555 67.1018C197.432 67.0456 181.092 76.4494 181.06 88.1057C181.027 99.7621 197.314 109.257 217.437 109.313C237.561 109.369 253.9 99.9656 253.933 88.3092Z" fill="#182F9F"/></g><path id="Path_48" style="mix-blend-mode:color-dodge" d="M246 0H187V84.9241H187.608C188.322 88.6205 191.139 92.2112 196.044 95.0495C207.509 101.65 226.034 101.65 237.432 95.0495C242.311 92.2112 245.088 88.6205 245.762 84.9241H246V0Z" fill="url(#paint2_linear_190_61)"/><g id="translate_2" style="animation: translateY 3s linear infinite; transform-origin: center; transform-box: fill-box;"><path id="Path_49" d="M238.43 62.2493C238.771 62.3653 239 62.6821 239 63.038C239 63.3939 238.771 63.7106 238.43 63.8267L215.972 76.6678C215.111 77.1107 214.085 77.1107 213.224 76.6678L197.57 67.7507C197.229 67.6347 197 67.3179 197 66.962C197 66.6061 197.229 66.2894 197.57 66.1733L220.028 53.3322C220.889 52.8893 221.915 52.8893 222.776 53.3322L238.43 62.2493Z" fill="#F2F8FD"/><path id="Path_50" d="M239 63.0563V63.1626C239 63.1626 239 63.1626 239 63.229V63.2954L238.921 63.3884H238.855H238.788H238.709L216.233 76.4724C216.146 76.5274 216.053 76.572 215.955 76.6053H215.889L215.704 76.6717H215.506H215.268H214.461H214.144C214.052 76.6594 213.963 76.6325 213.88 76.592C213.779 76.5513 213.682 76.5024 213.589 76.4459L197.538 67.7984C197.296 67.6759 197.108 67.4677 197.009 67.214C196.997 67.1392 196.997 67.0629 197.009 66.9882V68.011C197.085 68.3159 197.294 68.57 197.578 68.7017L213.245 77.7875L213.523 77.9336H213.589L213.761 78H213.866H213.972H214.157H215.202H215.281H215.466H215.572H215.651H215.731L216.008 77.8672L238.484 64.7831C238.506 64.7888 238.529 64.7888 238.55 64.7831L238.63 64.6901C238.63 64.6901 238.63 64.6902 238.63 64.6237V64.5175V63.6142C238.531 63.5478 238.474 63.4332 238.482 63.3137C238.49 63.1942 238.56 63.0878 238.667 63.0347C238.774 62.9816 238.901 62.9899 239 63.0563Z" fill="#7BAEFF"/><path id="Path_51" d="M236.81 63.1803C237.063 63.324 237.063 63.546 236.81 63.6897L215.322 75.9026C215.039 76.0325 214.712 76.0325 214.429 75.9026L200.183 67.8434C200.074 67.8082 200 67.7081 200 67.5952C200 67.4824 200.074 67.3823 200.183 67.347L221.685 55.108C221.964 54.964 222.298 54.964 222.578 55.108L236.81 63.1803Z" fill="url(#paint3_linear_190_61)"/><g id="Group_15" style="mix-blend-mode:overlay" opacity="0.58"><g id="Group_16"><path id="Shape_3" d="M218.254 66.0617C218.465 66.1399 218.605 66.3431 218.605 66.5705C218.605 66.7979 218.465 67.0011 218.254 67.0793C217.711 67.3572 217.07 67.3572 216.528 67.0793C216.044 66.7885 216.044 66.3392 216.528 66.0617C217.071 65.788 217.71 65.788 218.254 66.0617ZM216.946 66.8282C217.218 66.9671 217.538 66.9671 217.809 66.8282C218.045 66.696 218.045 66.4714 217.809 66.326C217.537 66.1932 217.219 66.1932 216.946 66.326C216.698 66.4714 216.698 66.696 216.946 66.8414" fill="white"/><path id="Shape_4" d="M214.463 63.9604C215.77 64.7004 215.77 65.8899 214.463 66.6035C213.039 67.3444 211.349 67.3444 209.926 66.6035C209.371 66.4063 209 65.8765 209 65.2819C209 64.6874 209.371 64.1576 209.926 63.9604C211.351 63.226 213.038 63.226 214.463 63.9604ZM211.077 65.9559C211.786 66.3252 212.629 66.3252 213.338 65.9559C213.616 65.8573 213.801 65.5924 213.801 65.2952C213.801 64.9979 213.616 64.733 213.338 64.6344C212.62 64.2835 211.782 64.2835 211.064 64.6344C210.436 65.0044 210.436 65.5991 211.064 65.9559" fill="white"/><path id="Path_52" d="M220.542 69.8414L220.267 70L217.495 68.3877H216.136L214.985 67.7137L215.26 67.5551L216.293 68.163H217.652L220.542 69.8414Z" fill="white"/></g><path id="Path_53" d="M220.646 64.9251L219.43 65.6388L213.181 61.9912L214.41 61.2775L220.646 64.9251Z" fill="white"/><path id="Path_54" d="M227.47 66.511L226.254 67.2379L215.221 60.8018L216.437 60.0749L227.47 66.511Z" fill="white"/><path id="Path_55" d="M231 64.4361L228.202 66.0881L217.169 59.652L219.979 58L231 64.4361Z" fill="white"/></g></g><path id="Path_56" d="M126.574 123.236L126.694 123.158L126.866 123.079L127.025 123H127.184H127.344H127.463H127.622H127.795H127.967H128.538H128.763H129.028L129.347 123.158L132 124.668C131.818 124.565 131.621 124.489 131.416 124.445C131.192 124.411 130.964 124.411 130.74 124.445C130.49 124.461 130.244 124.514 130.01 124.602C129.729 124.7 129.459 124.823 129.201 124.97L55.6532 167L53 165.49L126.574 123.236Z" fill="#8CDCFF"/><path id="Path_57" d="M49.3471 171.35C49.3405 171.289 49.3405 171.226 49.3471 171.165C49.341 171.099 49.341 171.032 49.3471 170.966C49.3471 170.833 49.3471 170.701 49.3471 170.568C49.3471 170.568 49.3471 170.436 49.3471 170.369V170.157C49.3527 170.091 49.3527 170.025 49.3471 169.958C49.3471 169.892 49.3471 169.813 49.3471 169.746C49.3471 169.68 49.3471 169.64 49.3471 169.587C49.3471 169.587 49.3471 169.455 49.4091 169.388C49.4711 169.322 49.4091 169.243 49.4711 169.176L49.5455 168.991L49.6198 168.792C49.6198 168.792 49.6198 168.699 49.6198 168.646L49.6942 168.447L49.7934 168.248L49.905 168.01L50.0413 167.758L50.314 167.294L50.5496 166.936L50.7107 166.71L50.8595 166.511L50.9959 166.339L51.1446 166.167L51.2562 166.034L51.4174 165.875L51.5785 165.703L51.7397 165.557L51.8264 165.477H51.8884L52.0496 165.345L52.2107 165.225L52.3719 165.106L52.5207 165L55 166.525C54.7398 166.686 54.4912 166.868 54.2562 167.068C54.0113 167.272 53.7832 167.499 53.5744 167.744C53.1284 168.257 52.7376 168.822 52.4091 169.428C52.2479 169.733 52.1116 170.038 51.9752 170.356C51.84 170.669 51.728 170.993 51.6405 171.324C51.5526 171.646 51.4823 171.974 51.4298 172.305C51.3809 172.625 51.356 172.949 51.3554 173.273L51.4917 223.494C51.4896 223.783 51.5145 224.072 51.5661 224.356C51.608 224.593 51.6745 224.824 51.7645 225.045C51.8349 225.213 51.9267 225.369 52.0372 225.509L52.1488 225.642C52.2628 225.783 52.3966 225.903 52.5455 226L50.0661 224.475C49.9135 224.379 49.7755 224.258 49.657 224.117L49.5578 223.985C49.5086 223.926 49.463 223.864 49.4215 223.799C49.3687 223.715 49.3231 223.627 49.2851 223.534L49.2107 223.335L49.1364 223.123C49.142 223.057 49.142 222.99 49.1364 222.924C49.1424 222.894 49.1424 222.862 49.1364 222.831V222.752C49.1416 222.69 49.1416 222.628 49.1364 222.566C49.1364 222.5 49.1364 222.434 49.1364 222.367C49.1297 222.306 49.1297 222.243 49.1364 222.182V221.996L49 171.775L49.3471 171.35Z" fill="#58AFFB"/><path id="Path_58" d="M54.9961 167.03C52.6397 168.55 51.1545 171.101 51 173.894L51.1465 224.181C51.1465 226.703 52.9448 227.726 55.1426 226.451L129.004 183.97C131.367 182.456 132.854 179.902 133 177.106L132.867 126.819C132.867 124.297 131.069 123.274 128.871 124.549L54.9961 167.03Z" fill="#003783"/><g id="Path_59"><path id="Vector_94" d="M109.632 172.235L107 170.695L107.027 178.46L109.645 180L109.632 172.235Z" fill="#CE7C56"/><path id="Vector_95" d="M115.987 168.54L113.355 167L107 170.695L109.632 172.235L115.987 168.54Z" fill="#FFBE3D"/><path id="Vector_96" d="M109.632 172.235L109.645 180L116 176.305L115.987 168.54L109.632 172.235Z" fill="#E2A029"/></g><g id="Path_60"><path id="Vector_97" d="M99.6244 171.238L97 169.707L97.0398 184.455L99.6642 186L99.6244 171.238Z" fill="#2670D4"/><path id="Vector_98" d="M105.96 167.545L103.336 166L97 169.707L99.6244 171.238L105.96 167.545Z" fill="#58AFFB"/><path id="Vector_99" d="M99.6245 171.238L99.6642 186L106 182.293L105.96 167.545L99.6245 171.238Z" fill="#2689FD"/></g><g id="Path_61"><path id="Vector_100" d="M89.6112 171.265L87 169.716L87.053 190.452L89.6775 192L89.6112 171.265Z" fill="#CC096A"/><path id="Vector_101" d="M95.947 167.548L93.3225 166L87 169.716L89.6112 171.265L95.947 167.548Z" fill="#EE2C6A"/><path id="Vector_102" d="M89.6112 171.265L89.6775 192L96 188.297L95.947 167.548L89.6112 171.265Z" fill="#EE2C6A"/></g><g id="Path_62"><path id="Vector_103" d="M79.6167 171.196L77 169.664L77.0661 195.468L79.6828 197L79.6167 171.196Z" fill="#5B5BD6"/><path id="Vector_104" d="M85.9207 167.532L83.3172 166L77 169.664L79.6167 171.196L85.9207 167.532Z" fill="#B391FF"/><path id="Vector_105" d="M79.6167 171.196L79.6828 197L86 193.323L85.9207 167.532L79.6167 171.196Z" fill="#7974F5"/></g><g id="Oval_2" style="mix-blend-mode:multiply" opacity="0.26"><path id="Vector_106" d="M295.967 282.057C295.985 275.462 286.837 270.089 275.533 270.058C264.23 270.026 255.051 275.347 255.033 281.943C255.014 288.538 264.163 293.911 275.467 293.942C286.77 293.974 295.948 288.653 295.967 282.057Z" fill="#182F9F"/></g><g id="translate_1" style="animation: translateY 2s linear infinite; transform-origin: center; transform-box: fill-box;"><path id="Path_63" d="M281.722 281C282.559 281.721 283.533 282.212 284.567 282.435C285.837 282.522 288.644 282.708 288.962 283.555C289.279 284.402 287.577 285.78 285.875 286.067C284.173 286.354 283.436 287 281.81 287C280.185 287 278.14 286.713 278 285.565C278.094 284.139 278.341 282.731 278.737 281.373L281.722 281Z" fill="#003783"/><path id="Path_64" d="M270.687 277C271.528 277.721 272.506 278.212 273.545 278.435C274.82 278.522 277.627 278.708 277.959 279.541C278.29 280.373 276.568 281.78 274.859 282.067C273.149 282.354 272.396 283 270.763 283C269.131 283 267.089 282.713 267 281.565C267.099 280.14 267.347 278.733 267.74 277.373L270.687 277Z" fill="#003783"/><path id="Path_65" d="M295 200.926C295 200.926 295.551 197.253 295.857 196.197C296.162 195.14 296.799 192.926 297.19 193.002C297.582 193.077 297.349 194.146 297.19 194.964L296.884 196.524C297.441 196.818 297.966 197.172 298.45 197.58C298.944 198.097 299.122 198.85 298.915 199.543C298.821 199.736 298.653 199.882 298.45 199.945C298.45 199.945 298.059 201.907 297.117 201.995C296.175 202.083 295 200.926 295 200.926Z" fill="#F4A89A"/><path id="Path_66" d="M266 227.013C266.943 232.975 268.843 245.401 269.034 249.693C269.28 255.443 267.367 278.043 267.367 278.043C267.367 278.043 270.1 280.282 272.082 277.911C272.082 277.911 275.895 254.939 276.66 247.441C277.166 242.513 277.002 232.975 276.838 227L266 227.013Z" fill="#112869"/><path id="Path_67" d="M277 241C277 236.762 277 231.977 276.89 228.203L273.041 227H266C266.233 228.504 266.521 230.418 266.822 232.469C268.849 233.371 274.329 236.078 277 241Z" fill="#00007B"/><path id="Path_68" d="M277 227.004C277 227.004 280.158 247.132 280.393 252.839C280.628 258.547 278.801 281.048 278.801 281.048C278.801 281.048 281.411 283.276 283.303 280.916C283.303 280.916 286.944 258.059 287.675 250.599C288.406 243.138 287.675 225 287.675 225L277 227.004Z" fill="#112869"/><path id="Path_69" d="M272.711 179.114C274.526 177.905 276.855 177.663 278.897 178.472C281.328 179.756 280.927 183.546 280.994 185.459C281.061 187.373 280.607 190.405 276.852 189.955C273.098 189.506 272.109 188.093 271.655 186.23C271.201 184.368 270.012 180.206 272.711 179.114Z" fill="#F4A89A"/><path id="Path_70" d="M277.65 189.409C277.63 190.774 277.747 192.138 278 193.48C278 194.325 272.484 194.325 271 192.071C271.295 190.355 271.707 188.66 272.232 187L277.65 189.409Z" fill="#F4A89A"/><path id="Path_71" d="M271.645 191C269.832 191.299 268.23 192.359 267.232 193.917C265.809 196.448 265.282 205.226 265.677 212.673C266.073 220.119 264.505 230.083 265.164 231.681C265.822 233.28 277.361 236.343 283.842 234.345C288.386 232.747 287.991 231.415 287.991 231.415C287.991 231.415 286.951 213.339 286.305 208.41C285.66 203.481 284.988 198.446 282.801 196.182C279.773 193.222 275.838 191.394 271.645 191Z" fill="#EBEEEE"/><path id="Path_72" d="M270 191.954C270.283 191.258 270.665 190.6 271.136 190C273.61 190.01 276.024 190.723 278.061 192.046C278.814 192.596 279.468 193.256 280 194C280 194 278.269 193.713 276.731 193.414C275.194 193.114 271.537 192.827 270 191.954Z" fill="#98CADB"/><path id="Path_73" d="M278.543 203.147C278.543 203.147 283.231 217.336 288.599 216.994C293.967 216.652 298 201.449 298 201.449C298.005 200.842 297.693 200.278 297.177 199.962C296.662 199.647 296.02 199.626 295.486 199.909C295.486 199.909 291.558 208.451 290.118 208.623C288.678 208.794 286.255 197 283.074 197C279.892 197 276.697 199.922 278.543 203.147Z" fill="#98CADB"/><path id="Path_74" d="M281.042 182.06C283.265 181.338 283.357 178.178 282.494 177.062C281.771 176.144 280.585 175.777 279.499 176.135C278.819 176.449 275.34 175.727 273.601 176.748C272.616 177.257 271.957 178.263 271.862 179.404C271.69 179.781 271.461 180.126 271.182 180.425C270.41 182.155 272.346 187.357 272.346 187.357L272.673 187.834C272.642 188.106 272.642 188.38 272.673 188.651C274.016 189.195 275.46 189.414 276.897 189.291C277.603 188.951 277.982 188.134 278.204 188.066C278.427 187.998 278.819 187.861 278.819 187.589C278.819 187.317 278.335 187.112 278.139 186.227C277.943 185.342 278.257 185.124 278.518 185.001C279.099 186.113 279.564 187.286 279.904 188.501C279.904 189.291 278.518 190.177 278.44 190.708C278.361 191.239 279.447 191.021 280.663 190.258C281.589 189.389 282.044 188.1 281.879 186.813C281.748 186.418 280.78 187.562 280.414 187.262C280.044 186.787 279.788 186.227 279.669 185.628C279.633 185.442 279.58 185.259 279.512 185.083C279.512 184.906 279.42 184.715 279.368 184.511C279.3 184.285 279.256 184.052 279.237 183.817C279.604 183.014 280.249 182.387 281.042 182.06Z" fill="url(#paint4_linear_190_61)"/></g></g></g></g></g><defs><linearGradient id="paint0_linear_190_61" x1="366.645" y1="186.001" x2="374.444" y2="168.569" gradientUnits="userSpaceOnUse"><stop/><stop offset="1" stop-color="#02B3C4"/></linearGradient><linearGradient id="paint1_linear_190_61" x1="377.066" y1="196.649" x2="381.573" y2="186.582" gradientUnits="userSpaceOnUse"><stop/><stop offset="1" stop-color="#02B3C4"/></linearGradient><linearGradient id="paint2_linear_190_61" x1="216.5" y1="124.726" x2="216.5" y2="23.0759" gradientUnits="userSpaceOnUse"><stop stop-color="white"/><stop offset="0.5" stop-color="#787878" stop-opacity="0.47"/><stop offset="0.84" stop-color="#222222" stop-opacity="0.13"/><stop offset="1" stop-opacity="0"/></linearGradient><linearGradient id="paint3_linear_190_61" x1="211.067" y1="60.0191" x2="220.497" y2="81.6308" gradientUnits="userSpaceOnUse"><stop stop-color="#05CCFF"/><stop offset="1" stop-color="#2A57D4"/></linearGradient><linearGradient id="paint4_linear_190_61" x1="271.1" y1="163.252" x2="285.233" y2="191.424" gradientUnits="userSpaceOnUse"><stop stop-color="#FFE900"/><stop offset="1" stop-color="#FF00AF"/></linearGradient><clipPath id="clip0_190_61"><rect width="445" height="525" fill="white"/></clipPath></defs><style> @keyframes translateX { 0%, 100% { transform: translateX(2px); } 50% { transform: translateX(-2px); } } @keyframes translateY { 0%, 100% { transform: translateY(2px); } 50% { transform: translateY(-2px); } }</style></svg>