<?xml version="1.0" encoding="UTF-8"?>
<svg width="20px" height="20px" viewBox="0 0 20 20" version="1.1" xmlns="http://www.w3.org/2000/svg" xmlns:xlink="http://www.w3.org/1999/xlink">
    <title>Combined Shape</title>
    <g id="Page-1" stroke="none" stroke-width="1" fill="none" fill-rule="evenodd">
        <g id="Home" transform="translate(-304.000000, -5263.000000)" fill="#FFFFFF" fill-rule="nonzero">
            <g id="Footer" transform="translate(0.000000, 5140.000000)">
                <g id="Group-19-Copy-3" transform="translate(165.000000, 32.000000)">
                    <g id="Social-links" transform="translate(139.000000, 91.000000)">
                        <path d="M10,2.13162821e-13 C15.5228475,2.13162821e-13 20,4.4771525 20,10 C20,15.5228475 15.5228475,20 10,20 C4.4771525,20 2.13162821e-13,15.5228475 2.13162821e-13,10 C2.13162821e-13,4.4771525 4.4771525,2.13162821e-13 10,2.13162821e-13 Z M7.35676851,7.73824379 L4.96720026,7.73824379 L4.96720026,14.9274484 L7.35676851,14.9274484 L7.35676851,7.73824379 Z M13.2232878,7.56943207 C11.9531891,7.56943207 11.3866805,8.26820921 11.0690221,8.75699668 L11.0690221,7.73824379 L8.67838426,7.73824379 C8.68661162,7.91115548 8.69061982,8.46804581 8.69203161,9.20063437 L8.69211924,10.6640593 C8.68987984,12.4009503 8.68114943,14.3407612 8.67891003,14.8172487 L8.67838426,14.9272701 L11.0688438,14.9272701 L11.0688438,10.9121537 C11.0688438,10.696638 11.0850654,10.4832614 11.147991,10.3296018 C11.3212592,9.89963992 11.7136083,9.45559556 12.3740597,9.45559556 C13.2395094,9.45559556 13.5846198,10.1151556 13.5846198,11.0809655 L13.5846198,14.9274484 L15.9749011,14.9274484 L15.9749011,10.8046633 C15.9749011,8.59691968 14.7958929,7.56943207 13.2232878,7.56943207 Z M6.17776035,4.2728796 C5.36008414,4.2728796 4.82512746,4.80961888 4.82512746,5.51481336 C4.82512746,6.20503405 5.34457556,6.7572819 6.14638668,6.7572819 L6.16189525,6.7572819 C6.99561482,6.7572819 7.51399337,6.20503405 7.51399337,5.51481336 C7.49812828,4.80961888 6.99561482,4.2728796 6.17776035,4.2728796 Z" id="Combined-Shape"></path>
                    </g>
                </g>
            </g>
        </g>
    </g>
</svg>