<?xml version="1.0" encoding="UTF-8"?>
<svg width="24px" height="24px" viewBox="0 0 24 24" version="1.1" xmlns="http://www.w3.org/2000/svg" xmlns:xlink="http://www.w3.org/1999/xlink">
    <title>icon/rounded/maps/mdpi/place_24px</title>
    <g id="Page-1" stroke="none" stroke-width="1" fill="none" fill-rule="evenodd">
        <g id="Home" transform="translate(-681.000000, -4921.000000)" fill="#00BFF5">
            <g id="Group-4-Copy" transform="translate(0.000000, 4634.000000)">
                <g id="Group-11" transform="translate(165.000000, 180.000000)">
                    <g id="Group-8" transform="translate(0.000000, 93.000000)">
                        <g id="icon/rounded/maps/place_24px" transform="translate(516.000000, 14.000000)">
                            <path d="M12,2.265 C8.13,2.265 5,5.395 5,9.265 C5,13.435 9.42,19.185 11.24,21.375 C11.64,21.855 12.37,21.855 12.77,21.375 C14.58,19.185 19,13.435 19,9.265 C19,5.395 15.87,2.265 12,2.265 Z M12,11.765 C10.62,11.765 9.5,10.645 9.5,9.265 C9.5,7.885 10.62,6.765 12,6.765 C13.38,6.765 14.5,7.885 14.5,9.265 C14.5,10.645 13.38,11.765 12,11.765 Z" id="icon/maps/place_24px"></path>
                        </g>
                    </g>
                </g>
            </g>
        </g>
    </g>
</svg>