<svg width="279" height="50" viewBox="0 0 279 50" fill="none" xmlns="http://www.w3.org/2000/svg"><g id="Page-1"><g id="Home"><g id="Header"><g id="Group-7"><g id="translate" style="animation: translateX 2s linear infinite; transform-origin: center; transform-box: fill-box;"><path id="Path-5" fill-rule="evenodd" clip-rule="evenodd" d="M277.624 2L254.395 13.6264V34.5317L234.624 49L258.787 37.4052V16.482L277.624 2Z" fill="#00BFF5"/><g id="Group-27"><path id="Path-6" fill-rule="evenodd" clip-rule="evenodd" d="M271.624 1.51004L250.531 10.3172V26.9472L235.695 42L253.932 33.0657V12.5656L271.624 1.51004Z" fill="#00BFF5"/><path id="Path-7" fill-rule="evenodd" clip-rule="evenodd" d="M264.363 1.27153L247.168 8.20986L246.954 20.9569L235.922 31.7341L249.602 25.2117V9.84357L264.363 1.27153Z" fill="#00BFF5"/><path id="Path-8" fill-rule="evenodd" clip-rule="evenodd" d="M257.383 1.51004L243.836 6.20177L243.642 15.2993L235.922 24.0917L245.898 18.9106V7.51668L257.383 1.51004Z" fill="#00BFF5"/><path id="Path-8-Copy" fill-rule="evenodd" clip-rule="evenodd" d="M250.524 1.31124L241.154 4.5563L241.02 10.8487L235.68 16.93L242.58 13.3464V5.46577L250.524 1.31124Z" fill="#00BFF5"/><path id="Path-9" fill-rule="evenodd" clip-rule="evenodd" d="M243.475 1.40101L238.644 3.0647V5.80087L236.099 10.1139L239.878 8.42136L239.994 4.00381L243.475 1.40101Z" fill="#00BFF5"/><path id="Path-9-Copy" fill-rule="evenodd" clip-rule="evenodd" d="M239.879 1L237.092 1.95984V3.53842L235.624 6.02672L237.804 5.05026L237.871 2.50164L239.879 1Z" fill="#00BFF5"/></g><g id="Group-27-Copy"><path id="Path-6_2" fill-rule="evenodd" clip-rule="evenodd" d="M242.624 49.2258L263.51 40.4761V23.9546L278.202 9L260.143 17.876V38.2424L242.624 49.2258Z" fill="#00BFF5"/><path id="Path-7_2" fill-rule="evenodd" clip-rule="evenodd" d="M250.164 49.5519L267.192 42.6588L267.404 29.9949L278.328 19.2881L264.781 25.768V41.0358L250.164 49.5519Z" fill="#00BFF5"/><path id="Path-8_2" fill-rule="evenodd" clip-rule="evenodd" d="M256.989 49.3149L270.404 44.6538L270.595 35.6156L278.24 26.8806L268.361 32.0279V43.3475L256.989 49.3149Z" fill="#00BFF5"/><path id="Path-8-Copy_2" fill-rule="evenodd" clip-rule="evenodd" d="M263.693 49.6016L272.972 46.3777L273.104 40.1264L278.392 34.0848L271.559 37.645V45.4742L263.693 49.6016Z" fill="#00BFF5"/><path id="Path-9_2" fill-rule="evenodd" clip-rule="evenodd" d="M270.761 49.6016L275.544 47.9488V45.2305L278.065 40.9456L274.322 42.6271L274.208 47.0158L270.761 49.6016Z" fill="#00BFF5"/><path id="Path-9-Copy_2" fill-rule="evenodd" clip-rule="evenodd" d="M274.41 50L277.169 49.0464V47.4781L278.624 45.0061L276.464 45.9762L276.398 48.5082L274.41 50Z" fill="#00BFF5"/></g><path id="Line" d="M258.668 37.0444L277.579 48.9556" stroke="#00BFF5" stroke-linecap="square"/><path id="Line-Copy" d="M236.624 1L256.124 14.5" stroke="#00BFF5" stroke-linecap="square"/></g><g id="&#217;&#133;&#216;&#164;&#216;&#179;&#216;&#179;&#216;&#169;-&#217;&#132;&#216;&#167;&#217;&#133;&#216;&#167;&#216;&#177;-&#216;&#167;&#217;&#132;&#216;&#179;&#216;&#185;&#217;&#136;&#216;&#175;&#217;&#138;&#216;&#169;"><path id="Shape" d="M213.453 10.6986C213.453 9.36036 213.918 8.34613 214.848 7.65589C215.58 7.09242 216.58 6.81069 217.848 6.81069C219.088 6.81069 220.137 7.17694 220.997 7.90944C222.081 8.83915 222.624 10.1562 222.624 11.8607C222.624 13.4666 222.194 14.7978 221.335 15.8542C220.504 16.8826 219.426 17.3967 218.102 17.3967C216.933 17.3967 216.01 16.96 215.334 16.0867C214.883 16.5374 214.334 16.7628 213.686 16.7628H209.65V14.6076H212.904C213.059 14.6076 213.193 14.5512 213.305 14.4386C213.404 14.3399 213.453 14.2202 213.453 14.0793V10.6986ZM216.01 14.3752C216.531 14.9386 217.13 15.2204 217.806 15.2204C218.468 15.2204 219.01 14.9281 219.433 14.3435C219.856 13.7589 220.067 13.0017 220.067 12.072C220.067 11.0578 219.834 10.2619 219.37 9.68435C218.947 9.19132 218.398 8.9448 217.721 8.9448C217.214 8.9448 216.813 9.1068 216.517 9.43079C216.179 9.74069 216.01 10.1633 216.01 10.6986V14.3752Z" fill="#072A44"/><path id="Shape_2" d="M203.522 4.1906C203.297 3.82435 203.184 3.42288 203.184 2.9862C203.184 2.38048 203.364 1.89802 203.723 1.53881C204.082 1.1796 204.558 1 205.149 1C205.515 1 205.875 1.06339 206.227 1.19017V2.28892C205.917 2.2044 205.649 2.16214 205.424 2.16214C204.832 2.16214 204.536 2.50022 204.536 3.17637C204.536 3.42993 204.607 3.65531 204.748 3.85252C204.917 4.07791 205.17 4.1906 205.508 4.1906H206.924V4.71884L206.438 5.33161H202.698V4.1906H203.522ZM204.748 16.7628C203.198 16.7628 201.98 16.2346 201.092 15.1781C200.346 14.2766 199.972 13.1637 199.972 11.8396C199.972 10.2619 200.416 9.02932 201.304 8.14187C202.233 7.24033 203.424 6.78956 204.875 6.78956C205.931 6.78956 206.847 7.05017 207.621 7.57137C208.636 8.30387 209.143 9.34627 209.143 10.6986V14.6076H209.819V16.7628H209.122C209.023 18.2842 208.488 19.4745 207.516 20.3338C206.84 20.9395 206.03 21.355 205.086 21.5804C204.424 21.7354 203.776 21.8129 203.142 21.8129C202.931 21.8129 202.628 21.7988 202.233 21.7706H202.17L201.092 20.4394V19.5097C201.67 19.6083 202.212 19.6576 202.719 19.6576C205.029 19.6576 206.29 18.6927 206.502 16.7628H204.748ZM206.565 10.6986C206.565 10.1351 206.382 9.69139 206.016 9.3674C205.692 9.08567 205.311 8.9448 204.875 8.9448C204.156 8.9448 203.586 9.19836 203.163 9.70548C202.74 10.2126 202.529 10.9099 202.529 11.7973C202.529 12.6566 202.762 13.3398 203.226 13.8469C203.691 14.354 204.325 14.6076 205.128 14.6076H206.565V10.6986Z" fill="#072A44"/><path id="Path" d="M197.331 7.04312V14.4386C197.331 15.0724 197.109 15.6183 196.666 16.0761C196.222 16.5339 195.683 16.7628 195.049 16.7628H190.612L189.83 15.8965H189.767C189.302 16.4741 188.71 16.7628 187.992 16.7628H183.555L182.752 15.8965H182.688C182.223 16.4741 181.632 16.7628 180.913 16.7628H174.912V14.6076H180.089C180.441 14.6076 180.618 14.4315 180.618 14.0793V9.47305H183.195V13.699C183.195 14.1075 183.188 14.4104 183.174 14.6076H187.168C187.52 14.6076 187.696 14.4315 187.696 14.0793V8.24752H190.274V13.8892C190.274 13.9737 190.267 14.1005 190.253 14.2695C190.253 14.4245 190.253 14.5372 190.253 14.6076H194.225C194.577 14.6076 194.753 14.4315 194.753 14.0793V7.04312H197.331Z" fill="#072A44"/><path id="Path_2" d="M173.983 7.04312V13.9526V14.6076H175.06V16.7628H174.236L173.539 15.8965H173.497C173.018 16.4741 172.419 16.7628 171.701 16.7628H167.179L166.482 15.8965H166.418C165.953 16.4741 165.362 16.7628 164.643 16.7628H160.1L159.403 15.8965H159.34C158.875 16.4741 158.283 16.7628 157.565 16.7628H151.564V14.6076H156.741C157.093 14.6076 157.269 14.4315 157.269 14.0793V9.47305H159.847V13.9526C159.847 14.2484 159.84 14.4667 159.826 14.6076H163.819C164.171 14.6076 164.348 14.4315 164.348 14.0793V8.24752H166.925V13.8892C166.925 13.9737 166.918 14.1005 166.904 14.2695C166.904 14.4245 166.904 14.5372 166.904 14.6076H170.877C171.229 14.6076 171.405 14.4315 171.405 14.0793V7.04312H173.983Z" fill="#072A44"/><path id="Shape_3" d="M146.049 2.39457C146.429 2.39457 146.753 2.52839 147.021 2.79603C147.289 3.06368 147.423 3.38767 147.423 3.768C147.423 4.13425 147.289 4.4512 147.021 4.71884C146.753 4.98649 146.429 5.12031 146.049 5.12031C145.669 5.12031 145.345 4.98649 145.077 4.71884C144.81 4.4512 144.676 4.13425 144.676 3.768C144.676 3.38767 144.81 3.06368 145.077 2.79603C145.345 2.52839 145.669 2.39457 146.049 2.39457ZM149.261 2.39457C149.641 2.39457 149.965 2.52839 150.233 2.79603C150.501 3.06368 150.634 3.38767 150.634 3.768C150.634 4.13425 150.501 4.4512 150.233 4.71884C149.965 4.98649 149.641 5.12031 149.261 5.12031C148.895 5.12031 148.578 4.98649 148.31 4.71884C148.042 4.4512 147.909 4.13425 147.909 3.768C147.909 3.38767 148.042 3.06368 148.31 2.79603C148.578 2.52839 148.895 2.39457 149.261 2.39457ZM150.634 6.47262V14.0793C150.634 14.2484 150.684 14.3752 150.782 14.4597C150.867 14.5583 150.979 14.6076 151.12 14.6076H151.712V16.7628H150.381C149.733 16.7628 149.148 16.5022 148.627 15.981C147.824 16.6431 146.93 16.9741 145.944 16.9741C144.831 16.9741 143.873 16.622 143.07 15.9176C141.999 14.9175 141.464 13.5793 141.464 11.903C141.464 10.3675 141.957 9.09271 142.943 8.07848C143.845 7.16286 144.95 6.70505 146.26 6.70505C146.993 6.70505 147.725 6.86 148.458 7.1699L149.367 6.47262H150.634ZM148.056 9.19836C147.563 9.01524 147.092 8.92367 146.641 8.92367C145.88 8.92367 145.253 9.20188 144.76 9.7583C144.267 10.3147 144.021 11.0367 144.021 11.9241C144.021 12.8116 144.243 13.5229 144.686 14.0582C145.13 14.5935 145.725 14.8611 146.472 14.8611C146.979 14.8611 147.507 14.7485 148.056 14.5231V9.19836Z" fill="#072A44"/><path id="Path_3" d="M134.956 1.63389V14.4386C134.956 15.0443 134.759 15.5584 134.364 15.981C133.914 16.5022 133.35 16.7628 132.674 16.7628H124.201L123.144 15.4528V14.6076H128.279L124.793 4.23286H127.201L130.709 14.6076H131.85C132.019 14.6076 132.16 14.5512 132.273 14.4386C132.343 14.3259 132.378 14.2061 132.378 14.0793V1.63389H134.956Z" fill="#072A44"/><path id="Shape_4" d="M112.263 10.6986C112.263 9.36036 112.727 8.34613 113.657 7.65589C114.39 7.09242 115.39 6.81069 116.658 6.81069C117.897 6.81069 118.947 7.17694 119.806 7.90944C120.891 8.83915 121.433 10.1562 121.433 11.8607C121.433 13.4666 121.003 14.7978 120.144 15.8542C119.313 16.8826 118.235 17.3967 116.911 17.3967C115.742 17.3967 114.819 16.96 114.143 16.0867C113.692 16.5374 113.143 16.7628 112.495 16.7628H108.459V14.6076H111.713C111.868 14.6076 112.002 14.5512 112.115 14.4386C112.213 14.3399 112.263 14.2202 112.263 14.0793V10.6986ZM114.819 14.3752C115.341 14.9386 115.939 15.2204 116.615 15.2204C117.277 15.2204 117.82 14.9281 118.242 14.3435C118.665 13.7589 118.876 13.0017 118.876 12.072C118.876 11.0578 118.644 10.2619 118.179 9.68435C117.756 9.19132 117.207 8.9448 116.531 8.9448C116.024 8.9448 115.622 9.1068 115.326 9.43079C114.988 9.74069 114.819 10.1633 114.819 10.6986V14.3752Z" fill="#072A44"/><path id="Path_4" d="M107.551 1.63389V14.0793C107.551 14.2202 107.593 14.3329 107.677 14.4174C107.762 14.5442 107.896 14.6076 108.079 14.6076H108.628V16.7628H107.255C106.677 16.7628 106.17 16.5586 105.734 16.1501C105.226 15.6852 104.973 15.1147 104.973 14.4386V1.63389H107.551Z" fill="#072A44"/><path id="Path_5" d="M102.057 7.04312V16.2557C102.057 18.0024 101.522 19.3548 100.451 20.3126C99.7608 20.9465 98.8734 21.3903 97.7887 21.6438C97.2816 21.7424 96.7533 21.7917 96.204 21.7917C96.0208 21.7917 95.7743 21.7776 95.4644 21.7495L94.4291 20.4605V19.552C94.8798 19.6224 95.3165 19.6576 95.7391 19.6576C98.2324 19.6576 99.4791 18.4462 99.4791 16.0233V7.04312H102.057Z" fill="#072A44"/><path id="Path_6" d="M89.3368 1.63389V16.2346L88.0267 17.2911H86.7589V1.63389H89.3368Z" fill="#072A44"/><path id="Path_7" d="M83.843 1.63389V14.4386C83.843 15.0302 83.6529 15.5373 83.2725 15.9599C82.8359 16.4952 82.2654 16.7628 81.561 16.7628H77.483V14.6076H80.737C80.8919 14.6076 81.0257 14.5512 81.1384 14.4386C81.237 14.3399 81.2863 14.2202 81.2863 14.0793V1.63389H83.843Z" fill="#072A44"/><path id="Path_8" d="M76.5532 7.04312V13.9526V14.6076H77.6309V16.7628H76.8068L76.1095 15.8965H76.0673C75.5883 16.4741 74.9896 16.7628 74.2712 16.7628H69.7495L69.0522 15.8965H68.9888C68.5239 16.4741 67.9323 16.7628 67.2139 16.7628H62.671L61.9737 15.8965H61.9103C61.4454 16.4741 60.8538 16.7628 60.1354 16.7628H54.1345V14.6076H59.3113C59.6635 14.6076 59.8396 14.4315 59.8396 14.0793V9.47305H62.4174V13.9526C62.4174 14.2484 62.4104 14.4667 62.3963 14.6076H66.3898C66.742 14.6076 66.9181 14.4315 66.9181 14.0793V8.24752H69.4959V13.8892C69.4959 13.9737 69.4889 14.1005 69.4748 14.2695C69.4748 14.4245 69.4748 14.5372 69.4748 14.6076H73.4472C73.7993 14.6076 73.9754 14.4315 73.9754 14.0793V7.04312H76.5532Z" fill="#072A44"/><path id="Shape_5" d="M42.9146 10.762C43.3936 9.38149 44.2669 8.33204 45.5347 7.61363C46.4785 7.07834 47.4998 6.81069 48.5985 6.81069C49.6973 6.81069 50.7045 7.10651 51.6201 7.69815C52.7611 8.38839 53.5781 9.40966 54.0711 10.762L53.8176 11.3536C53.2541 11.6072 52.6625 12.0438 52.0427 12.6636C51.451 13.3116 51.0637 13.9596 50.8805 14.6076H54.2824V16.7628H49.6339C49.2395 16.7628 48.8803 16.5797 48.5563 16.2135H48.4506C48.1266 16.5797 47.7533 16.7628 47.3307 16.7628H39.9776V14.6076H46.1052C45.9362 14.03 45.577 13.4173 45.0276 12.7693C44.4219 12.0931 43.795 11.6212 43.147 11.3536L42.9146 10.762ZM51.3665 10.5929C51.0285 10.0013 50.5706 9.56461 49.9931 9.28288C49.5564 9.07158 49.0704 8.96593 48.5351 8.96593C47.9717 8.96593 47.4364 9.08567 46.9293 9.32514C46.3658 9.60687 45.9291 10.0295 45.6192 10.5929C46.0982 10.8042 46.6053 11.2268 47.1406 11.8607C47.7322 12.5228 48.1689 13.2412 48.4506 14.016H48.5351C48.8028 13.2271 49.2606 12.4735 49.9086 11.7551C50.4298 11.1775 50.9158 10.7901 51.3665 10.5929Z" fill="#072A44"/><path id="Shape_6" d="M35.0543 16.7628C33.5048 16.7628 32.2863 16.2346 31.3989 15.1781C30.6523 14.2766 30.279 13.1637 30.279 11.8396C30.279 10.2619 30.7227 9.02932 31.6102 8.14187C32.5399 7.24033 33.7302 6.78956 35.1811 6.78956C36.2376 6.78956 37.1532 7.05017 37.928 7.57137C38.9422 8.30387 39.4493 9.34627 39.4493 10.6986V14.6076H40.1255V16.7628H39.4282C39.3296 18.2842 38.7943 19.4745 37.8223 20.3338C37.1462 20.9395 36.3362 21.355 35.3924 21.5804C34.7303 21.7354 34.0824 21.8129 33.4485 21.8129C33.2372 21.8129 32.9343 21.7988 32.5399 21.7706H32.4765L31.3989 20.4394V19.5097C31.9764 19.6083 32.5188 19.6576 33.0259 19.6576C35.3361 19.6576 36.5968 18.6927 36.8081 16.7628H35.0543ZM36.8715 10.6986C36.8715 10.1351 36.6884 9.69139 36.3221 9.3674C35.9981 9.08567 35.6178 8.9448 35.1811 8.9448C34.4627 8.9448 33.8922 9.19836 33.4696 9.70548C33.047 10.2126 32.8357 10.9099 32.8357 11.7973C32.8357 12.6566 33.0681 13.3398 33.533 13.8469C33.9978 14.354 34.6317 14.6076 35.4347 14.6076H36.8715V10.6986Z" fill="#072A44"/><path id="Path_9" d="M20.8974 6.91634C21.3763 6.83182 21.9327 6.78956 22.5666 6.78956C24.1866 6.78956 25.4966 7.31077 26.4968 8.35317C27.3842 9.29697 27.8279 10.4661 27.8279 11.8607V14.4386C27.8279 15.1006 27.5885 15.657 27.1095 16.1078C26.6728 16.5445 26.1516 16.7628 25.5459 16.7628H18.7633V14.6076H24.7219C25.074 14.6076 25.2501 14.4315 25.2501 14.0793V12.1143C25.2501 11.1423 24.9543 10.3605 24.3627 9.76887C23.8133 9.21949 23.0174 8.92367 21.975 8.88141C21.496 8.88141 21.1368 8.90959 20.8974 8.96593V6.91634Z" fill="#072A44"/><path id="Shape_7" d="M16.4601 7.04312V14.4386C16.4601 14.9879 16.277 15.495 15.9107 15.9599C15.4459 16.4952 14.8683 16.7628 14.1781 16.7628H10.1V14.6076H13.354C13.509 14.6076 13.6428 14.5512 13.7555 14.4386C13.8541 14.3399 13.9034 14.2202 13.9034 14.0793V7.04312H16.4601ZM11.8327 18.3053C12.213 18.3053 12.537 18.4391 12.8047 18.7068C13.0723 18.9744 13.2061 19.2984 13.2061 19.6787C13.2061 20.0591 13.0723 20.3831 12.8047 20.6507C12.537 20.9184 12.213 21.0522 11.8327 21.0522C11.4664 21.0522 11.1495 20.9184 10.8818 20.6507C10.6142 20.3831 10.4804 20.0591 10.4804 19.6787C10.4804 19.2984 10.6142 18.9744 10.8818 18.7068C11.1495 18.4391 11.4664 18.3053 11.8327 18.3053ZM15.0655 18.3053C15.4459 18.3053 15.7663 18.4391 16.0269 18.7068C16.2875 18.9744 16.4178 19.2984 16.4178 19.6787C16.4178 20.0591 16.2875 20.3831 16.0269 20.6507C15.7663 20.9184 15.4459 21.0522 15.0655 21.0522C14.6852 21.0522 14.3612 20.9184 14.0936 20.6507C13.8259 20.3831 13.6921 20.0591 13.6921 19.6787C13.6921 19.2984 13.8259 18.9744 14.0936 18.7068C14.3612 18.4391 14.6852 18.3053 15.0655 18.3053Z" fill="#072A44"/><path id="Shape_8" d="M4.58517 2.39457C4.9655 2.39457 5.28949 2.52839 5.55714 2.79603C5.82478 3.06368 5.9586 3.38767 5.9586 3.768C5.9586 4.13425 5.82478 4.4512 5.55714 4.71884C5.28949 4.98649 4.9655 5.12031 4.58517 5.12031C4.20483 5.12031 3.88084 4.98649 3.6132 4.71884C3.34555 4.4512 3.21173 4.13425 3.21173 3.768C3.21173 3.38767 3.34555 3.06368 3.6132 2.79603C3.88084 2.52839 4.20483 2.39457 4.58517 2.39457ZM7.7969 2.39457C8.17723 2.39457 8.50122 2.52839 8.76887 2.79603C9.03651 3.06368 9.17033 3.38767 9.17033 3.768C9.17033 4.13425 9.03651 4.4512 8.76887 4.71884C8.50122 4.98649 8.17723 5.12031 7.7969 5.12031C7.43065 5.12031 7.1137 4.98649 6.84605 4.71884C6.57841 4.4512 6.44459 4.13425 6.44459 3.768C6.44459 3.38767 6.57841 3.06368 6.84605 2.79603C7.1137 2.52839 7.43065 2.39457 7.7969 2.39457ZM9.17033 6.47262V14.0793C9.17033 14.2484 9.21963 14.3752 9.31824 14.4597C9.40276 14.5583 9.51545 14.6076 9.65632 14.6076H10.248V16.7628H8.91677C8.26879 16.7628 7.6842 16.5022 7.163 15.981C6.36007 16.6431 5.46557 16.9741 4.47952 16.9741C3.36668 16.9741 2.4088 16.622 1.60586 15.9176C0.535288 14.9175 0 13.5793 0 11.903C0 10.3675 0.493029 9.09271 1.47909 8.07848C2.38062 7.16286 3.48642 6.70505 4.79646 6.70505C5.52896 6.70505 6.26146 6.86 6.99396 7.1699L7.90254 6.47262H9.17033ZM6.5925 9.19836C6.09947 9.01524 5.62757 8.92367 5.1768 8.92367C4.41613 8.92367 3.78928 9.20188 3.29625 9.7583C2.80322 10.3147 2.55671 11.0367 2.55671 11.9241C2.55671 12.8116 2.77857 13.5229 3.22229 14.0582C3.66602 14.5935 4.26118 14.8611 5.00776 14.8611C5.51488 14.8611 6.04312 14.7485 6.5925 14.5231V9.19836Z" fill="#072A44"/><path id="Path_10" d="M222.138 26.9897V39.7943C222.138 40.3859 221.947 40.8931 221.567 41.3157C221.13 41.8509 220.56 42.1186 219.856 42.1186H215.777V39.9633H219.031C219.186 39.9633 219.32 39.907 219.433 39.7943C219.532 39.6957 219.581 39.576 219.581 39.4351V26.9897H222.138Z" fill="#072A44"/><path id="Shape_9" d="M210.537 27.7503C210.918 27.7503 211.242 27.8841 211.509 28.1518C211.777 28.4194 211.911 28.7434 211.911 29.1238C211.911 29.49 211.777 29.807 211.509 30.0746C211.242 30.3422 210.918 30.4761 210.537 30.4761C210.157 30.4761 209.833 30.3422 209.565 30.0746C209.298 29.807 209.164 29.49 209.164 29.1238C209.164 28.7434 209.298 28.4194 209.565 28.1518C209.833 27.8841 210.157 27.7503 210.537 27.7503ZM213.749 27.7503C214.129 27.7503 214.453 27.8841 214.721 28.1518C214.989 28.4194 215.122 28.7434 215.122 29.1238C215.122 29.49 214.989 29.807 214.721 30.0746C214.453 30.3422 214.129 30.4761 213.749 30.4761C213.383 30.4761 213.066 30.3422 212.798 30.0746C212.531 29.807 212.397 29.49 212.397 29.1238C212.397 28.7434 212.531 28.4194 212.798 28.1518C213.066 27.8841 213.383 27.7503 213.749 27.7503ZM214.848 32.3989V39.6464V39.9633H215.925V42.1186H215.186L214.404 41.2523H214.362C213.883 41.8298 213.284 42.1186 212.566 42.1186H208.488V39.9633H211.678C211.876 39.9633 212.016 39.907 212.101 39.7943C212.228 39.6816 212.291 39.5408 212.291 39.3717V32.3989H214.848Z" fill="#072A44"/><path id="Shape_10" d="M201.874 27.7503C202.254 27.7503 202.578 27.8841 202.846 28.1518C203.114 28.4194 203.248 28.7434 203.248 29.1238C203.248 29.49 203.114 29.807 202.846 30.0746C202.578 30.3422 202.254 30.4761 201.874 30.4761C201.508 30.4761 201.191 30.3422 200.923 30.0746C200.656 29.807 200.522 29.49 200.522 29.1238C200.522 28.7434 200.656 28.4194 200.923 28.1518C201.191 27.8841 201.508 27.7503 201.874 27.7503ZM205.086 27.7503C205.466 27.7503 205.79 27.8841 206.058 28.1518C206.325 28.4194 206.459 28.7434 206.459 29.1238C206.459 29.49 206.325 29.807 206.058 30.0746C205.79 30.3422 205.466 30.4761 205.086 30.4761C204.705 30.4761 204.385 30.3458 204.124 30.0852C203.864 29.8246 203.734 29.5041 203.734 29.1238C203.734 28.7434 203.864 28.4194 204.124 28.1518C204.385 27.8841 204.705 27.7503 205.086 27.7503ZM199.719 39.9633C199.085 39.1182 198.768 38.0969 198.768 36.8995C198.768 35.8149 199.043 34.8781 199.592 34.0893C200.48 32.7933 201.761 32.1453 203.438 32.1453C204.705 32.1453 205.769 32.5397 206.628 33.3286C207.628 34.2442 208.129 35.4345 208.129 36.8995C208.129 38.0546 207.812 39.0759 207.178 39.9633H208.636V42.1186H205.466C204.551 42.1186 203.888 42.027 203.48 41.8439H203.374C202.98 42.027 202.318 42.1186 201.388 42.1186H195.514V39.9633H199.719ZM203.438 39.9422C204.072 39.8718 204.582 39.5795 204.97 39.0653C205.357 38.5512 205.551 37.8926 205.551 37.0897C205.551 36.2445 205.36 35.5683 204.98 35.0612C204.6 34.5541 204.086 34.3006 203.438 34.3006C202.804 34.3006 202.293 34.5541 201.906 35.0612C201.518 35.5683 201.325 36.2445 201.325 37.0897C201.325 37.8926 201.518 38.5512 201.906 39.0653C202.293 39.5795 202.804 39.8718 203.438 39.9422Z" fill="#072A44"/><path id="Shape_11" d="M193.295 27.7503C193.676 27.7503 194 27.8841 194.267 28.1518C194.535 28.4194 194.669 28.7434 194.669 29.1238C194.669 29.49 194.535 29.807 194.267 30.0746C194 30.3422 193.676 30.4761 193.295 30.4761C192.929 30.4761 192.612 30.3422 192.345 30.0746C192.077 29.807 191.943 29.49 191.943 29.1238C191.943 28.7434 192.077 28.4194 192.345 28.1518C192.612 27.8841 192.929 27.7503 193.295 27.7503ZM194.584 32.3989V39.6464V39.9633H195.662V42.1186H194.922L194.141 41.2523H194.098C193.619 41.8298 193.021 42.1186 192.302 42.1186H188.224V39.9633H191.415C191.612 39.9633 191.753 39.907 191.837 39.7943C191.964 39.6816 192.028 39.5408 192.028 39.3717V32.3989H194.584Z" fill="#072A44"/><path id="Shape_12" d="M187.295 32.3989V39.6464V39.9633H188.372V42.1186H187.633L186.851 41.2523H186.809C186.33 41.8298 185.731 42.1186 185.013 42.1186H180.934V39.9633H184.125C184.322 39.9633 184.463 39.907 184.548 39.7943C184.674 39.6816 184.738 39.5408 184.738 39.3717V32.3989H187.295ZM182.709 43.6611C183.09 43.6611 183.414 43.7949 183.681 44.0625C183.949 44.3302 184.083 44.6542 184.083 45.0345C184.083 45.4148 183.949 45.7388 183.681 46.0065C183.414 46.2741 183.09 46.4079 182.709 46.4079C182.329 46.4079 182.005 46.2741 181.737 46.0065C181.47 45.7388 181.336 45.4148 181.336 45.0345C181.336 44.6542 181.47 44.3302 181.737 44.0625C182.005 43.7949 182.329 43.6611 182.709 43.6611ZM185.921 43.6611C186.301 43.6611 186.625 43.7949 186.893 44.0625C187.161 44.3302 187.295 44.6542 187.295 45.0345C187.295 45.4148 187.161 45.7388 186.893 46.0065C186.625 46.2741 186.301 46.4079 185.921 46.4079C185.555 46.4079 185.238 46.2741 184.97 46.0065C184.703 45.7388 184.569 45.4148 184.569 45.0345C184.569 44.6542 184.703 44.3302 184.97 44.0625C185.238 43.7949 185.555 43.6611 185.921 43.6611Z" fill="#072A44"/><path id="Shape_13" d="M175.42 27.7503C175.8 27.7503 176.124 27.8841 176.392 28.1518C176.659 28.4194 176.793 28.7434 176.793 29.1238C176.793 29.49 176.659 29.807 176.392 30.0746C176.124 30.3422 175.8 30.4761 175.42 30.4761C175.039 30.4761 174.715 30.3422 174.448 30.0746C174.18 29.807 174.046 29.49 174.046 29.1238C174.046 28.7434 174.18 28.4194 174.448 28.1518C174.715 27.8841 175.039 27.7503 175.42 27.7503ZM178.631 27.7503C179.012 27.7503 179.336 27.8841 179.603 28.1518C179.871 28.4194 180.005 28.7434 180.005 29.1238C180.005 29.49 179.871 29.807 179.603 30.0746C179.336 30.3422 179.012 30.4761 178.631 30.4761C178.265 30.4761 177.948 30.3422 177.68 30.0746C177.413 29.807 177.279 29.49 177.279 29.1238C177.279 28.7434 177.413 28.4194 177.68 28.1518C177.948 27.8841 178.265 27.7503 178.631 27.7503ZM180.005 31.8284V39.4351C180.005 39.6041 180.054 39.7309 180.153 39.8154C180.237 39.914 180.35 39.9633 180.491 39.9633H181.082V42.1186H179.751C179.103 42.1186 178.519 41.858 177.997 41.3368C177.194 41.9989 176.3 42.3299 175.314 42.3299C174.201 42.3299 173.243 41.9777 172.44 41.2734C171.37 40.2733 170.834 38.935 170.834 37.2587C170.834 35.7233 171.327 34.4485 172.313 33.4342C173.215 32.5186 174.321 32.0608 175.631 32.0608C176.363 32.0608 177.096 32.2158 177.828 32.5257L178.737 31.8284H180.005ZM177.427 34.5541C176.934 34.371 176.462 34.2794 176.011 34.2794C175.251 34.2794 174.624 34.5576 174.131 35.1141C173.638 35.6705 173.391 36.3924 173.391 37.2799C173.391 38.1673 173.613 38.8787 174.057 39.414C174.5 39.9493 175.096 40.2169 175.842 40.2169C176.349 40.2169 176.878 40.1042 177.427 39.8788V34.5541Z" fill="#072A44"/><path id="Shape_14" d="M163.038 27.7503C163.418 27.7503 163.742 27.8841 164.009 28.1518C164.277 28.4194 164.411 28.7434 164.411 29.1238C164.411 29.49 164.277 29.807 164.009 30.0746C163.742 30.3422 163.418 30.4761 163.038 30.4761C162.671 30.4761 162.354 30.3422 162.087 30.0746C161.819 29.807 161.685 29.49 161.685 29.1238C161.685 28.7434 161.819 28.4194 162.087 28.1518C162.354 27.8841 162.671 27.7503 163.038 27.7503ZM164.326 32.3989V39.7943C164.326 40.3437 164.143 40.8508 163.777 41.3157C163.312 41.8509 162.735 42.1186 162.044 42.1186H157.966V39.9633H161.22C161.375 39.9633 161.509 39.907 161.622 39.7943C161.72 39.6957 161.77 39.576 161.77 39.4351V32.3989H164.326Z" fill="#072A44"/><path id="Shape_15" d="M144.76 26.9897V35.9487C146.676 33.399 149.014 32.1242 151.775 32.1242C153.466 32.1242 154.853 32.6595 155.938 33.7301C156.938 34.6879 157.438 35.8923 157.438 37.3433V39.3506C157.438 39.4069 157.431 39.5126 157.417 39.6675C157.417 39.8084 157.417 39.907 157.417 39.9633H158.114V42.1186H157.692L156.994 41.2523H156.931C156.466 41.8298 155.875 42.1186 155.156 42.1186H138.4V39.9633H142.204V26.9897H144.76ZM150.381 27.7503C150.761 27.7503 151.085 27.8841 151.353 28.1518C151.62 28.4194 151.754 28.7434 151.754 29.1238C151.754 29.49 151.62 29.807 151.353 30.0746C151.085 30.3422 150.761 30.4761 150.381 30.4761C150.015 30.4761 149.698 30.3422 149.43 30.0746C149.162 29.807 149.028 29.49 149.028 29.1238C149.028 28.7434 149.162 28.4194 149.43 28.1518C149.698 27.8841 150.015 27.7503 150.381 27.7503ZM154.86 37.47C154.846 36.3995 154.431 35.5824 153.614 35.019C152.994 34.5682 152.24 34.3428 151.353 34.3428C150.31 34.3428 149.303 34.6668 148.331 35.3148C146.908 36.2586 145.718 37.8081 144.76 39.9633H154.332C154.684 39.9633 154.86 39.7873 154.86 39.4351V37.47Z" fill="#072A44"/><path id="Shape_16" d="M129.589 39.9633C128.997 39.1463 128.702 38.1462 128.702 36.9629C128.716 35.4416 129.23 34.2301 130.244 33.3286C131.117 32.5538 132.209 32.1594 133.519 32.1453C134.787 32.1453 135.815 32.4693 136.604 33.1173C137.449 33.8216 137.872 34.8006 137.872 36.0543V39.4351C137.872 39.5901 137.921 39.7168 138.02 39.8154C138.104 39.914 138.21 39.9633 138.337 39.9633H138.548V42.1186H137.618C137.224 42.1186 136.893 42.0482 136.625 41.9073C136.358 41.7805 136.104 41.5903 135.865 41.3368C135.555 41.5903 135.21 41.7664 134.829 41.865C134.322 42.0341 133.702 42.1186 132.97 42.1186H130.181C129.829 42.1186 129.652 42.2947 129.652 42.6468V48.9646L128.342 50H127.075V42.2876C127.075 41.6819 127.279 41.1537 127.687 40.7029C128.152 40.2099 128.666 39.9633 129.23 39.9633H129.589ZM135.294 36.0543C135.294 35.5472 135.139 35.1317 134.829 34.8077C134.519 34.4696 134.104 34.3006 133.583 34.3006C132.878 34.3006 132.315 34.5576 131.892 35.0718C131.47 35.586 131.258 36.2656 131.258 37.1108C131.258 38.0264 131.484 38.7413 131.934 39.2555C132.385 39.7697 133.012 40.0267 133.815 40.0267C134.35 40.0267 134.843 39.9281 135.294 39.7309V36.0543Z" fill="#072A44"/><path id="Path_11" d="M120.545 26.9897V41.5903L119.235 42.6468H117.968V26.9897H120.545Z" fill="#072A44"/><path id="Path_12" d="M115.052 26.9897V39.7943C115.052 40.3859 114.862 40.8931 114.481 41.3157C114.045 41.8509 113.474 42.1186 112.77 42.1186H108.692V39.9633H111.946C112.101 39.9633 112.234 39.907 112.347 39.7943C112.446 39.6957 112.495 39.576 112.495 39.4351V26.9897H115.052Z" fill="#072A44"/><path id="Shape_17" d="M99.5002 39.9633C99.1621 39.1463 98.9931 38.2307 98.9931 37.2165C98.9931 35.5543 99.5073 34.2653 100.536 33.3497C101.395 32.575 102.494 32.1805 103.832 32.1665C105.029 32.1665 106.008 32.4482 106.769 33.0116C107.699 33.716 108.163 34.7302 108.163 36.0543V39.4351C108.163 39.5619 108.199 39.6816 108.269 39.7943C108.382 39.907 108.509 39.9633 108.649 39.9633H108.84V42.1186H107.91C107.276 42.1186 106.734 41.8932 106.283 41.4424C105.593 42.3158 104.677 42.7525 103.536 42.7525C102.31 42.7525 101.268 42.3017 100.409 41.4002H100.367L99.7749 42.1186H95.7391V39.9633H99.5002ZM105.586 36.0543C105.586 35.5331 105.424 35.1105 105.1 34.7865C104.804 34.4626 104.381 34.3006 103.832 34.3006C103.142 34.3006 102.589 34.5682 102.173 35.1035C101.758 35.6388 101.55 36.3572 101.55 37.2587C101.55 38.2448 101.761 39.0477 102.184 39.6675C102.606 40.2873 103.149 40.5972 103.811 40.5972C104.416 40.5972 105.008 40.3085 105.586 39.7309V36.0543Z" fill="#072A44"/><path id="Shape_18" d="M84.5192 36.1177C84.9981 34.7372 85.8715 33.6878 87.1393 32.9694C88.0831 32.4341 89.1044 32.1665 90.2031 32.1665C91.3019 32.1665 92.309 32.4623 93.2247 33.0539C94.3657 33.7441 95.1827 34.7654 95.6757 36.1177L95.4222 36.7094C94.8587 36.9629 94.2671 37.3996 93.6473 38.0194C93.0556 38.6674 92.6683 39.3154 92.4851 39.9633H95.887V42.1186H91.2385C90.844 42.1186 90.4848 41.9355 90.1609 41.5692H90.0552C89.7312 41.9355 89.3579 42.1186 88.9353 42.1186H81.5822V39.9633H87.7098C87.5408 39.3858 87.1816 38.773 86.6322 38.1251C86.0265 37.4489 85.3996 36.977 84.7516 36.7094L84.5192 36.1177ZM92.9711 35.9487C92.633 35.3571 92.1752 34.9204 91.5977 34.6386C91.161 34.4273 90.675 34.3217 90.1397 34.3217C89.5763 34.3217 89.041 34.4414 88.5339 34.6809C87.9704 34.9626 87.5337 35.3852 87.2238 35.9487C87.7028 36.16 88.2099 36.5826 88.7452 37.2165C89.3368 37.8785 89.7735 38.597 90.0552 39.3717H90.1397C90.4074 38.5829 90.8652 37.8292 91.5132 37.1108C92.0344 36.5333 92.5203 36.1459 92.9711 35.9487Z" fill="#072A44"/><path id="Path_13" d="M80.6524 26.9897V39.6464V39.9633H81.73V42.1186H81.0116L80.2087 41.2523H80.1664C79.6875 41.8298 79.0888 42.1186 78.3704 42.1186H74.2924V39.9633H77.5463C77.7154 39.9633 77.8562 39.907 77.9689 39.7943C78.0535 39.6534 78.0957 39.5337 78.0957 39.4351V26.9897H80.6524Z" fill="#072A44"/><path id="Shape_19" d="M69.3691 42.1186C67.8196 42.1186 66.6011 41.5903 65.7137 40.5339C64.9671 39.6323 64.5938 38.5195 64.5938 37.1953C64.5938 35.6177 65.0375 34.3851 65.925 33.4976C66.8547 32.5961 68.045 32.1453 69.4959 32.1453C70.5524 32.1453 71.468 32.4059 72.2428 32.9271C73.257 33.6596 73.7641 34.702 73.7641 36.0543V39.9633H74.4403V42.1186H73.743C73.6444 43.6399 73.1091 44.8302 72.1371 45.6895C71.461 46.2952 70.651 46.7108 69.7072 46.9362C69.0451 47.0911 68.3971 47.1686 67.7633 47.1686C67.552 47.1686 67.2491 47.1545 66.8547 47.1263H66.7913L65.7137 45.7952V44.8655C66.2912 44.9641 66.8335 45.0134 67.3407 45.0134C69.6509 45.0134 70.9116 44.0484 71.1229 42.1186H69.3691ZM71.1863 36.0543C71.1863 35.4909 71.0032 35.0471 70.6369 34.7232C70.3129 34.4414 69.9326 34.3006 69.4959 34.3006C68.7775 34.3006 68.207 34.5541 67.7844 35.0612C67.3618 35.5683 67.1505 36.2656 67.1505 37.1531C67.1505 38.0124 67.3829 38.6956 67.8478 39.2027C68.3126 39.7098 68.9465 39.9633 69.7495 39.9633H71.1863V36.0543Z" fill="#072A44"/><path id="Shape_20" d="M53.2682 36.0543C53.2682 34.7161 53.7331 33.7019 54.6628 33.0116C55.3953 32.4482 56.3954 32.1665 57.6632 32.1665C58.9028 32.1665 59.9523 32.5327 60.8116 33.2652C61.8962 34.1949 62.4386 35.512 62.4386 37.2165C62.4386 38.8223 62.0089 40.1535 61.1496 41.21C60.3185 42.2383 59.2409 42.7525 57.9168 42.7525C56.7476 42.7525 55.8249 42.3158 55.1488 41.4424C54.698 41.8932 54.1486 42.1186 53.5007 42.1186H49.4649V39.9633H52.7188C52.8738 39.9633 53.0076 39.907 53.1203 39.7943C53.2189 39.6957 53.2682 39.576 53.2682 39.4351V36.0543ZM55.8249 39.7309C56.3461 40.2944 56.9448 40.5761 57.621 40.5761C58.283 40.5761 58.8254 40.2838 59.248 39.6992C59.6706 39.1146 59.8819 38.3575 59.8819 37.4278C59.8819 36.4135 59.6494 35.6177 59.1846 35.0401C58.762 34.5471 58.2126 34.3006 57.5364 34.3006C57.0293 34.3006 56.6279 34.4626 56.332 34.7865C55.994 35.0964 55.8249 35.519 55.8249 36.0543V39.7309Z" fill="#072A44"/><path id="Path_14" d="M48.5563 26.9897V39.4351C48.5563 39.576 48.5985 39.6887 48.6831 39.7732C48.7676 39.9 48.9014 39.9633 49.0845 39.9633H49.6339V42.1186H48.2605C47.6829 42.1186 47.1758 41.9143 46.7391 41.5058C46.232 41.041 45.9784 40.4705 45.9784 39.7943V26.9897H48.5563Z" fill="#072A44"/><path id="Shape_21" d="M32.561 31.8284C32.9414 31.8284 33.2653 31.9622 33.533 32.2298C33.8006 32.4975 33.9345 32.8215 33.9345 33.2018C33.9345 33.5821 33.8006 33.9061 33.533 34.1738C33.2653 34.4414 32.9414 34.5752 32.561 34.5752C32.1948 34.5752 31.8778 34.4414 31.6102 34.1738C31.3425 33.9061 31.2087 33.5821 31.2087 33.2018C31.2087 32.8215 31.3425 32.4975 31.6102 32.2298C31.8778 31.9622 32.1948 31.8284 32.561 31.8284ZM35.7939 31.8284C36.1601 31.8284 36.4771 31.9622 36.7447 32.2298C37.0124 32.4975 37.1462 32.8215 37.1462 33.2018C37.1462 33.5821 37.0124 33.9061 36.7447 34.1738C36.4771 34.4414 36.1601 34.5752 35.7939 34.5752C35.4135 34.5752 35.0895 34.4414 34.8219 34.1738C34.5543 33.9061 34.4204 33.5821 34.4204 33.2018C34.4204 32.8215 34.5543 32.4975 34.8219 32.2298C35.0895 31.9622 35.4135 31.8284 35.7939 31.8284ZM43.0625 32.3989V39.7943C43.0625 40.3859 42.8794 40.886 42.5132 41.2945C42.0624 41.8439 41.4848 42.1186 40.7805 42.1186H28.9478C28.0322 42.1186 27.2434 41.8228 26.5813 41.2311C25.6938 40.4845 25.2501 39.5126 25.2501 38.3152V34.9767L26.5602 33.9202H27.8279V38.3152C27.8279 38.8083 27.997 39.2097 28.3351 39.5196C28.659 39.8154 29.0323 39.9633 29.4549 39.9633H39.9564C40.3086 39.9633 40.4847 39.7873 40.4847 39.4351V32.3989H43.0625Z" fill="#072A44"/></g></g></g></g></g><style> @keyframes translateX { 0%, 100% { transform: translateX(0px); } 50% { transform: translateX(-4px); } }</style></svg>