<?xml version="1.0" encoding="UTF-8"?>
<svg width="124px" height="124px" viewBox="0 0 124 124" version="1.1" xmlns="http://www.w3.org/2000/svg" xmlns:xlink="http://www.w3.org/1999/xlink">
    <title>Group 4</title>
    <g id="Page-1" stroke="none" stroke-width="1" fill="none" fill-rule="evenodd">
        <g id="Home" transform="translate(-1135.000000, -3124.000000)">
            <g id="Group-6-Copy" transform="translate(165.000000, 730.000000)">
                <g id="Group-15-Copy-18" transform="translate(0.000000, 2370.000000)">
                    <g id="Group-4" transform="translate(970.000000, 24.000000)">
                        <circle id="BG" fill="#F8F8F8" cx="62" cy="62" r="62"></circle>
                        <g id="Group-46" transform="translate(12.000000, 12.000000)">
                            <rect id="Rectangle-Copy-10" fill="#DEDEDE" x="2.47391705" y="5.52995392" width="95.1152074" height="19.3548387"></rect>
                            <rect id="Rectangle" fill="#ACD4F7" x="2.47391705" y="3.13364055" width="95.1152074" height="19.3548387"></rect>
                            <path d="M91.9354839,0 L8.06451613,0 C3.61824885,0 0,3.61824885 0,8.06451613 L0,91.9354839 C0,96.3817512 3.61824885,100 8.06451613,100 L91.9354839,100 C96.3817512,100 100,96.3817512 100,91.9354839 L100,8.06451613 C100,3.61824885 96.3817512,0 91.9354839,0 Z M8.06451613,3.22580645 L91.9354839,3.22580645 C94.6040553,3.22580645 96.7741935,5.3959447 96.7741935,8.06451613 L96.7741935,19.3548387 L3.22580645,19.3548387 L3.22580645,8.06451613 C3.22580645,5.3959447 5.3959447,3.22580645 8.06451613,3.22580645 Z M91.9354839,96.7741935 L8.06451613,96.7741935 C5.3959447,96.7741935 3.22580645,94.6040553 3.22580645,91.9354839 L3.22580645,22.5806452 L96.7741935,22.5806452 L96.7741935,91.9354839 C96.7741935,94.6040553 94.6040553,96.7741935 91.9354839,96.7741935 Z M88.7096774,16.1290323 C91.3782488,16.1290323 93.5483871,13.958894 93.5483871,11.2903226 C93.5483871,8.62175115 91.3782488,6.4516129 88.7096774,6.4516129 C86.041106,6.4516129 83.8709677,8.62175115 83.8709677,11.2903226 C83.8709677,13.958894 86.041106,16.1290323 88.7096774,16.1290323 Z M88.7096774,9.67741935 C89.5996498,9.67741935 90.3225806,10.4010691 90.3225806,11.2903226 C90.3225806,12.179576 89.5996498,12.9032258 88.7096774,12.9032258 C87.8197051,12.9032258 87.0967742,12.179576 87.0967742,11.2903226 C87.0967742,10.4010691 87.8197051,9.67741935 88.7096774,9.67741935 Z M75.8064516,16.1290323 C78.475023,16.1290323 80.6451613,13.958894 80.6451613,11.2903226 C80.6451613,8.62175115 78.475023,6.4516129 75.8064516,6.4516129 C73.1378802,6.4516129 70.9677419,8.62175115 70.9677419,11.2903226 C70.9677419,13.958894 73.1378802,16.1290323 75.8064516,16.1290323 Z M75.8064516,9.67741935 C76.696424,9.67741935 77.4193548,10.4010691 77.4193548,11.2903226 C77.4193548,12.179576 76.696424,12.9032258 75.8064516,12.9032258 C74.9164793,12.9032258 74.1935484,12.179576 74.1935484,11.2903226 C74.1935484,10.4010691 74.9164793,9.67741935 75.8064516,9.67741935 Z M62.9032258,16.1290323 C65.5717972,16.1290323 67.7419355,13.958894 67.7419355,11.2903226 C67.7419355,8.62175115 65.5717972,6.4516129 62.9032258,6.4516129 C60.2346544,6.4516129 58.0645161,8.62175115 58.0645161,11.2903226 C58.0645161,13.958894 60.2346544,16.1290323 62.9032258,16.1290323 Z M62.9032258,9.67741935 C63.7931982,9.67741935 64.516129,10.4010691 64.516129,11.2903226 C64.516129,12.179576 63.7931982,12.9032258 62.9032258,12.9032258 C62.0132535,12.9032258 61.2903226,12.179576 61.2903226,11.2903226 C61.2903226,10.4010691 62.0132535,9.67741935 62.9032258,9.67741935 Z M95.1612903,25.8064516 L95.1612903,30.6451613 C95.1612903,31.5358525 94.4397972,32.2580645 93.5483871,32.2580645 C92.656977,32.2580645 91.9354839,31.5358525 91.9354839,30.6451613 L91.9354839,25.8064516 C91.9354839,24.9157604 92.656977,24.1935484 93.5483871,24.1935484 C94.4397972,24.1935484 95.1612903,24.9157604 95.1612903,25.8064516 Z" id="Shape" fill="#171C34" fill-rule="nonzero"></path>
                            <path d="M37.6249717,47.2496667 C38.385181,47.2496667 38.9992832,46.6344111 38.9992832,45.8753415 L38.9992832,36.2499598 L52.7498494,36.2499598 L52.7498494,45.8753415 C52.7498494,46.6344111 53.3645214,47.2496667 54.1241608,47.2496667 C54.8843701,47.2496667 55.4996266,46.6344111 55.4996266,45.8753415 L55.5001972,34.8745087 C55.5001972,34.1154391 54.8849554,33.5001972 54.1247315,33.5001972 L54.1247315,29.3750128 C54.1247315,28.6159432 53.5100595,28.0007013 52.7504201,28.0007013 L38.9992695,28.0001306 C38.2390602,28.0001306 37.624958,28.6153725 37.624958,29.3744421 L37.624958,33.4996266 C36.8647488,33.4996266 36.2494923,34.1148684 36.2494923,34.873938 L36.2494923,45.8747708 C36.2494923,46.6344102 36.8647342,47.2496667 37.624958,47.2496667 L37.6249717,47.2496667 Z M40.3747051,30.7497918 L51.374369,30.7497918 L51.374369,33.4995252 L40.3747051,33.4995252 L40.3747051,30.7497918 Z M82.9999553,29.3743261 L82.9999553,73.375904 C82.9999553,74.1321245 82.3807101,74.7502155 81.6244896,74.7502155 C80.8682691,74.7502155 80.2501781,74.1315401 80.2501781,73.375904 L80.2501781,30.7506538 L60.9991225,30.7506538 L60.9991225,45.8756483 C60.9991225,46.6318689 60.3798773,47.2499598 59.624811,47.2499598 C58.8685905,47.2499598 58.2493453,46.6312844 58.2493453,45.8756483 L58.2493453,29.3743261 C58.2493453,29.0170507 58.4000108,28.6592055 58.6477206,28.3983753 C58.9085508,28.1506801 59.2669658,28 59.624811,28 L81.6241389,28 C81.9945493,28 82.3386897,28.136404 82.6000897,28.3983753 C82.8609199,28.6592055 82.9990348,29.002776 82.9990348,29.3743261 L82.9999553,29.3743261 Z M74.7500247,45.8741873 C74.7500247,45.117397 75.3687001,44.4987216 76.1243362,44.4987216 C76.8805567,44.4987216 77.4998019,45.117397 77.4998019,45.8741873 C77.4998019,46.6304078 76.8805567,47.2484991 76.1243362,47.2484991 C75.3686855,47.2490696 74.7500247,46.6303932 74.7500247,45.8741873 Z M74.7500247,34.8739389 C74.7500247,34.1171486 75.3687001,33.4996274 76.1243362,33.4996274 C76.8805567,33.4996274 77.4998019,34.1183028 77.4998019,34.8739389 C77.4998019,35.6301594 76.8805567,36.2494046 76.1243362,36.2494046 C75.3686855,36.2494046 74.7500247,35.6295896 74.7500247,34.8739389 Z M74.7500247,40.3745745 C74.7500247,39.6177841 75.3687001,38.9991087 76.1243362,38.9991087 C76.8805567,38.9991087 77.4998019,39.6177841 77.4998019,40.3745745 C77.4998019,41.130795 76.8805567,41.7488859 76.1243362,41.7488859 C75.3686855,41.7488859 74.7500247,41.1296407 74.7500247,40.3745745 Z M69.2493891,45.8741873 C69.2493891,45.117397 69.8686343,44.4987216 70.6248548,44.4987216 C71.3810753,44.4987216 71.9991663,45.117397 71.9991663,45.8741873 C71.9991663,46.6304078 71.3804909,47.2484991 70.6248548,47.2484991 C69.8692042,47.2490696 69.2493891,46.6303932 69.2493891,45.8741873 Z M69.2493891,40.3745745 C69.2493891,39.6177841 69.8686343,38.9991087 70.6248548,38.9991087 C71.3810753,38.9991087 71.9991663,39.6177841 71.9991663,40.3745745 C71.9991663,41.130795 71.3804909,41.7488859 70.6248548,41.7488859 C69.8692042,41.7488859 69.2493891,41.1296407 69.2493891,40.3745745 Z M69.2493891,34.8739389 C69.2493891,34.1171486 69.8686343,33.4996274 70.6248548,33.4996274 C71.3810753,33.4996274 71.9991663,34.1183028 71.9991663,34.8739389 C71.9991663,35.6301594 71.3804909,36.2494046 70.6248548,36.2494046 C69.8692042,36.2494046 69.2493891,35.6295896 69.2493891,34.8739389 Z M63.7497763,34.8739389 C63.7497763,34.1171486 64.3690215,33.4996274 65.125242,33.4996274 C65.8814625,33.4996274 66.4995535,34.1183028 66.4995535,34.8739389 C66.4995535,35.6301594 65.8808781,36.2494046 65.125242,36.2494046 C64.3690215,36.2494046 63.7497763,35.6295896 63.7497763,34.8739389 Z M63.7497763,40.3745745 C63.7497763,39.6177841 64.3690215,38.9991087 65.125242,38.9991087 C65.8814625,38.9991087 66.4995535,39.6177841 66.4995535,40.3745745 C66.4995535,41.130795 65.8808781,41.7488859 65.125242,41.7488859 C64.3690215,41.7488859 63.7497763,41.1296407 63.7497763,40.3745745 Z M63.7497763,45.8741873 C63.7497763,45.117397 64.3690215,44.4987216 65.125242,44.4987216 C65.8814625,44.4987216 66.4995535,45.117397 66.4995535,45.8741873 C66.4995535,46.6304078 65.8808781,47.2484991 65.125242,47.2484991 C64.3690215,47.2490696 63.7497763,46.6303932 63.7497763,45.8741873 Z M43.123854,38.9991234 C43.8840632,38.9991234 44.4993197,39.6143652 44.4993197,40.3745891 L44.4993197,45.8747863 C44.4993197,46.6338559 43.8840778,47.2490978 43.123854,47.2490978 C42.3636302,47.2490978 41.7483883,46.6338559 41.7483883,45.8747863 L41.7483883,40.3745891 C41.748959,39.6149497 42.3642,38.9991234 43.123854,38.9991234 Z M48.6240513,38.9991234 C49.3842605,38.9991234 49.999517,39.6143652 49.999517,40.3745891 L49.999517,45.8747863 C49.999517,46.6338559 49.3842751,47.2490978 48.6240513,47.2490978 C47.863842,47.2490978 47.2497398,46.6338559 47.2497398,45.8747863 L47.2497398,40.3745891 C47.2497398,39.6149497 47.863842,38.9991234 48.6240513,38.9991234 Z M74.5098248,86.2311266 C75.0896942,85.323101 75.4361138,84.2078372 75.4361138,82.9990941 C75.4361138,79.9667899 73.277091,77.4988969 70.6236422,77.4988969 C70.6185056,77.4988969 70.615652,77.4994677 70.6110862,77.4994677 C69.8520166,76.4921332 68.8246361,75.6994297 67.6347409,75.2296958 C68.2146103,74.3216701 68.5616143,73.2064064 68.5616143,71.9976633 C68.5616143,68.9653591 66.4014226,66.4974661 63.7491426,66.4974661 C61.0958399,66.4974661 58.936671,68.9653591 58.936671,71.9976633 C58.936671,73.205895 59.283675,74.3204721 59.8635444,75.2296958 C58.6724365,75.6994005 57.6462249,76.491578 56.8871991,77.4994677 C56.8820626,77.4994677 56.8780674,77.4988969 56.8740724,77.4988969 C56.8700773,77.4988969 56.8660821,77.4994677 56.8615163,77.4994677 C56.1024467,76.4921332 55.0750663,75.7005986 53.885171,75.2296958 C54.4650404,74.3216701 54.8120445,73.2064064 54.8120445,71.9976633 C54.8120445,68.9653591 52.6530216,66.4974661 49.9995728,66.4974661 C47.3461239,66.4974661 45.1871011,68.9653591 45.1871011,71.9976633 C45.1871011,73.205895 45.5341052,74.3204721 46.1139745,75.2296958 C44.9228666,75.6994005 43.896655,76.491578 43.1376293,77.4994677 C43.1336343,77.4994677 43.1296391,77.4988969 43.1250733,77.4988969 C43.1210781,77.4988969 43.1170831,77.4994677 43.1125173,77.4994677 C42.3534477,76.4921332 41.3272361,75.6994297 40.136172,75.2296958 C40.7160414,74.3216701 41.0630455,73.2064064 41.0630455,71.9976633 C41.0630455,68.9653591 38.9040226,66.4974661 36.2505738,66.4974661 C33.5971249,66.4974661 31.4381021,68.9653591 31.4381021,71.9976633 C31.4381021,73.205895 31.7851061,74.3204721 32.3649755,75.2296958 C31.1738676,75.6994005 30.147656,76.491578 29.3886302,77.4994677 C29.3846351,77.4994677 29.3806399,77.4988969 29.3760741,77.4988969 C26.7227714,77.4988969 24.5636024,79.9667899 24.5636024,82.9990941 C24.5636024,84.2073258 24.9106065,85.3224873 25.4904759,86.2311266 C22.9393019,87.2367517 21.1261143,89.7205996 21.1261143,92.6244758 C21.1261143,93.3835454 21.7413562,94 22.50158,94 C23.2618038,94 23.8758915,93.3846997 23.8758915,92.6244758 C23.8758915,90.3501746 25.7267747,88.4992914 28.0010759,88.4992914 L30.7508093,88.4992914 C31.9681726,88.4992914 33.0610528,89.0329179 33.8167181,89.8747571 C34.1734237,90.2714083 34.4530871,90.7371243 34.635151,91.2502228 C34.7881104,91.6805517 34.8754239,92.1428488 34.8754239,92.6245343 C34.8754239,93.3836039 35.490096,94 36.2497354,94 C37.0099446,94 37.6252011,93.3847581 37.6252011,92.6245343 C37.6252011,92.1416945 37.7125234,91.6805517 37.865474,91.2502228 C38.0469681,90.7371389 38.3272013,90.2714229 38.6839069,89.8747571 C39.4401274,89.0335023 40.5324524,88.4992914 41.7498158,88.4992914 L44.500718,88.4992914 C45.7180813,88.4992914 46.8105232,89.0329179 47.5666268,89.8747571 C47.9233324,90.2714083 48.2029958,90.7371243 48.3850597,91.2502228 C48.5380191,91.6805517 48.6253326,92.1428488 48.6253326,92.6245343 C48.6253326,93.3836039 49.2405745,94 50.0007983,94 C50.7610222,94 51.3751098,93.3847581 51.3751098,92.6245343 C51.3751098,92.1416945 51.4624321,91.6805517 51.6153827,91.2502228 C51.7980165,90.7371389 52.0776798,90.2714229 52.4338156,89.8747571 C53.1900361,89.0335023 54.2823611,88.4992914 55.4997244,88.4992914 L58.2494578,88.4992914 C59.4668212,88.4992914 60.5597014,89.0329179 61.3153667,89.8747571 C61.6720722,90.2714083 61.9517356,90.7371243 62.1343693,91.2502228 C62.2873287,91.6805517 62.3746423,92.1428488 62.3746423,92.6245343 C62.3746423,93.3836039 62.9893143,94 63.7489537,94 C64.509163,94 65.1244194,93.3847581 65.1244194,92.6245343 C65.1244194,92.1416945 65.2117417,91.6805517 65.3646924,91.2502228 C65.5473261,90.7371389 65.8269895,90.2714229 66.1831252,89.8747571 C66.9393457,89.0335023 68.0316707,88.4992914 69.2490341,88.4992914 L71.9987674,88.4992914 C74.2730687,88.4992914 76.1239519,90.3501746 76.1239519,92.6244758 C76.1239519,93.3835454 76.7391938,94 77.4994176,94 C78.2584872,94 78.8737291,93.3846997 78.8737291,92.6244758 C78.8737291,89.7211841 77.059957,87.236781 74.5087831,86.2311266 L74.5098248,86.2311266 Z M63.749338,88.5174086 C62.9891288,87.502082 61.9571898,86.7024677 60.7598431,86.2305422 C61.3397125,85.3225165 61.6867165,84.2072528 61.6867165,82.9985097 C61.6867165,81.1544935 60.8848376,79.5221863 59.6618199,78.5239835 C60.3877963,77.8881843 61.3351831,77.4989553 62.3738577,77.4989553 L65.123591,77.4989553 C66.1617542,77.4989553 67.1103537,77.8881989 67.8356288,78.5239835 C66.6125526,79.5221863 65.8095633,81.1544935 65.8095633,82.9985097 C65.8095633,84.2067414 66.1565674,85.3219029 66.7364367,86.2305422 C65.5407557,86.7036804 64.5100586,87.5021259 63.7492795,88.5174086 L63.749338,88.5174086 Z M49.9993563,88.5174086 C49.2385772,87.502082 48.207208,86.7024677 47.0098613,86.2305422 C47.5897307,85.3225165 47.9367348,84.2072528 47.9367348,82.9985097 C47.9367348,81.1544935 47.1348559,79.5221863 45.9118382,78.5239835 C46.6383843,77.8881843 47.5857858,77.4989553 48.6238759,77.4989553 L51.3736093,77.4989553 C52.4129121,77.4989553 53.360372,77.8881989 54.085647,78.5239835 C52.8625709,79.5221863 52.0607504,81.1544935 52.0607504,82.9985097 C52.0607504,84.2067414 52.4077545,85.3219029 52.9876239,86.2305422 C51.791373,86.7036804 50.7600769,87.5021259 49.9992978,88.5174086 L49.9993563,88.5174086 Z M36.2487901,88.5174086 C35.4885809,87.502082 34.4566419,86.7024677 33.2592952,86.2305422 C33.8391646,85.3225165 34.1861686,84.2072528 34.1861686,82.9985097 C34.1861686,81.1544935 33.3842897,79.5221863 32.161272,78.5239835 C32.8872484,77.8881843 33.8346352,77.4989553 34.8744786,77.4989553 L37.624212,77.4989553 C38.6623751,77.4989553 39.6109747,77.8881989 40.3362497,78.5239835 C39.1131736,79.5221863 38.3113531,81.1544935 38.3113531,82.9985097 C38.3113531,84.2067414 38.6583572,85.3219029 39.2376421,86.2305422 C38.0408214,86.7036804 37.0095107,87.5021259 36.2487316,88.5174086 L36.2487901,88.5174086 Z M27.9988595,85.0261824 C27.5805114,84.5187967 27.3117038,83.7934047 27.3117038,83.0001169 C27.3117038,82.1851175 27.5953558,81.4408632 28.0342466,80.9318265 C28.3978046,80.5106293 28.8680791,80.2503689 29.3743252,80.2503689 C29.4342524,80.2503689 29.4930371,80.2560763 29.5512461,80.2629251 C30.0283731,80.3199974 30.4644148,80.6042164 30.7965744,81.032266 C31.1886671,81.5362182 31.4363622,82.2376486 31.4363622,83.0001809 C31.4363622,83.7940678 31.1669702,84.5189629 30.7492065,85.0262464 C30.38109,85.4731292 29.8976804,85.7504987 29.374895,85.7504987 C28.8504002,85.749928 28.3669906,85.4719895 27.9988595,85.0262464 L27.9988595,85.0261824 Z M36.2487901,69.2495507 C37.3674143,69.2495507 38.3113823,70.5085838 38.3113823,71.9992841 C38.3113823,73.4899844 37.3673997,74.7490174 36.2487901,74.7490174 C35.1301804,74.7490174 34.1861979,73.4899844 34.1861979,71.9992841 C34.1867687,70.5097234 35.1301804,69.2495507 36.2487901,69.2495507 Z M41.7489873,85.0261824 C41.3300694,84.5187967 41.0618316,83.7934047 41.0618316,83.0001169 C41.0618316,82.2376138 41.3106664,81.536125 41.7016194,81.032202 C41.7278734,80.9979574 41.7558383,80.9642856 41.7843759,80.9317534 C42.1051246,80.5602034 42.5086282,80.3153573 42.9469491,80.2634309 C43.0057338,80.2560114 43.0639487,80.2508749 43.1244399,80.2508749 C43.184937,80.2508749 43.2431518,80.2565821 43.3019307,80.2634309 C43.7402516,80.3159388 44.1437552,80.5613576 44.4645039,80.9317534 C44.49304,80.9642856 44.5210064,80.9979574 44.5472603,81.032202 C44.9382134,81.5361542 45.1870482,82.2375846 45.1870482,83.0001169 C45.1870482,83.7940038 44.9188104,84.5188989 44.4998925,85.0261824 C44.1317759,85.4730652 43.6483664,85.7504347 43.1244267,85.7504347 C42.6010715,85.749864 42.1170922,85.4719255 41.748961,85.0261824 L41.7489873,85.0261824 Z M49.9995024,69.2495507 C51.1181266,69.2495507 52.0620946,70.5085838 52.0620946,71.9992841 C52.0620946,73.4899844 51.118112,74.7490174 49.9995024,74.7490174 C48.8808927,74.7490174 47.9369101,73.4899844 47.9369101,71.9992841 C47.9369101,70.5097234 48.8808927,69.2495507 49.9995024,69.2495507 Z M55.4996996,85.0261824 C55.0813515,84.5187967 54.8125439,83.7934047 54.8125439,83.0001169 C54.8125439,82.2376138 55.0613787,81.536125 55.4523317,81.032202 C55.4791555,80.9979574 55.5071218,80.9642856 55.5350882,80.9317534 C55.8558368,80.5602034 56.2593405,80.3153573 56.6976614,80.2634309 C56.7564461,80.2560114 56.8152322,80.2508749 56.8745824,80.2508749 C56.9345096,80.2508749 56.9932943,80.2565821 57.0520731,80.2634309 C57.4903941,80.3159388 57.8938977,80.5613576 58.2146463,80.9317534 C58.2431825,80.9642856 58.2700077,80.9979574 58.2974028,81.032202 C58.6894955,81.5361542 58.9371907,82.2375846 58.9371907,83.0001169 C58.9371907,83.7940038 58.6677986,84.5188989 58.2500349,85.0261824 C57.8819184,85.4730652 57.3985088,85.7504347 56.8745692,85.7504347 C56.351214,85.749864 55.8678045,85.4719255 55.4996733,85.0261824 L55.4996996,85.0261824 Z M63.7496302,69.2495507 C64.8682545,69.2495507 65.8122224,70.5085838 65.8122224,71.9992841 C65.8122224,73.4899844 64.8688097,74.7490174 63.7496302,74.7490174 C62.6310059,74.7490174 61.687038,73.4899844 61.687038,71.9992841 C61.6876087,70.5097234 62.6310206,69.2495507 63.7496302,69.2495507 Z M69.249243,85.0261824 C68.8303251,84.5187967 68.5620873,83.7934047 68.5620873,83.0001169 C68.5620873,82.2376138 68.8097824,81.536125 69.2018751,81.032202 C69.5346046,80.6041524 69.9700764,80.3193606 70.4472034,80.2628611 C70.5054182,80.2554416 70.5647742,80.2503049 70.6246941,80.2503049 C71.1309256,80.2503049 71.6006449,80.5105507 71.9642029,80.9317625 C72.4036635,81.4408576 72.6867458,82.1850828 72.6867458,83.0000529 C72.6867458,83.7939398 72.418508,84.5188349 71.99959,85.0261184 C71.6314735,85.4730012 71.1480639,85.7503707 70.6252786,85.7503707 C70.1013535,85.7498 69.6173742,85.4718615 69.249243,85.0261184 L69.249243,85.0261824 Z M33.4997873,49.998495 C34.2560078,49.998495 34.875253,50.6171705 34.875253,51.3739608 C34.875253,52.1301813 34.2560078,52.7482723 33.4997873,52.7482723 L26.6241389,52.748843 L26.6241389,60.999358 L73.3754502,60.999358 L73.3760209,52.748843 L44.5008986,52.748843 C43.7446781,52.748843 43.1254328,52.1301676 43.1254328,51.3745315 C43.1254328,50.6177412 43.7446781,49.9990658 44.5008986,49.9990658 L74.7508876,49.998495 C75.121298,49.998495 75.4654384,50.1360415 75.7268384,50.3980099 C75.9870841,50.6588401 76.1252137,51.0024106 76.1252137,51.3739607 L76.1257844,62.3736246 C76.1257844,62.7451747 75.987668,63.0887452 75.7274091,63.3495754 C75.4654393,63.6104056 75.1218687,63.7479507 74.7514583,63.7479507 L74.7514583,73.3733324 C74.7514583,74.132402 74.1362164,74.7476439 73.3759926,74.7476439 C72.6157687,74.7476439 72.0005269,74.132402 72.0005269,73.3733324 L72.0005269,63.7491196 L28.00041,63.7491196 L28.00041,73.3745013 C28.00041,74.1335709 27.3851681,74.7488127 26.6249443,74.7488127 C25.8658747,74.7488127 25.2506328,74.1335709 25.2506328,73.3745013 L25.2506328,63.7491196 C24.8933574,63.7491196 24.5349424,63.5978696 24.274682,63.3507443 C24.0258472,63.0887745 23.8751671,62.7314991 23.8751671,62.3747935 L23.8751671,51.3739607 C23.8751671,51.0166853 24.0258326,50.6588401 24.274682,50.3980099 C24.5349278,50.1503147 24.8933574,49.998495 25.2506328,49.998495 L33.4997873,49.998495 Z M38.9994001,49.9984951 C39.7556206,49.9984951 40.3748658,50.6171705 40.3748658,51.3739608 C40.3748658,52.1301813 39.7556206,52.7482723 38.9994001,52.7482723 C38.2431796,52.7482723 37.6250886,52.1295969 37.6250886,51.3739608 C37.6250886,50.6171705 38.243764,49.9984951 38.9994001,49.9984951 Z M22.4995389,48.6241836 C22.4995389,47.865114 21.884297,47.2487179 21.1240732,47.2487179 L19.7497617,47.2487179 L19.7497617,44.4989846 L30.7494257,44.4989846 L30.7494257,45.8744503 C30.7494257,46.6335199 31.3646675,47.2487617 32.1248914,47.2487617 C32.8851152,47.2487617 33.4992028,46.6335199 33.4992028,45.8744503 L33.4992028,43.1247169 L33.4997735,37.6234969 L33.4997735,32.1232997 C33.4997735,31.3642301 32.8851015,30.7489882 32.1254621,30.7489882 L18.3743115,30.7489882 C17.6141022,30.7489882 17,31.3642301 17,32.1232997 L17,73.3751443 C17,74.1342139 17.6146721,74.7494558 18.3743115,74.7494558 C19.1345207,74.7494558 19.7497772,74.1342139 19.7497772,73.3751443 L19.7497772,49.9994886 L21.1240887,49.9994886 C21.8842979,49.9994886 22.4995544,49.3842467 22.4995544,48.6251772 L22.4995389,48.6241836 Z M19.7498055,41.7485353 L19.7498055,38.9988019 L30.7494695,38.9988019 L30.7494695,41.7485353 L19.7498055,41.7485353 Z M19.7498055,33.4986047 L30.7494695,33.4986047 L30.7494695,36.248338 L19.7498055,36.2489087 L19.7498055,33.4986047 Z" id="Shape" fill="#171C34" fill-rule="nonzero"></path>
                        </g>
                    </g>
                </g>
            </g>
        </g>
    </g>
</svg>