<?xml version="1.0" encoding="UTF-8"?>
<svg width="124px" height="124px" viewBox="0 0 124 124" version="1.1" xmlns="http://www.w3.org/2000/svg" xmlns:xlink="http://www.w3.org/1999/xlink">
    <title>Group 4</title>
    <g id="Page-1" stroke="none" stroke-width="1" fill="none" fill-rule="evenodd">
        <g id="Home" transform="translate(-1135.000000, -2592.000000)">
            <g id="Group-6-Copy" transform="translate(165.000000, 730.000000)">
                <g id="Group-15-Copy-16" transform="translate(0.000000, 1838.000000)">
                    <g id="Group-4" transform="translate(970.000000, 24.000000)">
                        <circle id="BG" fill="#F8F8F8" cx="62" cy="62" r="62"></circle>
                        <g id="Group-46" transform="translate(12.000000, 12.000000)">
                            <rect id="Rectangle-Copy-10" fill="#DEDEDE" x="2.47391705" y="5.52995392" width="95.1152074" height="19.3548387"></rect>
                            <rect id="Rectangle" fill="#ACD4F7" x="2.47391705" y="3.13364055" width="95.1152074" height="19.3548387"></rect>
                            <path d="M91.9354839,0 L8.06451613,0 C3.61824885,0 0,3.61824885 0,8.06451613 L0,91.9354839 C0,96.3817512 3.61824885,100 8.06451613,100 L91.9354839,100 C96.3817512,100 100,96.3817512 100,91.9354839 L100,8.06451613 C100,3.61824885 96.3817512,0 91.9354839,0 Z M8.06451613,3.22580645 L91.9354839,3.22580645 C94.6040553,3.22580645 96.7741935,5.3959447 96.7741935,8.06451613 L96.7741935,19.3548387 L3.22580645,19.3548387 L3.22580645,8.06451613 C3.22580645,5.3959447 5.3959447,3.22580645 8.06451613,3.22580645 Z M91.9354839,96.7741935 L8.06451613,96.7741935 C5.3959447,96.7741935 3.22580645,94.6040553 3.22580645,91.9354839 L3.22580645,22.5806452 L96.7741935,22.5806452 L96.7741935,91.9354839 C96.7741935,94.6040553 94.6040553,96.7741935 91.9354839,96.7741935 Z M88.7096774,16.1290323 C91.3782488,16.1290323 93.5483871,13.958894 93.5483871,11.2903226 C93.5483871,8.62175115 91.3782488,6.4516129 88.7096774,6.4516129 C86.041106,6.4516129 83.8709677,8.62175115 83.8709677,11.2903226 C83.8709677,13.958894 86.041106,16.1290323 88.7096774,16.1290323 Z M88.7096774,9.67741935 C89.5996498,9.67741935 90.3225806,10.4010691 90.3225806,11.2903226 C90.3225806,12.179576 89.5996498,12.9032258 88.7096774,12.9032258 C87.8197051,12.9032258 87.0967742,12.179576 87.0967742,11.2903226 C87.0967742,10.4010691 87.8197051,9.67741935 88.7096774,9.67741935 Z M75.8064516,16.1290323 C78.475023,16.1290323 80.6451613,13.958894 80.6451613,11.2903226 C80.6451613,8.62175115 78.475023,6.4516129 75.8064516,6.4516129 C73.1378802,6.4516129 70.9677419,8.62175115 70.9677419,11.2903226 C70.9677419,13.958894 73.1378802,16.1290323 75.8064516,16.1290323 Z M75.8064516,9.67741935 C76.696424,9.67741935 77.4193548,10.4010691 77.4193548,11.2903226 C77.4193548,12.179576 76.696424,12.9032258 75.8064516,12.9032258 C74.9164793,12.9032258 74.1935484,12.179576 74.1935484,11.2903226 C74.1935484,10.4010691 74.9164793,9.67741935 75.8064516,9.67741935 Z M62.9032258,16.1290323 C65.5717972,16.1290323 67.7419355,13.958894 67.7419355,11.2903226 C67.7419355,8.62175115 65.5717972,6.4516129 62.9032258,6.4516129 C60.2346544,6.4516129 58.0645161,8.62175115 58.0645161,11.2903226 C58.0645161,13.958894 60.2346544,16.1290323 62.9032258,16.1290323 Z M62.9032258,9.67741935 C63.7931982,9.67741935 64.516129,10.4010691 64.516129,11.2903226 C64.516129,12.179576 63.7931982,12.9032258 62.9032258,12.9032258 C62.0132535,12.9032258 61.2903226,12.179576 61.2903226,11.2903226 C61.2903226,10.4010691 62.0132535,9.67741935 62.9032258,9.67741935 Z M95.1612903,25.8064516 L95.1612903,30.6451613 C95.1612903,31.5358525 94.4397972,32.2580645 93.5483871,32.2580645 C92.656977,32.2580645 91.9354839,31.5358525 91.9354839,30.6451613 L91.9354839,25.8064516 C91.9354839,24.9157604 92.656977,24.1935484 93.5483871,24.1935484 C94.4397972,24.1935484 95.1612903,24.9157604 95.1612903,25.8064516 Z" id="Shape" fill="#171C34" fill-rule="nonzero"></path>
                            <path d="M50,28 C58.7496143,28.0098056 67.1370499,31.4900401 73.3235049,37.6764951 C79.5099599,43.8628244 82.9901787,52.25114 83,61 C83,69.7521285 79.5232854,78.1459755 73.334819,84.334819 C67.1459755,90.5232854 58.7521285,94 50,94 C41.2478715,94 32.8540245,90.5232854 26.665181,84.334819 C20.4767146,78.1459755 17,69.7521285 17,61 C17,52.2478715 20.4767146,43.8540245 26.665181,37.665181 C32.8540245,31.4767146 41.2477457,28 50,28 Z M50,30.2004777 C41.8324362,30.2004777 33.9978857,33.4455035 28.221506,39.2213803 C22.4455035,44.9978857 19.2006034,52.8323105 19.2006034,60.9998743 C19.2006034,69.1674381 22.4456292,77.0019885 28.221506,82.7783682 C33.9980115,88.5543708 41.8315562,91.7995223 50,91.7995223 C58.1660552,91.7902195 65.9941944,88.5423024 71.7681855,82.7683112 C77.5421767,76.9943201 80.7900663,69.1658038 80.7993966,60.9998743 C80.7993966,52.8323105 77.5543708,44.99776 71.778494,39.2213803 C66.0019885,33.4453778 58.1675638,30.2004777 50,30.2004777 Z M58.8794757,34.9325356 C60.3466703,34.3496429 62.0074628,34.5313356 63.313745,35.4186924 C64.6200146,36.3059736 65.4012972,37.7830996 65.399824,39.3619273 L65.39983,46.9005105 C68.9365096,50.7424209 70.8997672,55.7734491 70.8997672,60.9954351 C70.8997672,66.2172954 68.9365096,71.2487008 65.39983,75.0903597 L65.3997142,82.2453637 C65.3689804,83.3430444 64.9176442,84.3912282 64.1339016,85.1690103 C63.2946427,86.0028385 62.1480409,86.4526529 60.9655607,86.4123858 C59.7829799,86.3721577 58.6697675,85.8452071 57.8884873,84.9563796 C57.1076974,84.067464 56.7285939,82.8958328 56.8410479,81.7177651 L56.914708,80.7061672 C53.6397626,81.8744041 50.1223171,82.1916405 46.6912363,81.6278938 L46.7000754,81.8577094 C46.7467275,83.0234447 46.3165507,84.1583426 45.5082548,85.0000278 C44.6999211,85.8416879 43.5837419,86.318025 42.4169758,86.319007 C41.249732,86.3200127 40.1330751,85.8456353 39.3233083,85.0049306 C38.5140318,84.1642888 38.0818977,83.0303966 38.1265848,81.8641208 L38.2365836,78.2454646 C34.9227929,75.9973417 32.327074,72.841195 30.7600633,69.1557971 C29.1935681,65.4698963 28.7226352,61.411257 29.4037474,57.4645021 C30.0848596,53.5182501 31.8890904,49.8519605 34.6002137,46.9046228 L34.6002137,34.5999749 L36.8001886,34.5999749 L36.8001886,47.799824 C36.8016971,49.5417012 37.6286362,51.1803431 39.0287002,52.2164935 C40.420882,53.2791442 41.1992269,54.9605536 41.1088708,56.7097222 L40.3221849,81.9352625 C40.3010777,82.5029943 40.5132181,83.0544588 40.9085222,83.462045 C41.3092193,83.8563685 41.848892,84.0778368 42.4111679,84.0778368 C42.9734186,84.0778368 43.5131039,83.8563685 43.9138136,83.462045 C44.3096205,83.0559548 44.5212668,82.5054708 44.5001509,81.9387824 L43.4915064,56.7195278 C43.3996103,54.9688506 44.1775214,53.2855305 45.5706712,52.2208935 C46.9731112,51.1847682 47.8005539,49.5435869 47.8000629,47.799824 L47.8000629,34.5999749 L50.0000377,34.5999749 L50.0000377,40.1210318 C51.8581993,40.1141553 53.7085668,40.3601753 55.4999749,40.852228 C55.6585868,40.0095747 55.803936,39.1659661 55.988583,38.3301768 C56.3288877,36.7883087 57.4116524,35.5159187 58.8794757,34.9325356 Z M62.0737001,37.253572 C61.3729767,36.7792071 60.4836589,36.6819682 59.696973,36.9923281 C58.9097591,37.303216 58.3273566,37.9823796 58.1397679,38.8073702 C57.1178608,43.4023005 56.6017498,48.0964183 56.5997855,52.8042388 L56.5997855,63.2054685 L59.20883,63.2054685 C59.5152551,63.2049782 59.8079272,63.3316842 60.0166356,63.5556039 C60.2253366,63.7795362 60.3314068,64.0805557 60.3088174,64.3860002 L59.027666,81.8751717 C58.9903418,82.4507354 59.1931544,83.0164432 59.5874779,83.4377824 C59.9817511,83.8586188 60.5327379,84.0982637 61.1097347,84.0992457 C61.6641536,84.0992457 62.1954915,83.8792482 62.5873636,83.4868859 C62.9797259,83.0950012 63.1997234,82.5636758 63.1997234,82.009257 L63.1997234,39.3626564 C63.1957879,38.516609 62.7739584,37.7274465 62.0737001,37.253572 Z M49.9998373,42.3178301 L49.9998373,47.799347 C49.9969459,49.4650423 49.4567201,51.0851038 48.4598549,52.4192942 C48.0110726,53.0173983 47.476793,53.5467751 46.8747416,53.990202 C46.0688971,54.6246748 45.6254689,55.6142109 45.6888169,56.6375889 L46.5963128,79.3526436 C50.1226839,80.0578047 53.7796707,79.6826775 57.0894386,78.2772079 L58.0296953,65.3989951 L55.4997242,65.3989951 C55.2080327,65.3989951 54.9281229,65.2831004 54.7218759,65.0768559 C54.5156289,64.8706114 54.3997368,64.5906991 54.3997368,64.2990076 L54.3997368,52.8031961 C54.4075938,49.5337821 54.6550847,46.269648 55.1412414,43.0364392 C53.4706434,42.5522562 51.7392003,42.3101584 49.9998373,42.3178301 Z M34.9299208,49.9634176 C32.0718643,53.8422875 30.8279985,58.6783351 31.4599947,63.4549205 C32.0920789,68.2315059 34.550268,72.5773991 38.3187621,75.5797991 L38.909537,56.6414098 C38.9738643,55.6165987 38.5299471,54.6250889 37.7226317,53.9906287 C36.3687044,52.9972457 35.3856299,51.5799591 34.9299208,49.9634176 Z M65.3996983,50.425538 L65.3996983,71.5742106 C67.5505697,68.4677204 68.7016248,64.7784254 68.6996632,61.0001257 C68.701672,57.2214489 67.5505194,53.5320282 65.3996983,50.425538 Z M26.6484729,44.4997863 L28.4403838,45.7736346 C25.7036151,49.6370419 24.0605607,54.1676072 23.6839124,58.8867419 L23.683,58.886 L21.4908401,58.712881 C21.8853114,53.7799492 23.5563679,49.0381386 26.3351673,44.951175 L26.6484729,44.4997863 Z M41.2001006,34.5999246 L41.2001006,46.6997863 L39.0001257,46.6997863 L39.0001257,34.5999246 L41.2001006,34.5999246 Z M45.6000503,34.5999246 L45.6000503,46.6997863 L43.4000754,46.6997863 L43.4000754,34.5999246 L45.6000503,34.5999246 Z M30.1726952,40.4069782 L31.6974663,41.9930972 C31.0801785,42.5858333 30.4894161,43.2139324 29.9364807,43.8596816 L28.2643741,42.4296979 C28.8625159,41.7269631 29.5048457,41.050276 30.1726952,40.4069782 Z" id="Combined-Shape" fill="#171C34" fill-rule="nonzero"></path>
                        </g>
                    </g>
                </g>
            </g>
        </g>
    </g>
</svg>