<?xml version="1.0" encoding="UTF-8"?>
<svg width="124px" height="124px" viewBox="0 0 124 124" version="1.1" xmlns="http://www.w3.org/2000/svg" xmlns:xlink="http://www.w3.org/1999/xlink">
    <title>Group 4</title>
    <g id="Page-1" stroke="none" stroke-width="1" fill="none" fill-rule="evenodd">
        <g id="Home" transform="translate(-1135.000000, -2040.000000)">
            <g id="Group-6-Copy" transform="translate(165.000000, 730.000000)">
                <g id="Group-15-Copy-14" transform="translate(0.000000, 1286.000000)">
                    <g id="Group-4" transform="translate(970.000000, 24.000000)">
                        <circle id="BG" fill="#F8F8F8" cx="62" cy="62" r="62"></circle>
                        <g id="Group-46" transform="translate(12.000000, 12.000000)">
                            <rect id="Rectangle-Copy-10" fill="#DEDEDE" x="2.47391705" y="5.52995392" width="95.1152074" height="19.3548387"></rect>
                            <rect id="Rectangle" fill="#ACD4F7" x="2.47391705" y="3.13364055" width="95.1152074" height="19.3548387"></rect>
                            <path d="M91.9354839,0 L8.06451613,0 C3.61824885,0 0,3.61824885 0,8.06451613 L0,91.9354839 C0,96.3817512 3.61824885,100 8.06451613,100 L91.9354839,100 C96.3817512,100 100,96.3817512 100,91.9354839 L100,8.06451613 C100,3.61824885 96.3817512,0 91.9354839,0 Z M8.06451613,3.22580645 L91.9354839,3.22580645 C94.6040553,3.22580645 96.7741935,5.3959447 96.7741935,8.06451613 L96.7741935,19.3548387 L3.22580645,19.3548387 L3.22580645,8.06451613 C3.22580645,5.3959447 5.3959447,3.22580645 8.06451613,3.22580645 Z M91.9354839,96.7741935 L8.06451613,96.7741935 C5.3959447,96.7741935 3.22580645,94.6040553 3.22580645,91.9354839 L3.22580645,22.5806452 L96.7741935,22.5806452 L96.7741935,91.9354839 C96.7741935,94.6040553 94.6040553,96.7741935 91.9354839,96.7741935 Z M88.7096774,16.1290323 C91.3782488,16.1290323 93.5483871,13.958894 93.5483871,11.2903226 C93.5483871,8.62175115 91.3782488,6.4516129 88.7096774,6.4516129 C86.041106,6.4516129 83.8709677,8.62175115 83.8709677,11.2903226 C83.8709677,13.958894 86.041106,16.1290323 88.7096774,16.1290323 Z M88.7096774,9.67741935 C89.5996498,9.67741935 90.3225806,10.4010691 90.3225806,11.2903226 C90.3225806,12.179576 89.5996498,12.9032258 88.7096774,12.9032258 C87.8197051,12.9032258 87.0967742,12.179576 87.0967742,11.2903226 C87.0967742,10.4010691 87.8197051,9.67741935 88.7096774,9.67741935 Z M75.8064516,16.1290323 C78.475023,16.1290323 80.6451613,13.958894 80.6451613,11.2903226 C80.6451613,8.62175115 78.475023,6.4516129 75.8064516,6.4516129 C73.1378802,6.4516129 70.9677419,8.62175115 70.9677419,11.2903226 C70.9677419,13.958894 73.1378802,16.1290323 75.8064516,16.1290323 Z M75.8064516,9.67741935 C76.696424,9.67741935 77.4193548,10.4010691 77.4193548,11.2903226 C77.4193548,12.179576 76.696424,12.9032258 75.8064516,12.9032258 C74.9164793,12.9032258 74.1935484,12.179576 74.1935484,11.2903226 C74.1935484,10.4010691 74.9164793,9.67741935 75.8064516,9.67741935 Z M62.9032258,16.1290323 C65.5717972,16.1290323 67.7419355,13.958894 67.7419355,11.2903226 C67.7419355,8.62175115 65.5717972,6.4516129 62.9032258,6.4516129 C60.2346544,6.4516129 58.0645161,8.62175115 58.0645161,11.2903226 C58.0645161,13.958894 60.2346544,16.1290323 62.9032258,16.1290323 Z M62.9032258,9.67741935 C63.7931982,9.67741935 64.516129,10.4010691 64.516129,11.2903226 C64.516129,12.179576 63.7931982,12.9032258 62.9032258,12.9032258 C62.0132535,12.9032258 61.2903226,12.179576 61.2903226,11.2903226 C61.2903226,10.4010691 62.0132535,9.67741935 62.9032258,9.67741935 Z M95.1612903,25.8064516 L95.1612903,30.6451613 C95.1612903,31.5358525 94.4397972,32.2580645 93.5483871,32.2580645 C92.656977,32.2580645 91.9354839,31.5358525 91.9354839,30.6451613 L91.9354839,25.8064516 C91.9354839,24.9157604 92.656977,24.1935484 93.5483871,24.1935484 C94.4397972,24.1935484 95.1612903,24.9157604 95.1612903,25.8064516 Z" id="Shape" fill="#171C34" fill-rule="nonzero"></path>
                            <path d="M78.2859949,28 L21.7145663,28 C19.1151148,28 17,30.1149745 17,32.7140051 L17,67.2854337 C17,69.8848852 19.1149745,72 21.7140051,72 L78.2854337,72 C80.884324,72 83,69.8850255 83,67.2854337 L83,32.7140051 C83,30.1151148 80.8850255,28 78.2859949,28 Z M79.8573166,67.2857143 C79.8573166,68.1500281 79.1502666,68.8570026 78.2859949,68.8570026 L21.7145663,68.8570026 C20.8469694,68.8570026 20.1427168,68.149986 20.1427168,67.2857143 L20.1427168,53.1428571 L26.4285714,53.1428571 C27.057213,53.1428571 27.6228151,52.7690676 27.8710587,52.193602 L31.6489413,43.4376582 L34.3175638,56.5968291 C34.4463606,57.2287538 34.9494885,57.7187309 35.5874464,57.8321824 C36.241301,57.9675554 36.8666454,57.6562526 37.2026505,57.10325 L40.750852,51.2701633 L43.7646276,63.2191939 C43.9405574,63.9168941 44.5659018,64.4074184 45.2827398,64.4074184 L45.2860283,64.4074184 C46.0056444,64.4074184 46.6309888,63.9234745 46.8069467,63.2257742 L51.4836303,44.9060038 L53.444689,53.4954043 C53.5860895,54.1240459 54.1012796,54.6019566 54.7364875,54.6989643 C55.3810257,54.7998093 56.0063701,54.4978214 56.3362579,53.9382385 L60.3245997,47.1026645 L62.7224314,52.2413763 C62.9767362,52.7877985 63.5363191,53.1429554 64.1430308,53.1429554 L79.8573166,53.1429554 L79.8573166,67.2857143 Z M79.8572832,50 L65.141977,50 L61.9017474,43.0450255 C61.6534758,42.517236 61.1350026,42.1681122 60.5441735,42.1428992 C59.9566416,42.0957648 59.4156913,42.4131008 59.1143138,42.9189605 L55.6225153,48.9126977 L53.0986888,37.8592411 C52.9386556,37.1489413 52.31275,36.6463648 51.5898367,36.6365013 C50.8762538,36.7844821 50.2289796,37.117162 50.0496964,37.8181454 L45.2945816,56.4367679 L42.8775281,46.8603138 C42.723514,46.2475689 42.2143571,45.7855408 41.5890128,45.687986 C40.9790038,45.6156399 40.3443431,45.8858457 40.0143571,46.4295319 L36.5981837,52.0363048 L33.7317296,37.8962538 C33.5930679,37.2270638 33.0367793,36.7179069 32.3516926,36.6488482 C31.6539923,36.5825311 31.0193316,36.9568622 30.7491161,37.5882398 L25.3933508,49.9998597 L20.1416926,49.9998597 L20.1416926,32.7141454 C20.1416926,31.8498316 20.8459592,31.1428571 21.7129809,31.1428571 L78.2844094,31.1428571 C79.1492704,31.1428571 79.8562589,31.8498737 79.8562589,32.7141454 L79.8572832,50 Z M81.4285714,94 L18.5714286,94 C17.7038316,94 17.0001403,93.2929834 17.0001403,92.4287117 L17.0001403,76.714426 C17.0001403,75.8501122 17.7038597,75.1431378 18.5714286,75.1431378 L81.4285714,75.1431378 C82.2928852,75.1431378 82.9998597,75.8501543 82.9998597,76.714426 L82.9998597,92.4287117 C82.9998597,93.2930255 82.2928431,94 81.4285714,94 Z M20.1428571,90.8574235 L79.8571429,90.8574235 L79.8571429,78.2857143 L20.1428571,78.2857143 L20.1428571,90.8574235 Z M29.6689413,89.3770536 C26.9631378,89.3770536 24.7599107,87.1804209 24.7599107,84.468023 C24.7599107,81.755625 26.9631378,79.555625 29.6689413,79.555625 C32.3747449,79.555625 34.5813393,81.758852 34.5813393,84.468023 C34.5813393,87.1771939 32.3747449,89.3770536 29.6689413,89.3770536 Z M29.6689413,82.7047959 C28.6944732,82.7047959 27.9024872,83.4967538 27.9024872,84.4739158 C27.9024872,85.4511199 28.6944452,86.2430357 29.6689413,86.2430357 C30.6434375,86.2430357 31.4380612,85.4510778 31.4380612,84.4739158 C31.4353209,83.4967117 30.6433533,82.7047959 29.6689413,82.7047959 Z M42.2406505,89.3770536 C39.5348469,89.3770536 37.3316199,87.1804209 37.3316199,84.468023 C37.3316199,81.755625 39.5348469,79.555625 42.2406505,79.555625 C44.9464541,79.555625 47.1530485,81.758852 47.1530485,84.468023 C47.1530485,87.1771939 44.9464541,89.3770536 42.2406505,89.3770536 Z M42.2406505,82.7047959 C41.2661824,82.7047959 40.4741964,83.4967538 40.4741964,84.4739158 C40.4741964,85.4511199 41.2661543,86.2430357 42.2406505,86.2430357 C43.2151186,86.2430357 44.0097704,85.4510778 44.0097704,84.4739158 C44.0064819,83.4967117 43.2145153,82.7047959 42.2406505,82.7047959 Z M70.4295536,84.5715689 L54.7152679,84.5715689 C53.8509541,84.5715689 53.1439793,83.8645523 53.1439793,83.0002806 C53.1434316,82.1359668 53.8509962,81.4289923 54.7152679,81.4289923 L70.4295536,81.4289923 C71.2938673,81.4289923 72.0008418,82.1360089 72.0008418,83.0002806 C72.0008418,83.8645944 71.2938253,84.5715689 70.4295536,84.5715689 Z" id="Shape" fill="#171C34" fill-rule="nonzero"></path>
                        </g>
                    </g>
                </g>
            </g>
        </g>
    </g>
</svg>