<?xml version="1.0" encoding="UTF-8"?>
<svg width="124px" height="124px" viewBox="0 0 124 124" version="1.1" xmlns="http://www.w3.org/2000/svg" xmlns:xlink="http://www.w3.org/1999/xlink">
    <title>Group 4</title>
    <g id="Page-1" stroke="none" stroke-width="1" fill="none" fill-rule="evenodd">
        <g id="Home" transform="translate(-1135.000000, -1834.000000)">
            <g id="Group-6-Copy" transform="translate(165.000000, 730.000000)">
                <g id="Group-15-Copy-13" transform="translate(0.000000, 1080.000000)">
                    <g id="Group-4" transform="translate(970.000000, 24.000000)">
                        <circle id="BG" fill="#F8F8F8" cx="62" cy="62" r="62"></circle>
                        <g id="Group-46" transform="translate(12.000000, 12.000000)">
                            <rect id="Rectangle-Copy-10" fill="#DEDEDE" x="2.47391705" y="5.52995392" width="95.1152074" height="19.3548387"></rect>
                            <rect id="Rectangle" fill="#ACD4F7" x="2.47391705" y="3.13364055" width="95.1152074" height="19.3548387"></rect>
                            <path d="M91.9354839,0 L8.06451613,0 C3.61824885,0 0,3.61824885 0,8.06451613 L0,91.9354839 C0,96.3817512 3.61824885,100 8.06451613,100 L91.9354839,100 C96.3817512,100 100,96.3817512 100,91.9354839 L100,8.06451613 C100,3.61824885 96.3817512,0 91.9354839,0 Z M8.06451613,3.22580645 L91.9354839,3.22580645 C94.6040553,3.22580645 96.7741935,5.3959447 96.7741935,8.06451613 L96.7741935,19.3548387 L3.22580645,19.3548387 L3.22580645,8.06451613 C3.22580645,5.3959447 5.3959447,3.22580645 8.06451613,3.22580645 Z M91.9354839,96.7741935 L8.06451613,96.7741935 C5.3959447,96.7741935 3.22580645,94.6040553 3.22580645,91.9354839 L3.22580645,22.5806452 L96.7741935,22.5806452 L96.7741935,91.9354839 C96.7741935,94.6040553 94.6040553,96.7741935 91.9354839,96.7741935 Z M88.7096774,16.1290323 C91.3782488,16.1290323 93.5483871,13.958894 93.5483871,11.2903226 C93.5483871,8.62175115 91.3782488,6.4516129 88.7096774,6.4516129 C86.041106,6.4516129 83.8709677,8.62175115 83.8709677,11.2903226 C83.8709677,13.958894 86.041106,16.1290323 88.7096774,16.1290323 Z M88.7096774,9.67741935 C89.5996498,9.67741935 90.3225806,10.4010691 90.3225806,11.2903226 C90.3225806,12.179576 89.5996498,12.9032258 88.7096774,12.9032258 C87.8197051,12.9032258 87.0967742,12.179576 87.0967742,11.2903226 C87.0967742,10.4010691 87.8197051,9.67741935 88.7096774,9.67741935 Z M75.8064516,16.1290323 C78.475023,16.1290323 80.6451613,13.958894 80.6451613,11.2903226 C80.6451613,8.62175115 78.475023,6.4516129 75.8064516,6.4516129 C73.1378802,6.4516129 70.9677419,8.62175115 70.9677419,11.2903226 C70.9677419,13.958894 73.1378802,16.1290323 75.8064516,16.1290323 Z M75.8064516,9.67741935 C76.696424,9.67741935 77.4193548,10.4010691 77.4193548,11.2903226 C77.4193548,12.179576 76.696424,12.9032258 75.8064516,12.9032258 C74.9164793,12.9032258 74.1935484,12.179576 74.1935484,11.2903226 C74.1935484,10.4010691 74.9164793,9.67741935 75.8064516,9.67741935 Z M62.9032258,16.1290323 C65.5717972,16.1290323 67.7419355,13.958894 67.7419355,11.2903226 C67.7419355,8.62175115 65.5717972,6.4516129 62.9032258,6.4516129 C60.2346544,6.4516129 58.0645161,8.62175115 58.0645161,11.2903226 C58.0645161,13.958894 60.2346544,16.1290323 62.9032258,16.1290323 Z M62.9032258,9.67741935 C63.7931982,9.67741935 64.516129,10.4010691 64.516129,11.2903226 C64.516129,12.179576 63.7931982,12.9032258 62.9032258,12.9032258 C62.0132535,12.9032258 61.2903226,12.179576 61.2903226,11.2903226 C61.2903226,10.4010691 62.0132535,9.67741935 62.9032258,9.67741935 Z M95.1612903,25.8064516 L95.1612903,30.6451613 C95.1612903,31.5358525 94.4397972,32.2580645 93.5483871,32.2580645 C92.656977,32.2580645 91.9354839,31.5358525 91.9354839,30.6451613 L91.9354839,25.8064516 C91.9354839,24.9157604 92.656977,24.1935484 93.5483871,24.1935484 C94.4397972,24.1935484 95.1612903,24.9157604 95.1612903,25.8064516 Z" id="Shape" fill="#171C34" fill-rule="nonzero"></path>
                            <path d="M81.9357778,57.8065183 L75.5486928,57.8065183 L75.5486928,53.5484617 C75.5486928,47.6784264 70.7735864,42.90332 64.9035511,42.90332 C59.0335159,42.90332 54.2584095,47.6784264 54.2584095,53.5484617 L54.2584095,57.8065183 L40.3272647,57.8065183 L40.0369017,54.6129758 L45.7420893,54.6129758 C46.3299445,54.6129758 46.8066035,54.1363168 46.8066035,53.5484617 L46.8066035,39.7097775 C46.8066035,39.1219224 46.3299445,38.6452633 45.7420893,38.6452633 L26.5808343,38.6452633 C25.9929792,38.6452633 25.5163202,39.1219224 25.5163202,39.7097775 L25.5163202,53.5484617 C25.5163202,54.1363168 25.9929792,54.6129758 26.5808343,54.6129758 L32.286022,54.6129758 L31.995659,57.8065183 L18.0645142,57.8065183 C17.476659,57.8065183 17,58.2831774 17,58.8710325 L17,63.1290892 C17,63.7169443 17.476659,64.1936033 18.0645142,64.1936033 L20.1935425,64.1936033 L20.1935425,90.8064575 C20.1935425,91.3943126 20.6702015,91.8709717 21.2580567,91.8709717 L23.387085,91.8709717 L23.387085,92.9354858 C23.387085,93.523341 23.863744,94 24.4515992,94 C25.0394543,94 25.5161133,93.523341 25.5161133,92.9354858 L25.5161133,91.8709717 L74.483765,91.8709717 L74.483765,92.9354858 C74.483765,93.523341 74.960424,94 75.5482792,94 C76.1361343,94 76.6127933,93.523341 76.6127933,92.9354858 L76.6127933,91.8709717 L78.7418217,91.8709717 C79.3296768,91.8709717 79.8063358,91.3943126 79.8063358,90.8064575 L79.8063358,64.1936033 L81.9353642,64.1936033 C82.5232193,64.1936033 82.9998783,63.7169443 82.9998783,63.1290892 L82.9998783,58.8710325 C82.9998783,58.2831774 82.5232193,57.8065183 81.9353642,57.8065183 L81.9357778,57.8065183 Z M56.3874378,53.5484617 C56.3874378,48.8526768 60.2077663,45.0323483 64.9035511,45.0323483 C69.599336,45.0323483 73.4196645,48.8526768 73.4196645,53.5484617 L73.4196645,57.8065183 L56.3874378,57.8065183 L56.3874378,53.5484617 Z M27.6455553,52.4839475 L27.6455553,40.7742917 L44.677782,40.7742917 L44.677782,52.4839475 L39.8437927,52.4839475 L39.5439282,49.1849268 C39.3890079,47.4821908 37.8716069,46.0968625 36.161693,46.0968625 C34.4517791,46.0968625 32.934451,47.4821908 32.7794577,49.1854135 L32.4795932,52.4839475 L27.6455553,52.4839475 Z M34.8999456,49.3778776 C34.9555473,48.7643525 35.5453089,48.2259152 36.1616686,48.2259152 C36.7780284,48.2259152 37.3678058,48.7643525 37.4233917,49.3778776 L38.1894647,57.8065183 L34.1343349,57.8065183 L34.8999456,49.3778776 Z M77.6775995,89.7418217 L22.3228628,89.7418217 L22.3228628,64.1934817 L77.6775995,64.1934817 L77.6775995,89.7418217 Z M80.871142,62.0644533 L19.1293203,62.0644533 L19.1293203,59.935425 L80.871142,59.935425 L80.871142,62.0644533 Z M27.6454336,73.7741092 C27.6454336,73.186254 28.1220927,72.709595 28.7099478,72.709595 L71.2905145,72.709595 C71.8783696,72.709595 72.3550287,73.186254 72.3550287,73.7741092 C72.3550287,74.3619643 71.8783696,74.8386233 71.2905145,74.8386233 L28.7099478,74.8386233 C28.1220927,74.8386233 27.6454336,74.3619643 27.6454336,73.7741092 Z M72.3550287,35.4515992 C72.3550287,31.3428178 69.0122109,28 64.9034295,28 C60.7946481,28 57.4518303,31.3428178 57.4518303,35.4515992 C57.4518303,39.5603805 60.7946481,42.9031983 64.9034295,42.9031983 C69.0122109,42.9031983 72.3550287,39.5603805 72.3550287,35.4515992 Z M64.9034295,40.77417 C61.9688985,40.77417 59.5808587,38.3861302 59.5808587,35.4515992 C59.5808587,32.5170682 61.9688985,30.1290283 64.9034295,30.1290283 C67.8379605,30.1290283 70.2260003,32.5170682 70.2260003,35.4515992 C70.2260003,38.3861302 67.8379605,40.77417 64.9034295,40.77417 Z M69.1614862,49.2902833 C69.1614862,49.8781385 68.6848271,50.3547975 68.096972,50.3547975 L65.9679437,50.3547975 C65.3800885,50.3547975 64.9034295,49.8781385 64.9034295,49.2902833 C64.9034295,48.7024282 65.3800885,48.2257692 65.9679437,48.2257692 L68.096972,48.2257692 C68.6848271,48.2257692 69.1614862,48.7024282 69.1614862,49.2902833 Z" id="Shape" fill="#000000" fill-rule="nonzero"></path>
                        </g>
                    </g>
                </g>
            </g>
        </g>
    </g>
</svg>