<?xml version="1.0" encoding="UTF-8"?>
<svg width="124px" height="124px" viewBox="0 0 124 124" version="1.1" xmlns="http://www.w3.org/2000/svg" xmlns:xlink="http://www.w3.org/1999/xlink">
    <title>Group 4</title>
    <g id="Page-1" stroke="none" stroke-width="1" fill="none" fill-rule="evenodd">
        <g id="Home" transform="translate(-1135.000000, -2326.000000)">
            <g id="Group-6-Copy" transform="translate(165.000000, 730.000000)">
                <g id="Group-15-Copy-15" transform="translate(0.000000, 1572.000000)">
                    <g id="Group-4" transform="translate(970.000000, 24.000000)">
                        <circle id="BG" fill="#F8F8F8" cx="62" cy="62" r="62"></circle>
                        <g id="Group-46" transform="translate(12.000000, 12.000000)">
                            <rect id="Rectangle-Copy-10" fill="#DEDEDE" x="2.47391705" y="5.52995392" width="95.1152074" height="19.3548387"></rect>
                            <rect id="Rectangle" fill="#ACD4F7" x="2.47391705" y="3.13364055" width="95.1152074" height="19.3548387"></rect>
                            <path d="M91.9354839,0 L8.06451613,0 C3.61824885,0 0,3.61824885 0,8.06451613 L0,91.9354839 C0,96.3817512 3.61824885,100 8.06451613,100 L91.9354839,100 C96.3817512,100 100,96.3817512 100,91.9354839 L100,8.06451613 C100,3.61824885 96.3817512,0 91.9354839,0 Z M8.06451613,3.22580645 L91.9354839,3.22580645 C94.6040553,3.22580645 96.7741935,5.3959447 96.7741935,8.06451613 L96.7741935,19.3548387 L3.22580645,19.3548387 L3.22580645,8.06451613 C3.22580645,5.3959447 5.3959447,3.22580645 8.06451613,3.22580645 Z M91.9354839,96.7741935 L8.06451613,96.7741935 C5.3959447,96.7741935 3.22580645,94.6040553 3.22580645,91.9354839 L3.22580645,22.5806452 L96.7741935,22.5806452 L96.7741935,91.9354839 C96.7741935,94.6040553 94.6040553,96.7741935 91.9354839,96.7741935 Z M88.7096774,16.1290323 C91.3782488,16.1290323 93.5483871,13.958894 93.5483871,11.2903226 C93.5483871,8.62175115 91.3782488,6.4516129 88.7096774,6.4516129 C86.041106,6.4516129 83.8709677,8.62175115 83.8709677,11.2903226 C83.8709677,13.958894 86.041106,16.1290323 88.7096774,16.1290323 Z M88.7096774,9.67741935 C89.5996498,9.67741935 90.3225806,10.4010691 90.3225806,11.2903226 C90.3225806,12.179576 89.5996498,12.9032258 88.7096774,12.9032258 C87.8197051,12.9032258 87.0967742,12.179576 87.0967742,11.2903226 C87.0967742,10.4010691 87.8197051,9.67741935 88.7096774,9.67741935 Z M75.8064516,16.1290323 C78.475023,16.1290323 80.6451613,13.958894 80.6451613,11.2903226 C80.6451613,8.62175115 78.475023,6.4516129 75.8064516,6.4516129 C73.1378802,6.4516129 70.9677419,8.62175115 70.9677419,11.2903226 C70.9677419,13.958894 73.1378802,16.1290323 75.8064516,16.1290323 Z M75.8064516,9.67741935 C76.696424,9.67741935 77.4193548,10.4010691 77.4193548,11.2903226 C77.4193548,12.179576 76.696424,12.9032258 75.8064516,12.9032258 C74.9164793,12.9032258 74.1935484,12.179576 74.1935484,11.2903226 C74.1935484,10.4010691 74.9164793,9.67741935 75.8064516,9.67741935 Z M62.9032258,16.1290323 C65.5717972,16.1290323 67.7419355,13.958894 67.7419355,11.2903226 C67.7419355,8.62175115 65.5717972,6.4516129 62.9032258,6.4516129 C60.2346544,6.4516129 58.0645161,8.62175115 58.0645161,11.2903226 C58.0645161,13.958894 60.2346544,16.1290323 62.9032258,16.1290323 Z M62.9032258,9.67741935 C63.7931982,9.67741935 64.516129,10.4010691 64.516129,11.2903226 C64.516129,12.179576 63.7931982,12.9032258 62.9032258,12.9032258 C62.0132535,12.9032258 61.2903226,12.179576 61.2903226,11.2903226 C61.2903226,10.4010691 62.0132535,9.67741935 62.9032258,9.67741935 Z M95.1612903,25.8064516 L95.1612903,30.6451613 C95.1612903,31.5358525 94.4397972,32.2580645 93.5483871,32.2580645 C92.656977,32.2580645 91.9354839,31.5358525 91.9354839,30.6451613 L91.9354839,25.8064516 C91.9354839,24.9157604 92.656977,24.1935484 93.5483871,24.1935484 C94.4397972,24.1935484 95.1612903,24.9157604 95.1612903,25.8064516 Z M65.2521076,32.1597007 L65.2837767,32 C71.8003633,32.7957935 78.3248255,33.57755 84.8441918,34.3661512 C86.2589023,37.4801359 87.4007469,40.1809997 88.650765,43.3645907 C84.6813524,48.5984986 80.7001263,53.8230254 76.7261968,59.0532272 L76.5922886,58.9663641 C76.1014194,59.1771866 75.6082917,59.3866541 75.116079,59.5943149 L75.116079,68.65518 C76.7786389,69.2424094 78.3060399,70.2481337 79.4936324,71.5515437 L89.8484105,71.5515437 L90.0723552,79.8573946 L82.3044765,79.8573946 C81.8023034,85.4256676 77.1116837,89.709988 71.5135298,89.709988 C65.9153758,89.709988 61.225231,85.4256676 60.7225831,79.8573946 L38.4068701,79.8573946 C37.9046971,85.4256676 33.2140774,89.709988 27.6159234,89.709988 C22.0177695,89.709988 17.3276246,85.4256676 16.8249767,79.8573946 L9,79.8573946 L9,60.478813 L28.2083298,41.2704832 L42.1736022,41.2704832 L42.1736022,71.5521227 L54.3518107,71.5521227 L54.3518107,65.0283555 C53.6460421,64.671406 52.9705714,64.2569878 52.3281318,63.7937411 C46.9974004,59.9554338 43.9340279,52.7123241 44.8877849,46.2138051 C45.2551464,43.7146954 46.1164926,41.6797822 47.5845951,39.6347928 C53.4781994,37.1551405 59.3632333,34.6505874 65.2513942,32.1595849 L65.2521076,32.1597007 Z M73.0657342,60.465494 C68.3872869,62.5031868 63.629273,64.4552905 58.9244193,66.4431818 C58.0485496,66.3142422 57.243676,66.1504763 56.3985558,65.8754098 L56.3985558,71.5523196 L63.5331445,71.5523196 C65.5902947,69.3128727 68.4712546,68.0411968 71.5145907,68.0411968 C72.0425562,68.0411968 72.5623799,68.0791988 73.0704827,68.1524904 L73.0657342,60.465494 Z M82.2976618,77.8114787 L87.9795517,77.8114787 L87.8659962,73.5976912 L80.9779829,73.5976912 C80.9779829,73.6026676 81.2878873,74.1962359 81.3195518,74.2618349 C81.8434406,75.4321706 82.1678222,76.5207392 82.2976652,77.8118725 L82.2976618,77.8114787 Z M60.7324461,77.8114787 C60.8758629,76.3474299 61.3341527,74.8847709 62.0512598,73.600934 L40.1293263,73.5977672 L40.1293263,43.3161277 L29.0569431,43.3161277 L11.0473242,61.3257466 L11.0473242,77.8114787 L16.8346081,77.8114787 C17.3788576,72.2348271 22.0409515,68.0811488 27.6174476,68.0404969 C33.1695062,68.0803091 37.8478376,72.2054094 38.400287,77.8114787 L60.7322145,77.8114787 L60.7324461,77.8114787 Z M71.5152856,70.0865683 C66.6437705,70.0865683 62.7267074,74.031196 62.7267074,78.8751465 C62.7267074,83.7354272 66.6550048,87.6637247 71.5152856,87.6637247 C76.3755663,87.6637247 80.3038638,83.7354272 80.3038638,78.8751465 C80.3038638,74.0750908 76.4348649,70.0865683 71.5152856,70.0865683 Z M71.5152856,72.4387056 C75.0653231,72.4387056 77.9521897,75.3246457 77.9521897,78.8756098 C77.9521897,82.4256473 75.0639333,85.3125139 71.5152856,85.3125139 C67.9624684,85.3125139 65.0783814,82.4288902 65.0783814,78.8756098 C65.0783814,75.3214028 67.9611944,72.4387056 71.5152856,72.4387056 Z M71.5152856,74.4849689 C69.0907623,74.4849689 67.1246447,76.4512023 67.1246447,78.8756098 C67.1246447,81.3041866 69.0867087,83.2662506 71.5152856,83.2662506 C73.9460629,83.2662506 75.9059264,81.3059239 75.9059264,78.8756098 C75.9059264,76.4479595 73.9429359,74.4849689 71.5152856,74.4849689 Z M18.8287536,78.8756098 C18.8287536,83.7358905 22.757051,87.6641879 27.6173318,87.6641879 C32.4776125,87.6641879 36.40591,83.7358905 36.40591,78.8756098 C36.40591,73.9018279 32.4242206,70.1299998 27.6173318,70.0870316 C22.7394467,70.130916 18.8287536,73.9714342 18.8287536,78.8756098 L18.8287536,78.8756098 Z M27.6173318,72.4387056 C31.1673693,72.4387056 34.0542359,75.3246457 34.0542359,78.8756098 C34.0542359,82.4256473 31.1659795,85.3125139 27.6173318,85.3125139 C24.0645146,85.3125139 21.1804276,82.4288902 21.1804276,78.8756098 C21.1804276,75.3214028 24.0632406,72.4387056 27.6173318,72.4387056 Z M27.6173318,74.4849689 C25.1928085,74.4849689 23.2266909,76.4512023 23.2266909,78.8756098 C23.2266909,81.3041866 25.1887549,83.2662506 27.6173318,83.2662506 C30.0481091,83.2662506 32.0079726,81.3059239 32.0079726,78.8756098 C32.0079726,76.4479595 30.0449821,74.4849689 27.6173318,74.4849689 Z M74.5940618,57.5999378 C73.1893115,56.5268193 71.8623906,55.2347131 70.6626372,53.7535233 C67.5382289,49.8976118 65.4522402,44.9772218 64.8608762,40.0488403 C64.634673,38.1591623 64.6305962,36.3056192 64.8405178,34.5470465 L53.7776316,39.2295475 C53.4880879,41.2450033 53.463662,43.3346982 53.71927,45.4433871 C54.2757383,50.0122711 56.1396238,54.4173891 59.0297333,57.9991607 C60.3616344,59.64817 61.8817389,61.085465 63.529011,62.280354 L74.5940618,57.5999378 Z M83.4626698,36.2582499 L66.9355148,34.2594717 C66.6799056,36.0066943 66.6590932,37.8810845 66.8907258,39.8106038 C67.4358787,44.3600304 69.3582173,48.908183 72.2441574,52.4671385 C73.4647579,53.9732291 74.8260766,55.2630884 76.2656879,56.2981493 L86.3341652,43.048629 L83.4626698,36.2582499 Z M61.3681683,63.1973968 C59.9439607,62.0555059 58.6234097,60.7431085 57.4398708,59.2781332 C54.3218325,55.4131879 52.2909729,50.6212394 51.6893011,45.691584 C51.4630979,43.8226373 51.4409305,41.9636508 51.6123913,40.1458954 L48.9137281,41.2877863 C47.8342744,42.8631357 47.1836465,44.650547 46.9104331,46.5113865 C46.0653244,52.2619563 48.8019642,58.7417129 53.5201369,62.1386397 C55.044295,63.2375508 56.7806307,64.0138406 58.6708879,64.3382454 L61.367698,63.1977095 L61.3681683,63.1973968 Z" id="Shape" fill="#171C34" fill-rule="nonzero"></path>
                        </g>
                    </g>
                </g>
            </g>
        </g>
    </g>
</svg>