<?xml version="1.0" encoding="UTF-8"?>
<svg width="124px" height="124px" viewBox="0 0 124 124" version="1.1" xmlns="http://www.w3.org/2000/svg" xmlns:xlink="http://www.w3.org/1999/xlink">
    <title>Group 4</title>
    <g id="Page-1" stroke="none" stroke-width="1" fill="none" fill-rule="evenodd">
        <g id="Home" transform="translate(-1135.000000, -1216.000000)">
            <g id="Group-6-Copy" transform="translate(165.000000, 730.000000)">
                <g id="Group-15-Copy-6" transform="translate(0.000000, 462.000000)">
                    <g id="Group-4" transform="translate(970.000000, 24.000000)">
                        <circle id="BG" fill="#F8F8F8" cx="62" cy="62" r="62"></circle>
                        <g id="Group-46" transform="translate(12.000000, 12.000000)">
                            <rect id="Rectangle-Copy-10" fill="#DEDEDE" x="2.47391705" y="5.52995392" width="95.1152074" height="19.3548387"></rect>
                            <rect id="Rectangle" fill="#ACD4F7" x="2.47391705" y="3.13364055" width="95.1152074" height="19.3548387"></rect>
                            <path d="M91.9354839,0 L8.06451613,0 C3.61824885,0 0,3.61824885 0,8.06451613 L0,91.9354839 C0,96.3817512 3.61824885,100 8.06451613,100 L91.9354839,100 C96.3817512,100 100,96.3817512 100,91.9354839 L100,8.06451613 C100,3.61824885 96.3817512,0 91.9354839,0 Z M8.06451613,3.22580645 L91.9354839,3.22580645 C94.6040553,3.22580645 96.7741935,5.3959447 96.7741935,8.06451613 L96.7741935,19.3548387 L3.22580645,19.3548387 L3.22580645,8.06451613 C3.22580645,5.3959447 5.3959447,3.22580645 8.06451613,3.22580645 Z M91.9354839,96.7741935 L8.06451613,96.7741935 C5.3959447,96.7741935 3.22580645,94.6040553 3.22580645,91.9354839 L3.22580645,22.5806452 L96.7741935,22.5806452 L96.7741935,91.9354839 C96.7741935,94.6040553 94.6040553,96.7741935 91.9354839,96.7741935 Z M88.7096774,16.1290323 C91.3782488,16.1290323 93.5483871,13.958894 93.5483871,11.2903226 C93.5483871,8.62175115 91.3782488,6.4516129 88.7096774,6.4516129 C86.041106,6.4516129 83.8709677,8.62175115 83.8709677,11.2903226 C83.8709677,13.958894 86.041106,16.1290323 88.7096774,16.1290323 Z M88.7096774,9.67741935 C89.5996498,9.67741935 90.3225806,10.4010691 90.3225806,11.2903226 C90.3225806,12.179576 89.5996498,12.9032258 88.7096774,12.9032258 C87.8197051,12.9032258 87.0967742,12.179576 87.0967742,11.2903226 C87.0967742,10.4010691 87.8197051,9.67741935 88.7096774,9.67741935 Z M75.8064516,16.1290323 C78.475023,16.1290323 80.6451613,13.958894 80.6451613,11.2903226 C80.6451613,8.62175115 78.475023,6.4516129 75.8064516,6.4516129 C73.1378802,6.4516129 70.9677419,8.62175115 70.9677419,11.2903226 C70.9677419,13.958894 73.1378802,16.1290323 75.8064516,16.1290323 Z M75.8064516,9.67741935 C76.696424,9.67741935 77.4193548,10.4010691 77.4193548,11.2903226 C77.4193548,12.179576 76.696424,12.9032258 75.8064516,12.9032258 C74.9164793,12.9032258 74.1935484,12.179576 74.1935484,11.2903226 C74.1935484,10.4010691 74.9164793,9.67741935 75.8064516,9.67741935 Z M62.9032258,16.1290323 C65.5717972,16.1290323 67.7419355,13.958894 67.7419355,11.2903226 C67.7419355,8.62175115 65.5717972,6.4516129 62.9032258,6.4516129 C60.2346544,6.4516129 58.0645161,8.62175115 58.0645161,11.2903226 C58.0645161,13.958894 60.2346544,16.1290323 62.9032258,16.1290323 Z M62.9032258,9.67741935 C63.7931982,9.67741935 64.516129,10.4010691 64.516129,11.2903226 C64.516129,12.179576 63.7931982,12.9032258 62.9032258,12.9032258 C62.0132535,12.9032258 61.2903226,12.179576 61.2903226,11.2903226 C61.2903226,10.4010691 62.0132535,9.67741935 62.9032258,9.67741935 Z M95.1612903,25.8064516 L95.1612903,30.6451613 C95.1612903,31.5358525 94.4397972,32.2580645 93.5483871,32.2580645 C92.656977,32.2580645 91.9354839,31.5358525 91.9354839,30.6451613 L91.9354839,25.8064516 C91.9354839,24.9157604 92.656977,24.1935484 93.5483871,24.1935484 C94.4397972,24.1935484 95.1612903,24.9157604 95.1612903,25.8064516 Z" id="Shape" fill="#171C34" fill-rule="nonzero"></path>
                            <path d="M56.1875,28 C56.757905,28 57.21875,28.4622239 57.21875,29.03125 L57.21875,31.09375 L58.25,31.09375 C58.5243832,31.09375 58.785425,31.2019429 58.9792411,31.3957589 L63.1042411,35.5207589 C63.2971402,35.714575 63.40625,35.9765361 63.40625,36.25 L63.40625,40.375 C63.40625,41.7179821 62.5411786,42.8509664 61.34375,43.2791179 L61.34375,53.78125 C61.34375,54.3502761 60.882905,54.8125 60.3125,54.8125 L51.03125,54.8125 L51.03125,59.96875 L69.59375,59.96875 C70.164155,59.96875 70.625,60.4309739 70.625,61 L70.625,67.1875 L75.78125,67.1875 C76.351655,67.1875 76.8125,67.648345 76.8125,68.21875 L76.8125,70.28125 L77.84375,70.28125 C78.1181332,70.28125 78.379175,70.3894429 78.5729911,70.5832589 L82.6979911,74.7082589 C82.8908902,74.9011557 83,75.1631168 83,75.4375 L83,79.5625 C83,80.9045393 82.1349286,82.0389025 80.9375,82.465675 L80.9375,92.96875 C80.9375,93.539155 80.476655,94 79.90625,94 L59.28125,94 C58.710845,94 58.25,93.539155 58.25,92.96875 L58.25,82.465675 C57.0525479,82.0384429 56.1875,80.9050107 56.1875,79.5625 L56.1875,75.4375 C56.1875,75.1631168 56.2956929,74.9011557 56.4895089,74.7082589 L60.6145089,70.5832589 C60.8074057,70.3894393 61.0693668,70.28125 61.34375,70.28125 L62.375,70.28125 L62.375,68.21875 C62.375,67.648345 62.835845,67.1875 63.40625,67.1875 L68.5625,67.1875 L68.5625,62.03125 L31.4375,62.03125 L31.4375,67.1875 L36.59375,67.1875 C37.164155,67.1875 37.625,67.648345 37.625,68.21875 L37.625,70.28125 L38.65625,70.28125 C38.9306332,70.28125 39.191675,70.3894429 39.3854911,70.5832589 L43.5104911,74.7082589 C43.7033902,74.9011557 43.8125,75.1631168 43.8125,75.4375 L43.8125,79.5625 C43.8125,80.9045393 42.9474286,82.0389025 41.75,82.465675 L41.75,92.96875 C41.75,93.539155 41.289155,94 40.71875,94 L20.09375,94 C19.523345,94 19.0625,93.539155 19.0625,92.96875 L19.0625,82.465675 C17.8650479,82.0384429 17,80.9050107 17,79.5625 L17,75.4375 C17,75.1631168 17.1081929,74.9011557 17.3020089,74.7082589 L21.4270089,70.5832589 C21.6199057,70.3894393 21.8818668,70.28125 22.15625,70.28125 L23.1875,70.28125 L23.1875,68.21875 C23.1875,67.648345 23.648345,67.1875 24.21875,67.1875 L29.375,67.1875 L29.375,61 C29.375,60.4309739 29.835845,59.96875 30.40625,59.96875 L48.96875,59.96875 L48.96875,54.8125 L39.6875,54.8125 C39.117095,54.8125 38.65625,54.3502761 38.65625,53.78125 L38.65625,43.278175 C37.4587979,42.8509429 36.59375,41.7175107 36.59375,40.375 L36.59375,36.25 C36.59375,35.9765361 36.7019429,35.714575 36.8957589,35.5207589 L41.0207589,31.3957589 C41.2136557,31.2019393 41.4756168,31.09375 41.75,31.09375 L42.78125,31.09375 L42.78125,29.03125 C42.78125,28.4622239 43.242095,28 43.8125,28 L56.1875,28 Z M27.3122054,86.7814268 L25.2497054,86.7814268 L25.2497054,91.9376768 L27.3122054,91.9376768 L27.3122054,86.7814268 Z M66.4997054,86.7814268 L64.4372054,86.7814268 L64.4372054,91.9376768 L66.4997054,91.9376768 L66.4997054,86.7814268 Z M38.6559554,81.8664657 C38.1085089,82.3572229 37.3853375,82.6564739 36.5934554,82.6564739 C35.8015732,82.6564739 35.0783429,82.3572346 34.5309554,81.8664657 C33.9835089,82.3572229 33.2603375,82.6564739 32.4684554,82.6564739 C31.6765732,82.6564739 30.9533429,82.3572346 30.4059554,81.8664657 C29.8585089,82.3572229 29.1353375,82.6564739 28.3434554,82.6564739 C27.5515732,82.6564739 26.8283429,82.3572346 26.2809554,81.8664657 C25.7335089,82.3572229 25.0103375,82.6564739 24.2184554,82.6564739 C23.4265732,82.6564739 22.7033429,82.3572346 22.1559554,81.8664657 C21.8590143,82.1325636 21.5072814,82.3355961 21.1247054,82.4718625 L21.1247054,91.9376768 L23.1872054,91.9376768 L23.1872054,85.7501768 C23.1872054,85.1797718 23.6480504,84.7189268 24.2184554,84.7189268 L28.3434554,84.7189268 C28.9138604,84.7189268 29.3747054,85.1797718 29.3747054,85.7501768 L29.3747054,91.9376768 L39.6872054,91.9376768 L39.6872054,82.4718625 C39.3046293,82.3355961 38.9528964,82.1325636 38.6559554,81.8664657 Z M77.8434554,81.8664657 C77.2960089,82.3572229 76.5728375,82.6564739 75.7809554,82.6564739 C74.9890732,82.6564739 74.2658429,82.3572346 73.7184554,81.8664657 C73.1710089,82.3572229 72.4478375,82.6564739 71.6559554,82.6564739 C70.8640732,82.6564739 70.1408429,82.3572346 69.5934554,81.8664657 C69.0460089,82.3572229 68.3228375,82.6564739 67.5309554,82.6564739 C66.7390732,82.6564739 66.0158429,82.3572346 65.4684554,81.8664657 C64.9210089,82.3572229 64.1978375,82.6564739 63.4059554,82.6564739 C62.6140732,82.6564739 61.8908429,82.3572346 61.3434554,81.8664657 C61.0465143,82.1325636 60.6947814,82.3355961 60.3122054,82.4718625 L60.3122054,91.9376768 L62.3747054,91.9376768 L62.3747054,85.7501768 C62.3747054,85.1797718 62.8355504,84.7189268 63.4059554,84.7189268 L67.5309554,84.7189268 C68.1013604,84.7189268 68.5622054,85.1797718 68.5622054,85.7501768 L68.5622054,91.9376768 L78.8747054,91.9376768 L78.8747054,82.4718625 C78.4921293,82.3355961 78.1403964,82.1325636 77.8434554,81.8664657 Z M75.7809554,84.7190446 C76.3513604,84.7190446 76.8122054,85.1798896 76.8122054,85.7502946 L76.8122054,88.8440446 C76.8122054,89.4144496 76.3513604,89.8752946 75.7809554,89.8752946 L71.6559554,89.8752946 C71.0855504,89.8752946 70.6247054,89.4144496 70.6247054,88.8440446 L70.6247054,85.7502946 C70.6247054,85.1798896 71.0855504,84.7190446 71.6559554,84.7190446 Z M36.5934554,84.7190446 C37.1638604,84.7190446 37.6247054,85.1798896 37.6247054,85.7502946 L37.6247054,88.8440446 C37.6247054,89.4144496 37.1638604,89.8752946 36.5934554,89.8752946 L32.4684554,89.8752946 C31.8980504,89.8752946 31.4372054,89.4144496 31.4372054,88.8440446 L31.4372054,85.7502946 C31.4372054,85.1798896 31.8980504,84.7190446 32.4684554,84.7190446 Z M74.7497054,86.7815446 L72.6872054,86.7815446 L72.6872054,87.8127946 L74.7497054,87.8127946 L74.7497054,86.7815446 Z M35.5622054,86.7815446 L33.4997054,86.7815446 L33.4997054,87.8127946 L35.5622054,87.8127946 L35.5622054,86.7815446 Z M62.3746936,72.3439268 L61.7702161,72.3439268 L58.2497054,75.8644375 L58.2497054,79.5626768 C58.2497054,80.1317029 58.7119293,80.5939268 59.2809554,80.5939268 C59.8120464,80.5939268 60.2501008,80.1912784 60.3061477,79.6749527 L60.3182459,79.4501607 C60.3741383,78.932874 60.8110774,78.5314268 61.3434554,78.5314268 C61.8758334,78.5314268 62.3127724,78.932874 62.3686648,79.4501607 L62.380763,79.6749527 C62.4368099,80.1912784 62.8748644,80.5939268 63.4059554,80.5939268 C63.9370464,80.5939268 64.3751008,80.1912784 64.4311477,79.6749527 L64.4432459,79.4501607 C64.4991383,78.932874 64.9360774,78.5314268 65.4684554,78.5314268 C66.0008334,78.5314268 66.4377724,78.932874 66.4936648,79.4501607 L66.505763,79.6749527 C66.5618099,80.1912784 66.9998644,80.5939268 67.5309554,80.5939268 C68.0620464,80.5939268 68.5001008,80.1912784 68.5561477,79.6749527 L68.5682459,79.4501607 C68.6241383,78.932874 69.0610774,78.5314268 69.5934554,78.5314268 C70.1258334,78.5314268 70.5627724,78.932874 70.6186648,79.4501607 L70.630763,79.6749527 C70.6868099,80.1912784 71.1248644,80.5939268 71.6559554,80.5939268 C72.1870464,80.5939268 72.6251008,80.1912784 72.6811477,79.6749527 L72.6932459,79.4501607 C72.7491383,78.932874 73.1860774,78.5314268 73.7184554,78.5314268 C74.2508334,78.5314268 74.6877724,78.932874 74.7436648,79.4501607 L74.755763,79.6749527 C74.8118099,80.1912784 75.2498644,80.5939268 75.7809554,80.5939268 C76.3120464,80.5939268 76.7501008,80.1912784 76.8061477,79.6749527 L76.8182459,79.4501607 C76.8741383,78.932874 77.3110774,78.5314268 77.8434554,78.5314268 C78.3758334,78.5314268 78.8127724,78.932874 78.8686648,79.4501607 L78.880763,79.6749527 C78.9368099,80.1912784 79.3748644,80.5939268 79.9059554,80.5939268 C80.4749814,80.5939268 80.9372054,80.1317029 80.9372054,79.5626768 L80.9372054,75.8644375 L77.4166711,72.3439268 L76.8121936,72.3439268 L76.8121936,74.4064268 C76.8121936,74.9768318 76.3513486,75.4376768 75.7809436,75.4376768 L63.4059436,75.4376768 C62.8355386,75.4376768 62.3746936,74.9768318 62.3746936,74.4064268 L62.3746936,72.3439268 Z M23.1871936,72.3439268 L22.5827161,72.3439268 L19.0622054,75.8644375 L19.0622054,79.5626768 C19.0622054,80.1317029 19.5244293,80.5939268 20.0934554,80.5939268 C20.6245464,80.5939268 21.0626008,80.1912784 21.1186477,79.6749527 L21.1307459,79.4501607 C21.1866383,78.932874 21.6235774,78.5314268 22.1559554,78.5314268 C22.6883334,78.5314268 23.1252724,78.932874 23.1811648,79.4501607 L23.193263,79.6749527 C23.2493099,80.1912784 23.6873644,80.5939268 24.2184554,80.5939268 C24.7495464,80.5939268 25.1876008,80.1912784 25.2436477,79.6749527 L25.2557459,79.4501607 C25.3116383,78.932874 25.7485774,78.5314268 26.2809554,78.5314268 C26.8133334,78.5314268 27.2502724,78.932874 27.3061648,79.4501607 L27.318263,79.6749527 C27.3743099,80.1912784 27.8123644,80.5939268 28.3434554,80.5939268 C28.8745464,80.5939268 29.3126008,80.1912784 29.3686477,79.6749527 L29.3807459,79.4501607 C29.4366383,78.932874 29.8735774,78.5314268 30.4059554,78.5314268 C30.9383334,78.5314268 31.3752724,78.932874 31.4311648,79.4501607 L31.443263,79.6749527 C31.4993099,80.1912784 31.9373644,80.5939268 32.4684554,80.5939268 C32.9995464,80.5939268 33.4376008,80.1912784 33.4936477,79.6749527 L33.5057459,79.4501607 C33.5616383,78.932874 33.9985774,78.5314268 34.5309554,78.5314268 C35.0633334,78.5314268 35.5002724,78.932874 35.5561648,79.4501607 L35.568263,79.6749527 C35.6243099,80.1912784 36.0623644,80.5939268 36.5934554,80.5939268 C37.1245464,80.5939268 37.5626008,80.1912784 37.6186477,79.6749527 L37.6307459,79.4501607 C37.6866383,78.932874 38.1235774,78.5314268 38.6559554,78.5314268 C39.1883334,78.5314268 39.6252724,78.932874 39.6811648,79.4501607 L39.693263,79.6749527 C39.7493099,80.1912784 40.1873644,80.5939268 40.7184554,80.5939268 C41.2874814,80.5939268 41.7497054,80.1317029 41.7497054,79.5626768 L41.7497054,75.8644375 L38.2291946,72.3439268 L37.6246936,72.3439268 L37.6246936,74.4064268 C37.6246936,74.9768318 37.1638486,75.4376768 36.5934436,75.4376768 L24.2184436,75.4376768 C23.6480386,75.4376768 23.1871936,74.9768318 23.1871936,74.4064268 L23.1871936,72.3439268 Z M35.5622054,69.2501768 L25.2497054,69.2501768 L25.2497054,73.3751768 L35.5622054,73.3751768 L35.5622054,69.2501768 Z M74.7497054,69.2501768 L64.4372054,69.2501768 L64.4372054,73.3751768 L74.7497054,73.3751768 L74.7497054,69.2501768 Z M58.2497054,42.6789657 C57.7022589,43.1697229 56.9790875,43.4689739 56.1872054,43.4689739 C55.3953232,43.4689739 54.6720929,43.1697346 54.1247054,42.6789657 C53.5772589,43.1697229 52.8540875,43.4689739 52.0622054,43.4689739 C51.2703232,43.4689739 50.5470929,43.1697346 49.9997054,42.6789657 C49.4522589,43.1697229 48.7290875,43.4689739 47.9372054,43.4689739 C47.1453232,43.4689739 46.4220929,43.1697346 45.8747054,42.6789657 C45.3272589,43.1697229 44.6040875,43.4689739 43.8122054,43.4689739 C43.0203232,43.4689739 42.2970929,43.1697346 41.7497054,42.6789657 C41.4527643,42.9450636 41.1010314,43.1480961 40.7184554,43.2843625 L40.7184554,52.7501768 L42.7809554,52.7501768 L42.7809554,46.5626768 C42.7809554,45.9936507 43.2418004,45.5314268 43.8122054,45.5314268 L47.9372054,45.5314268 C48.5076104,45.5314268 48.9684554,45.9936507 48.9684554,46.5626768 L48.9684554,52.7501768 L59.2809554,52.7501768 L59.2809554,43.2843625 C58.8983793,43.1480961 58.5466464,42.9450636 58.2497054,42.6789657 Z M46.9059554,47.5939268 L44.8434554,47.5939268 L44.8434554,52.7501768 L46.9059554,52.7501768 L46.9059554,47.5939268 Z M56.1872054,45.5315446 C56.7576104,45.5315446 57.2184554,45.9937686 57.2184554,46.5627946 L57.2184554,49.6565446 C57.2184554,50.2255707 56.7576104,50.6877946 56.1872054,50.6877946 L52.0622054,50.6877946 C51.4918004,50.6877946 51.0309554,50.2255707 51.0309554,49.6565446 L51.0309554,46.5627946 C51.0309554,45.9937686 51.4918004,45.5315446 52.0622054,45.5315446 L56.1872054,45.5315446 Z M55.1559554,47.5940446 L53.0934554,47.5940446 L53.0934554,48.6252946 L55.1559554,48.6252946 L55.1559554,47.5940446 Z M42.7809436,33.1565446 L42.1764661,33.1565446 L38.6559318,36.6770554 L38.6559318,40.3752946 C38.6559318,40.9434014 39.1181557,41.4065446 39.6871818,41.4065446 C40.2182728,41.4065446 40.6563273,41.0030954 40.7123741,40.4874104 L40.7244723,40.2630188 C40.7803647,39.746693 41.2173038,39.3440446 41.7496818,39.3440446 C42.2820598,39.3440446 42.7189989,39.746693 42.7748913,40.2630188 L42.7869895,40.4874104 C42.8430363,41.0030954 43.2810908,41.4065446 43.8121818,41.4065446 C44.3432728,41.4065446 44.7813273,41.0030954 44.8373741,40.4874104 L44.8494723,40.2630188 C44.9053647,39.746693 45.3423038,39.3440446 45.8746818,39.3440446 C46.4070598,39.3440446 46.8439989,39.746693 46.8998913,40.2630188 L46.9119895,40.4874104 C46.9680363,41.0030954 47.4060908,41.4065446 47.9371818,41.4065446 C48.4682728,41.4065446 48.9063273,41.0030954 48.9623741,40.4874104 L48.9744723,40.2630188 C49.0303647,39.746693 49.4673038,39.3440446 49.9996818,39.3440446 C50.5320598,39.3440446 50.9689989,39.746693 51.0248913,40.2630188 L51.0369895,40.4874104 C51.0930363,41.0030954 51.5310908,41.4065446 52.0621818,41.4065446 C52.5932728,41.4065446 53.0313273,41.0030954 53.0873741,40.4874104 L53.0994723,40.2630188 C53.1553647,39.746693 53.5923038,39.3440446 54.1246818,39.3440446 C54.6570598,39.3440446 55.0939989,39.746693 55.1498913,40.2630188 L55.1619895,40.4874104 C55.2180363,41.0030954 55.6560908,41.4065446 56.1871818,41.4065446 C56.7182728,41.4065446 57.1563273,41.0030954 57.2123741,40.4874104 L57.2244723,40.2630188 C57.2803647,39.746693 57.7173038,39.3440446 58.2496818,39.3440446 C58.7820598,39.3440446 59.2189989,39.746693 59.2748913,40.2630188 L59.2869895,40.4874104 C59.3430363,41.0030954 59.7810908,41.4065446 60.3121818,41.4065446 C60.8812079,41.4065446 61.3434318,40.9434014 61.3434318,40.3752946 L61.3434318,36.6770554 L57.8229211,33.1565446 L57.2184436,33.1565446 L57.2184436,35.2190446 C57.2184436,35.7880707 56.7575986,36.2502946 56.1871936,36.2502946 L43.8121936,36.2502946 C43.2417886,36.2502946 42.7809436,35.7880707 42.7809436,35.2190446 L42.7809436,33.1565446 Z M55.1559554,30.0627946 L44.8434554,30.0627946 L44.8434554,34.1877946 L55.1559554,34.1877946 L55.1559554,30.0627946 Z" id="Combined-Shape" fill="#171C34" fill-rule="nonzero"></path>
                        </g>
                    </g>
                </g>
            </g>
        </g>
    </g>
</svg>