<?xml version="1.0" encoding="UTF-8"?>
<svg width="124px" height="124px" viewBox="0 0 124 124" version="1.1" xmlns="http://www.w3.org/2000/svg" xmlns:xlink="http://www.w3.org/1999/xlink">
    <title>Group 4</title>
    <g id="Page-1" stroke="none" stroke-width="1" fill="none" fill-rule="evenodd">
        <g id="Home" transform="translate(-1135.000000, -950.000000)">
            <g id="Group-6-Copy" transform="translate(165.000000, 730.000000)">
                <g id="Group-15" transform="translate(0.000000, 196.000000)">
                    <g id="Group-4" transform="translate(970.000000, 24.000000)">
                        <circle id="BG" fill="#F8F8F8" cx="62" cy="62" r="62"></circle>
                        <g id="Group-46" transform="translate(12.000000, 12.000000)">
                            <rect id="Rectangle-Copy-10" fill="#DEDEDE" x="2.47391705" y="5.52995392" width="95.1152074" height="19.3548387"></rect>
                            <rect id="Rectangle" fill="#ACD4F7" x="2.47391705" y="3.13364055" width="95.1152074" height="19.3548387"></rect>
                            <path d="M91.9354839,0 L8.06451613,0 C3.61824885,0 0,3.61824885 0,8.06451613 L0,91.9354839 C0,96.3817512 3.61824885,100 8.06451613,100 L91.9354839,100 C96.3817512,100 100,96.3817512 100,91.9354839 L100,8.06451613 C100,3.61824885 96.3817512,0 91.9354839,0 Z M8.06451613,3.22580645 L91.9354839,3.22580645 C94.6040553,3.22580645 96.7741935,5.3959447 96.7741935,8.06451613 L96.7741935,19.3548387 L3.22580645,19.3548387 L3.22580645,8.06451613 C3.22580645,5.3959447 5.3959447,3.22580645 8.06451613,3.22580645 Z M91.9354839,96.7741935 L8.06451613,96.7741935 C5.3959447,96.7741935 3.22580645,94.6040553 3.22580645,91.9354839 L3.22580645,22.5806452 L96.7741935,22.5806452 L96.7741935,91.9354839 C96.7741935,94.6040553 94.6040553,96.7741935 91.9354839,96.7741935 Z M88.7096774,16.1290323 C91.3782488,16.1290323 93.5483871,13.958894 93.5483871,11.2903226 C93.5483871,8.62175115 91.3782488,6.4516129 88.7096774,6.4516129 C86.041106,6.4516129 83.8709677,8.62175115 83.8709677,11.2903226 C83.8709677,13.958894 86.041106,16.1290323 88.7096774,16.1290323 Z M88.7096774,9.67741935 C89.5996498,9.67741935 90.3225806,10.4010691 90.3225806,11.2903226 C90.3225806,12.179576 89.5996498,12.9032258 88.7096774,12.9032258 C87.8197051,12.9032258 87.0967742,12.179576 87.0967742,11.2903226 C87.0967742,10.4010691 87.8197051,9.67741935 88.7096774,9.67741935 Z M75.8064516,16.1290323 C78.475023,16.1290323 80.6451613,13.958894 80.6451613,11.2903226 C80.6451613,8.62175115 78.475023,6.4516129 75.8064516,6.4516129 C73.1378802,6.4516129 70.9677419,8.62175115 70.9677419,11.2903226 C70.9677419,13.958894 73.1378802,16.1290323 75.8064516,16.1290323 Z M75.8064516,9.67741935 C76.696424,9.67741935 77.4193548,10.4010691 77.4193548,11.2903226 C77.4193548,12.179576 76.696424,12.9032258 75.8064516,12.9032258 C74.9164793,12.9032258 74.1935484,12.179576 74.1935484,11.2903226 C74.1935484,10.4010691 74.9164793,9.67741935 75.8064516,9.67741935 Z M62.9032258,16.1290323 C65.5717972,16.1290323 67.7419355,13.958894 67.7419355,11.2903226 C67.7419355,8.62175115 65.5717972,6.4516129 62.9032258,6.4516129 C60.2346544,6.4516129 58.0645161,8.62175115 58.0645161,11.2903226 C58.0645161,13.958894 60.2346544,16.1290323 62.9032258,16.1290323 Z M62.9032258,9.67741935 C63.7931982,9.67741935 64.516129,10.4010691 64.516129,11.2903226 C64.516129,12.179576 63.7931982,12.9032258 62.9032258,12.9032258 C62.0132535,12.9032258 61.2903226,12.179576 61.2903226,11.2903226 C61.2903226,10.4010691 62.0132535,9.67741935 62.9032258,9.67741935 Z M95.1612903,25.8064516 L95.1612903,30.6451613 C95.1612903,31.5358525 94.4397972,32.2580645 93.5483871,32.2580645 C92.656977,32.2580645 91.9354839,31.5358525 91.9354839,30.6451613 L91.9354839,25.8064516 C91.9354839,24.9157604 92.656977,24.1935484 93.5483871,24.1935484 C94.4397972,24.1935484 95.1612903,24.9157604 95.1612903,25.8064516 Z" id="Shape" fill="#171C34" fill-rule="nonzero"></path>
                            <path d="M55.6592426,28.0009513 L55.831309,28.001007 L57.9078496,28.0019098 C58.0059915,28.0019651 58.1027475,28.0020219 58.1980704,28.0020802 L59.2701516,28.0028542 C59.3532583,28.002925 59.4347439,28.0029975 59.5145615,28.0030717 L60.186614,28.0037854 C60.2560004,28.0038699 60.3235778,28.0039562 60.3892991,28.0040443 L60.9294096,28.0048872 L61.0091492,28.0050376 L61.3616806,28.0058335 L61.4227067,28.0060017 L61.6784982,28.0068888 C61.7640158,28.0072594 61.8290222,28.007649 61.8722484,28.0080587 L61.9292845,28.0089051 C62.2912202,28.0170156 62.6536621,28.1812628 62.8680776,28.3956784 L72.1916442,37.7187259 C72.4749977,38.0025933 72.6093283,38.3888476 72.5849968,38.7746087 L72.5849904,38.8491215 L72.585009,38.8839001 L72.585965,40.3329201 L72.5860386,40.4393433 L72.5869173,41.6986954 L72.5870004,41.8170382 L72.5878881,43.0793533 C72.5879386,43.1512921 72.5879883,43.2220053 72.5880369,43.2912772 L72.5889755,44.6541017 C72.588992,44.6799547 72.589006,44.7024246 72.5890174,44.7212958 L72.5890521,44.7896121 L79.4596154,44.7896121 C80.2173823,44.7896121 80.8307434,45.4034274 80.8307434,46.1607401 L80.8307434,72.5866824 C80.9224893,72.9516548 80.8819369,73.3455134 80.6619413,73.6770316 L79.478315,75.4552416 C79.7353204,75.9626342 79.9507611,76.4847425 80.123612,77.0169987 L82.2176771,77.4372262 C82.8591006,77.5665261 83.3193728,78.1291868 83.3203867,78.7831004 L83.3203867,82.0293751 C83.3203867,82.6817056 82.8611379,83.2433542 82.2224331,83.3731221 L80.1243452,83.7994357 C79.9530126,84.3276561 79.7370657,84.8497774 79.4775299,85.3632691 L80.6626745,87.1430363 C81.0241041,87.6864006 80.9516158,88.4097531 80.4898236,88.8715452 L78.1909846,91.1703842 C77.7277131,91.635213 77.0002989,91.7051709 76.4568957,91.3391863 L74.6973722,90.1575844 C74.19142,90.4166142 73.6647439,90.6335732 73.1213407,90.8074363 L72.7021254,92.898387 C72.5734215,93.5386101 72.0112668,94 71.3578593,94 L68.1025009,94 C67.4491453,94 66.8869893,93.5386101 66.7582348,92.898387 L66.3390195,90.8069172 C65.799133,90.6330541 65.2744812,90.4160951 64.7696061,90.1570653 L63.0020371,91.3406917 C62.4585819,91.7031335 61.732686,91.6341878 61.2693756,91.1708773 L58.9705366,88.8720384 C58.5082383,88.4102851 58.4362561,87.6869327 58.7976857,87.1435295 L59.9828303,85.3627241 C59.7268371,84.8532811 59.5139398,84.3306537 59.3426072,83.7999288 L57.2471146,83.3736152 C56.6084228,83.2439122 56.1491611,82.6817445 56.1491611,82.0298682 L56.1491611,81.329329 L53.9558234,81.329329 L53.9558234,90.5180668 C53.9558234,92.4382429 52.3930282,94 50.4728521,94 L19.4829714,94 C17.5627952,94 16,92.4382429 16,90.5180668 L16,49.9824568 C16,48.0622806 17.5627952,46.4994854 19.4829714,46.4994854 L31.6731117,46.4994854 L31.6731117,29.3714156 C31.6731117,28.6141548 32.2864209,28 33.0442397,28 L55.6592426,28.0009513 Z M50.4733135,49.2390431 L19.4834328,49.2390431 C19.0748715,49.2390431 18.7428472,49.5710674 18.7428472,49.9796287 L18.7423404,90.5152387 C18.7423404,90.9227879 19.0743646,91.2548121 19.482926,91.2548121 L50.4728066,91.2548121 C50.881368,91.2548121 51.2133922,90.9227879 51.2133922,90.5152387 L51.2138991,49.9796287 C51.2138991,49.5710674 50.8818749,49.2390431 50.4733135,49.2390431 Z M70.2355211,69.5604436 L69.2272891,69.5604436 L68.863329,71.3782328 C68.7573864,71.9059211 68.3518616,72.3231004 67.8282221,72.4442504 C66.9847305,72.6399145 66.1838158,72.9719388 65.4487972,73.4332249 C64.9951285,73.7191257 64.4111728,73.7125335 63.962565,73.4144695 L62.4159908,72.3879792 L61.7063159,73.0940984 L62.7277323,74.6289936 C63.022238,75.0715022 63.0333981,75.6443109 62.7586534,76.0990047 C62.3100457,76.8385522 61.9699109,77.6698845 61.7757651,78.5042534 C61.6551328,79.0289052 61.2374358,79.4329104 60.7097475,79.5388542 L58.8924773,79.9038266 L58.8924773,80.9064915 L60.7132512,81.2765377 C61.2404334,81.3839986 61.6555883,81.7890173 61.7762323,82.3131629 C61.9663163,83.1403038 62.2968223,83.950406 62.7601328,84.7219153 C63.0318396,85.1760901 63.0196673,85.7463683 62.7266773,86.1868656 L61.7037426,87.723837 L62.4118862,88.4319806 L63.9462623,87.4049842 C64.3979066,87.1048984 64.9788128,87.096788 65.4380745,87.3821736 C66.1761945,87.844978 66.9780695,88.1770022 67.8230794,88.3696297 C68.3492494,88.4897689 68.7562912,88.907972 68.862235,89.4366725 L69.2261952,91.2544618 L70.2344271,91.2544618 L70.5983873,89.4366725 C70.7043298,88.907959 71.1113729,88.4902737 71.6375429,88.3696297 C72.4902481,88.1749778 73.2962107,87.8429536 74.0302041,87.3821736 C74.490491,87.0957758 75.0729155,87.1043924 75.5230545,87.4065051 L77.0493849,88.4314641 L77.7565164,87.7238266 L76.7335817,86.1868552 C76.4405903,85.7463579 76.4284181,85.1755866 76.7001262,84.721905 C77.1715472,83.9371983 77.5061019,83.1256815 77.6936555,82.3115953 C77.8153129,81.7879558 78.2304665,81.3834457 78.7566365,81.2764884 L80.5774104,80.9064422 L80.5794556,79.9038525 L78.7621854,79.5388802 C78.2344971,79.4329376 77.8178252,79.0294502 77.6961678,78.5058106 C77.5050715,77.6846391 77.1618872,76.8522687 76.7041568,76.0990047 C76.4299156,75.6448299 76.4405696,75.0715282 76.7350779,74.6289936 L77.7564943,73.0940984 L77.0468194,72.3879792 L75.5002452,73.4144695 C75.0531687,73.7130305 74.469213,73.7196227 74.014013,73.4332249 C73.2790074,72.9719388 72.4780797,72.6399145 71.6345881,72.4442504 C71.1109486,72.3230991 70.7054251,71.9059211 70.5994812,71.3782328 L70.2355211,69.5604436 Z M69.7301087,74.1813487 C73.1628599,74.1813487 75.9563743,76.974863 75.9563743,80.4091714 C75.9563743,83.8429608 73.163379,86.6369942 69.7301087,86.6369942 C66.2952812,86.6369942 63.502286,83.8429608 63.502286,80.4091714 C63.502286,76.9753821 66.2958003,74.1813487 69.7301087,74.1813487 Z M47.465824,77.797981 C48.2235909,77.797981 48.8364452,78.4117964 48.836952,79.1691091 L48.836952,83.9679273 C48.836952,84.7251881 48.2236428,85.3390553 47.465824,85.3390553 L42.7404544,85.3390553 C41.9826876,85.3390553 41.3693264,84.72524 41.3693264,83.9679273 L41.3693264,79.1691091 C41.3693264,78.4118483 41.9826356,77.797981 42.7404544,77.797981 Z M37.340032,77.797981 C38.098305,77.797981 38.71116,78.4117964 38.71116,79.1691091 L38.71116,83.9679273 C38.71116,84.7251881 38.0978508,85.3390553 37.340032,85.3390553 L32.6162196,85.3390553 C31.8584528,85.3390553 31.2450916,84.72524 31.2450916,83.9679273 L31.2450916,79.1691091 C31.2450916,78.4118483 31.8584009,77.797981 32.6162196,77.797981 Z M27.2155377,77.797981 C27.9733046,77.797981 28.5866657,78.4117964 28.5866657,79.1691091 L28.5866657,83.9679273 C28.5866657,84.7251881 27.9733565,85.3390553 27.2155377,85.3390553 L22.4901681,85.3390553 C21.7324012,85.3390553 21.1190401,84.72524 21.1190401,83.9679273 L21.1190401,79.1691091 C21.1190401,78.4118483 21.7323493,77.797981 22.4901681,77.797981 Z M69.7301087,76.9233452 C67.8085051,76.9233452 66.2446717,78.4866595 66.2446717,80.4087821 C66.2446717,82.3309048 67.8083754,83.8942191 69.7301087,83.8942191 C71.651323,83.8942191 73.2141183,82.3309048 73.2141183,80.4087821 C73.2141183,78.4866595 71.6518421,76.9233452 69.7301087,76.9233452 Z M46.094696,80.5402371 L44.1117122,80.5402371 L44.1117122,82.5967993 L46.094696,82.5967993 L46.094696,80.5402371 Z M35.9694231,80.5402371 L33.9878667,80.5402371 L33.9878667,82.5967993 L35.9694231,82.5967993 L35.9694231,80.5402371 Z M25.8444097,80.5402371 L23.8614259,80.5402371 L23.8614259,82.5967993 L25.8444097,82.5967993 L25.8444097,80.5402371 Z M60.5272263,30.7401048 L34.4153223,30.7401048 L34.4153223,46.4965276 L50.4728066,46.4965276 C52.3929828,46.4965276 53.955778,48.0593228 53.955778,49.979499 L53.955778,78.584245 L56.1836339,78.584245 C56.2671526,78.0184697 56.6767261,77.550088 57.250547,77.4350201 L59.343574,77.0152987 C59.5154257,76.4795258 59.728323,75.9579236 59.9812666,75.4540607 L58.7976403,73.6742935 C58.4357046,73.1298651 58.5081929,72.4055004 58.9715034,71.9437083 L61.2703424,69.6535637 C61.7321605,69.1937959 62.4539946,69.1233449 62.9963857,69.4822311 L64.7745957,70.6617957 C65.2779785,70.4027659 65.8000998,70.1858069 66.3384291,70.0119439 L66.7576444,67.9183977 C66.8863482,67.2781747 67.4485029,66.8168886 68.1019104,66.8168886 L69.8466403,66.8168886 L69.8466403,40.0574426 L61.8983543,40.0574426 C61.1405874,40.0574426 60.5272263,39.4436273 60.5272263,38.6863146 L60.5272263,30.7401048 Z M47.465824,67.5138722 C48.2235909,67.5138722 48.8364452,68.1276875 48.836952,68.8850002 L48.836952,73.6838184 C48.836952,74.4410792 48.2236428,75.0549464 47.465824,75.0549464 L42.7404544,75.0549464 C41.9826876,75.0549464 41.3693264,74.4411311 41.3693264,73.6838184 L41.3693264,68.8850002 C41.3693264,68.1277394 41.9826356,67.5138722 42.7404544,67.5138722 Z M27.2155377,67.5138722 C27.9733046,67.5138722 28.5866657,68.1276875 28.5866657,68.8850002 L28.5866657,73.6838184 C28.5866657,74.4410792 27.9733565,75.0549464 27.2155377,75.0549464 L22.4901681,75.0549464 C21.7324012,75.0549464 21.1190401,74.4411311 21.1190401,73.6838184 L21.1190401,68.8850002 C21.1190401,68.1277394 21.7323493,67.5138722 22.4901681,67.5138722 Z M37.340032,67.5138722 C38.098305,67.5138722 38.71116,68.1276875 38.71116,68.8850002 L38.71116,73.6838184 C38.71116,74.4410792 38.0978508,75.0549464 37.340032,75.0549464 L32.6162196,75.0549464 C31.8584528,75.0549464 31.2450916,74.4411311 31.2450916,73.6838184 L31.2450916,68.8850002 C31.2450916,68.1277394 31.8584009,67.5138722 32.6162196,67.5138722 Z M25.8444097,70.2561282 L23.8614259,70.2561282 L23.8614259,72.3126904 L25.8444097,72.3126904 L25.8444097,70.2561282 Z M35.9694231,70.2561282 L33.9878667,70.2561282 L33.9878667,72.3126904 L35.9694231,72.3126904 L35.9694231,70.2561282 Z M46.094696,70.2561282 L44.1117122,70.2561282 L44.1117122,72.3126904 L46.094696,72.3126904 L46.094696,70.2561282 Z M78.0884614,47.5309078 L72.5890261,47.5309078 L72.5890261,67.6313186 C72.6316471,67.7251019 72.6808162,67.8153309 72.7015998,67.9197538 L73.1208151,70.0132999 C73.6591833,70.187163 74.1812917,70.404122 74.6846485,70.6631518 L76.4628585,69.4835872 C76.9712374,69.1480138 77.6266693,69.2022568 78.0884614,69.5849684 L78.0884614,47.5309078 Z M65.7337754,62.1316173 C66.4915423,62.1316173 67.1049034,62.7454326 67.1049034,63.5027453 C67.1049034,64.2600061 66.4915942,64.8738733 65.7337754,64.8738733 L58.0694216,64.8738733 C57.3116547,64.8738733 56.6982936,64.2600061 56.6982936,63.5027453 C56.6982936,62.7454845 57.3116028,62.1316173 58.0694216,62.1316173 Z M47.0998785,51.9828563 C47.8576453,51.9828563 48.4710065,52.5966717 48.4710065,53.3539844 L48.4710065,63.0581603 C48.4710065,63.8154211 47.8576972,64.4292883 47.0998785,64.4292883 L22.8566328,64.4292883 C22.0988659,64.4292883 21.4855047,63.815473 21.4855047,63.0581603 L21.4855047,53.3539844 C21.4855047,52.5967236 22.098814,51.9828563 22.8566328,51.9828563 L47.0998785,51.9828563 Z M45.72901,54.7245933 L24.2277608,54.7245933 L24.2277608,61.6869026 L45.72901,61.6869026 L45.72901,54.7245933 Z M65.7332563,56.6458076 C66.4910232,56.6458076 67.1043843,57.2596748 67.1043843,58.0169356 C67.1043843,58.7741964 66.4910751,59.3880636 65.7332563,59.3880636 L58.0689025,59.3880636 C57.3111356,59.3880636 56.6977745,58.7741964 56.6977745,58.0169356 C56.6977745,57.2596748 57.3110837,56.6458076 58.0689025,56.6458076 Z M65.7332563,51.1618146 C66.4910232,51.1618146 67.1043843,51.7756299 67.1043843,52.5329426 C67.1043843,53.2902034 66.4910751,53.9040706 65.7332563,53.9040706 L58.0689025,53.9040706 C57.3111356,53.9040706 56.6977745,53.2902553 56.6977745,52.5329426 C56.6977745,51.7756818 57.3110837,51.1618146 58.0689025,51.1618146 Z M65.7329968,45.6770431 C66.4907637,45.6770431 67.1041248,46.2908584 67.1041248,47.0481711 C67.1041248,47.8054319 66.4908156,48.4192991 65.7329968,48.4192991 L58.068643,48.4192991 C57.3108761,48.4192991 56.697515,47.8054838 56.697515,47.0481711 C56.697515,46.2909103 57.3108242,45.6770431 58.068643,45.6770431 Z M55.9025566,39.74016 C56.6603235,39.74016 57.2736846,40.3539753 57.2736846,41.111288 C57.2736846,41.8685496 56.6603754,42.482416 55.9025566,42.4829229 L38.0296188,42.4829229 C37.271852,42.4829229 36.6584908,41.8691076 36.6584908,41.1117949 C36.6584908,40.3545341 37.2718001,39.7406669 38.0296188,39.7406669 Z M63.2696121,32.6737769 L63.2696121,37.3159652 L67.9118004,37.3159652 L63.2696121,32.6737769 Z M55.9033352,33.9635404 C56.6611021,33.9635404 57.2744632,34.5774076 57.2744632,35.3346684 C57.2744632,36.0919292 56.661154,36.7057964 55.9033352,36.7057964 L38.0303974,36.7057964 C37.2726306,36.7057964 36.6592694,36.091475 36.6592694,35.3346684 C36.6592694,34.5774076 37.2725787,33.9635404 38.0303974,33.9635404 Z" id="Combined-Shape" fill="#171C34" fill-rule="nonzero"></path>
                        </g>
                    </g>
                </g>
            </g>
        </g>
    </g>
</svg>