<?xml version="1.0" encoding="UTF-8"?>
<svg width="124px" height="124px" viewBox="0 0 124 124" version="1.1" xmlns="http://www.w3.org/2000/svg" xmlns:xlink="http://www.w3.org/1999/xlink">
    <title>Group 4</title>
    <g id="Page-1" stroke="none" stroke-width="1" fill="none" fill-rule="evenodd">
        <g id="Home" transform="translate(-1135.000000, -1628.000000)">
            <g id="Group-6-Copy" transform="translate(165.000000, 730.000000)">
                <g id="Group-15-Copy-12" transform="translate(0.000000, 874.000000)">
                    <g id="Group-4" transform="translate(970.000000, 24.000000)">
                        <circle id="BG" fill="#F8F8F8" cx="62" cy="62" r="62"></circle>
                        <g id="Group-46" transform="translate(12.000000, 12.000000)">
                            <rect id="Rectangle-Copy-10" fill="#DEDEDE" x="2.47391705" y="5.52995392" width="95.1152074" height="19.3548387"></rect>
                            <rect id="Rectangle" fill="#ACD4F7" x="2.47391705" y="3.13364055" width="95.1152074" height="19.3548387"></rect>
                            <path d="M91.9354839,0 L8.06451613,0 C3.61824885,0 0,3.61824885 0,8.06451613 L0,91.9354839 C0,96.3817512 3.61824885,100 8.06451613,100 L91.9354839,100 C96.3817512,100 100,96.3817512 100,91.9354839 L100,8.06451613 C100,3.61824885 96.3817512,0 91.9354839,0 Z M8.06451613,3.22580645 L91.9354839,3.22580645 C94.6040553,3.22580645 96.7741935,5.3959447 96.7741935,8.06451613 L96.7741935,19.3548387 L3.22580645,19.3548387 L3.22580645,8.06451613 C3.22580645,5.3959447 5.3959447,3.22580645 8.06451613,3.22580645 Z M91.9354839,96.7741935 L8.06451613,96.7741935 C5.3959447,96.7741935 3.22580645,94.6040553 3.22580645,91.9354839 L3.22580645,22.5806452 L96.7741935,22.5806452 L96.7741935,91.9354839 C96.7741935,94.6040553 94.6040553,96.7741935 91.9354839,96.7741935 Z M88.7096774,16.1290323 C91.3782488,16.1290323 93.5483871,13.958894 93.5483871,11.2903226 C93.5483871,8.62175115 91.3782488,6.4516129 88.7096774,6.4516129 C86.041106,6.4516129 83.8709677,8.62175115 83.8709677,11.2903226 C83.8709677,13.958894 86.041106,16.1290323 88.7096774,16.1290323 Z M88.7096774,9.67741935 C89.5996498,9.67741935 90.3225806,10.4010691 90.3225806,11.2903226 C90.3225806,12.179576 89.5996498,12.9032258 88.7096774,12.9032258 C87.8197051,12.9032258 87.0967742,12.179576 87.0967742,11.2903226 C87.0967742,10.4010691 87.8197051,9.67741935 88.7096774,9.67741935 Z M75.8064516,16.1290323 C78.475023,16.1290323 80.6451613,13.958894 80.6451613,11.2903226 C80.6451613,8.62175115 78.475023,6.4516129 75.8064516,6.4516129 C73.1378802,6.4516129 70.9677419,8.62175115 70.9677419,11.2903226 C70.9677419,13.958894 73.1378802,16.1290323 75.8064516,16.1290323 Z M75.8064516,9.67741935 C76.696424,9.67741935 77.4193548,10.4010691 77.4193548,11.2903226 C77.4193548,12.179576 76.696424,12.9032258 75.8064516,12.9032258 C74.9164793,12.9032258 74.1935484,12.179576 74.1935484,11.2903226 C74.1935484,10.4010691 74.9164793,9.67741935 75.8064516,9.67741935 Z M62.9032258,16.1290323 C65.5717972,16.1290323 67.7419355,13.958894 67.7419355,11.2903226 C67.7419355,8.62175115 65.5717972,6.4516129 62.9032258,6.4516129 C60.2346544,6.4516129 58.0645161,8.62175115 58.0645161,11.2903226 C58.0645161,13.958894 60.2346544,16.1290323 62.9032258,16.1290323 Z M62.9032258,9.67741935 C63.7931982,9.67741935 64.516129,10.4010691 64.516129,11.2903226 C64.516129,12.179576 63.7931982,12.9032258 62.9032258,12.9032258 C62.0132535,12.9032258 61.2903226,12.179576 61.2903226,11.2903226 C61.2903226,10.4010691 62.0132535,9.67741935 62.9032258,9.67741935 Z M95.1612903,25.8064516 L95.1612903,30.6451613 C95.1612903,31.5358525 94.4397972,32.2580645 93.5483871,32.2580645 C92.656977,32.2580645 91.9354839,31.5358525 91.9354839,30.6451613 L91.9354839,25.8064516 C91.9354839,24.9157604 92.656977,24.1935484 93.5483871,24.1935484 C94.4397972,24.1935484 95.1612903,24.9157604 95.1612903,25.8064516 Z" id="Shape" fill="#171C34" fill-rule="nonzero"></path>
                            <path d="M31.3999797,37.9000866 L46.7999971,37.9000866 C47.3833875,37.8991046 47.9422259,37.6673138 48.3547075,37.2548196 C48.7671891,36.8423254 48.9989939,36.2834745 48.9999745,35.7001093 L48.9999745,33.5001068 C48.9989924,32.9167164 48.7672017,32.3578781 48.3547075,31.9453965 C47.9422133,31.5329149 47.3833624,31.30111 46.7999971,31.3001294 L31.3999797,31.3001294 C30.8165893,31.3011115 30.257751,31.5329023 29.8452694,31.9453965 C29.4327878,32.3578906 29.2009829,32.9167416 29.2000024,33.5001068 L29.2000024,35.7001093 C29.2009844,36.2834997 29.4327752,36.842338 29.8452694,37.2548196 C30.2577636,37.6673012 30.8166145,37.8991061 31.3999797,37.9000866 Z M31.3999797,33.5000817 L46.7999971,33.5000817 L46.7999971,35.7000841 L31.3999797,35.7000841 L31.3999797,33.5000817 Z M53.4000046,37.9000866 C54.5790677,37.9000866 55.66827,37.2710242 56.2579964,36.2500848 C56.8472828,35.2291453 56.8472828,33.9710079 56.2579964,32.950081 C55.6682198,31.9291416 54.5790802,31.3000792 53.4000046,31.3000792 C52.220929,31.3000792 51.1317392,31.9291416 50.5420128,32.950081 C49.9527264,33.9710205 49.9527264,35.2291579 50.5420128,36.2500848 C51.1317895,37.2710242 52.220929,37.9000866 53.4000046,37.9000866 Z M53.4000046,33.5000817 C54.0074567,33.5000817 54.5000059,33.9926308 54.5000059,34.6000829 C54.5000059,35.207535 54.0074567,35.7000841 53.4000046,35.7000841 C52.7925525,35.7000841 52.3000034,35.207535 52.3000034,34.6000829 C52.3000034,33.9926308 52.7925525,33.5000817 53.4000046,33.5000817 Z M66.6000196,36.8000792 L66.6000196,32.4000804 C66.6000196,31.7926283 67.0925687,31.3000792 67.7000208,31.3000792 C68.3074729,31.3000792 68.800022,31.7926283 68.800022,32.4000804 L68.800022,36.8000792 C68.800022,37.4075375 68.3074729,37.9000866 67.7000208,37.9000866 C67.0925687,37.9000866 66.6000196,37.4075375 66.6000196,36.8000792 Z M62.2000146,36.8000792 L62.2000146,32.4000804 C62.2000146,31.7926283 62.6925637,31.3000792 63.3000158,31.3000792 C63.9074679,31.3000792 64.4000171,31.7926283 64.4000171,32.4000804 L64.4000171,36.8000792 C64.4000171,37.4075375 63.9074679,37.9000866 63.3000158,37.9000866 C62.6925637,37.9000866 62.2000146,37.4075375 62.2000146,36.8000792 Z M57.8000096,36.8000792 L57.8000096,32.4000804 C57.8000096,31.7926283 58.2925587,31.3000792 58.9000108,31.3000792 C59.507463,31.3000792 60.0000121,31.7926283 60.0000121,32.4000804 L60.0000121,36.8000792 C60.0000121,37.4075375 59.507463,37.9000866 58.9000108,37.9000866 C58.2925587,37.9000866 57.8000096,37.4075375 57.8000096,36.8000792 Z M53.4000046,42.3000916 C52.2209416,42.3000916 51.1317392,42.929154 50.5420128,43.9500935 C49.9527264,44.9710329 49.9527264,46.2291703 50.5420128,47.2500972 C51.1317895,48.2710367 52.220929,48.9000991 53.4000046,48.9000991 C54.5790802,48.9000991 55.66827,48.2710367 56.2579964,47.2500972 C56.8472828,46.2291578 56.8472828,44.9710204 56.2579964,43.9500935 C55.6682198,42.929154 54.5790802,42.3000916 53.4000046,42.3000916 Z M53.4000046,46.7000966 C52.7925525,46.7000966 52.3000034,46.2075475 52.3000034,45.6000953 C52.3000034,44.9926432 52.7925525,44.5000941 53.4000046,44.5000941 C54.0074567,44.5000941 54.5000059,44.9926432 54.5000059,45.6000953 C54.5000059,46.2075475 54.0074567,46.7000966 53.4000046,46.7000966 Z M68.800022,43.4000929 L68.800022,47.8000916 C68.800022,48.40755 68.3074729,48.9000991 67.7000208,48.9000991 C67.0925687,48.9000991 66.6000196,48.40755 66.6000196,47.8000916 L66.6000196,43.4000929 C66.6000196,42.7926407 67.0925687,42.3000916 67.7000208,42.3000916 C68.3074729,42.3000916 68.800022,42.7926407 68.800022,43.4000929 Z M64.4000171,43.4000929 L64.4000171,47.8000916 C64.4000171,48.40755 63.9074679,48.9000991 63.3000158,48.9000991 C62.6925637,48.9000991 62.2000146,48.40755 62.2000146,47.8000916 L62.2000146,43.4000929 C62.2000146,42.7926407 62.6925637,42.3000916 63.3000158,42.3000916 C63.9074679,42.3000916 64.4000171,42.7926407 64.4000171,43.4000929 Z M60.0000121,43.4000929 L60.0000121,47.8000916 C60.0000121,48.40755 59.507463,48.9000991 58.9000108,48.9000991 C58.2925587,48.9000991 57.8000096,48.40755 57.8000096,47.8000916 L57.8000096,43.4000929 C57.8000096,42.7926407 58.2925587,42.3000916 58.9000108,42.3000916 C59.507463,42.3000916 60.0000121,42.7926407 60.0000121,43.4000929 Z M53.4000046,53.3001041 C52.2209416,53.3001041 51.1317392,53.9291665 50.5420128,54.9501059 C49.9527264,55.9710454 49.9527264,57.2291828 50.5420128,58.2501097 C51.1317895,59.2710491 52.220929,59.9001115 53.4000046,59.9001115 C54.5790802,59.9001115 55.66827,59.2710491 56.2579964,58.2501097 C56.8472828,57.2291702 56.8472828,55.9710328 56.2579964,54.9501059 C55.6682198,53.9291665 54.5790802,53.3001041 53.4000046,53.3001041 Z M53.4000046,57.700109 C52.7925525,57.700109 52.3000034,57.2075599 52.3000034,56.6001078 C52.3000034,55.9926557 52.7925525,55.5001066 53.4000046,55.5001066 C54.0074567,55.5001066 54.5000059,55.9926557 54.5000059,56.6001078 C54.5000059,57.2075599 54.0074567,57.700109 53.4000046,57.700109 Z M68.800022,54.4001053 L68.800022,58.8001041 C68.800022,59.4075624 68.3074729,59.9001115 67.7000208,59.9001115 C67.0925687,59.9001115 66.6000196,59.4075624 66.6000196,58.8001041 L66.6000196,54.4001053 C66.6000196,53.7926532 67.0925687,53.3001041 67.7000208,53.3001041 C68.3074729,53.3001041 68.800022,53.7926532 68.800022,54.4001053 Z M64.4000171,54.4001053 L64.4000171,58.8001041 C64.4000171,59.4075624 63.9074679,59.9001115 63.3000158,59.9001115 C62.6925637,59.9001115 62.2000146,59.4075624 62.2000146,58.8001041 L62.2000146,54.4001053 C62.2000146,53.7926532 62.6925637,53.3001041 63.3000158,53.3001041 C63.9074679,53.3001041 64.4000171,53.7926532 64.4000171,54.4001053 Z M60.0000121,54.4001053 L60.0000121,58.8001041 C60.0000121,59.4075624 59.507463,59.9001115 58.9000108,59.9001115 C58.2925587,59.9001115 57.8000096,59.4075624 57.8000096,58.8001041 L57.8000096,54.4001053 C57.8000096,53.7926532 58.2925587,53.3001041 58.9000108,53.3001041 C59.507463,53.3001041 60.0000121,53.7926532 60.0000121,54.4001053 Z M46.7999971,42.3000916 L31.3999797,42.3000916 C30.8165893,42.3010737 30.257751,42.5328644 29.8452694,42.9453586 C29.4327878,43.3578528 29.2009829,43.9167037 29.2000024,44.500069 L29.2000024,46.7000715 C29.2009844,47.2834618 29.4327752,47.8423002 29.8452694,48.2547818 C30.2577636,48.6672634 30.8166145,48.8990682 31.3999797,48.9000488 L46.7999971,48.9000488 C47.3833875,48.8990667 47.9422259,48.667276 48.3547075,48.2547818 C48.7671891,47.8422876 48.9989939,47.2834367 48.9999745,46.7000715 L48.9999745,44.500069 C48.9989924,43.9166786 48.7672017,43.3578402 48.3547075,42.9453586 C47.9422133,42.532877 47.3833624,42.3010722 46.7999971,42.3000916 Z M46.7999971,46.7000966 L31.3999797,46.7000966 L31.3999797,44.5000941 L46.7999971,44.5000941 L46.7999971,46.7000966 Z M46.7999971,53.3001041 L31.3999797,53.3001041 C30.8165893,53.3010861 30.257751,53.5328769 29.8452694,53.9453711 C29.4327878,54.3578653 29.2009829,54.9167162 29.2000024,55.5000814 L29.2000024,57.7000839 C29.2009844,58.2834743 29.4327752,58.8423126 29.8452694,59.2547942 C30.2577636,59.6672758 30.8166145,59.8990807 31.3999797,59.9000612 L46.7999971,59.9000612 C47.3833875,59.8990792 47.9422259,59.6672884 48.3547075,59.2547942 C48.7671891,58.8423001 48.9989939,58.2834491 48.9999745,57.7000839 L48.9999745,55.5000814 C48.9989924,54.916691 48.7672017,54.3578527 48.3547075,53.9453711 C47.9422133,53.5328895 47.3833624,53.3010846 46.7999971,53.3001041 L46.7999971,53.3001041 Z M46.7999971,57.700109 L31.3999797,57.700109 L31.3999797,55.5001066 L46.7999971,55.5001066 L46.7999971,57.700109 Z M25.8999735,77.5001315 L25.8999735,73.1001265 L47.8999984,73.1001265 L47.8999984,77.5001315 C47.8999984,78.1075836 48.3925475,78.6001327 48.9999996,78.6001327 C49.6074518,78.6001327 50.1000009,78.1075836 50.1000009,77.5001315 L50.1000009,73.1001265 L72.1000258,73.1001265 L72.1000258,77.5001315 C72.1000258,78.1075836 72.5925749,78.6001327 73.200027,78.6001327 C73.8074791,78.6001327 74.3000283,78.1075836 74.3000283,77.5001315 L74.3000283,72.0001252 C74.3000283,71.70843 74.1841347,71.4285143 73.9778851,71.2222672 C73.7716354,71.0160201 73.4917222,70.900124 73.200027,70.900124 L50.1000009,70.900124 L50.1000009,63.2001153 L69.9000233,63.2001153 C70.7751089,63.1991332 71.6138881,62.8509686 72.2326545,62.232705 C72.8509181,61.6139512 73.1990842,60.775172 73.2000647,59.9000738 L73.2000647,53.3000663 C73.1976094,52.485374 72.8916747,51.7011045 72.3421643,51.1000639 C72.8916747,50.498998 73.1976133,49.7146909 73.2000647,48.9000614 L73.2000647,42.3000539 C73.1976094,41.4853615 72.8916747,40.7010921 72.3421643,40.1000514 C72.8916747,39.4989856 73.1976133,38.7146784 73.2000647,37.9000489 L73.2000647,31.3000414 C73.1990827,30.4249559 72.8509181,29.5861767 72.2326545,28.9674102 C71.6139007,28.3491467 70.7751214,28.0009806 69.9000233,28 L28.099976,28 C27.2248904,28.0009821 26.3861112,28.3491467 25.7673448,28.9674102 C25.1490812,29.5861641 24.8009151,30.4249433 24.7999345,31.3000414 L24.7999345,37.9000489 C24.8023899,38.7147413 25.1083246,39.4990107 25.6578349,40.1000514 C25.1083246,40.7011172 24.802386,41.4854244 24.7999345,42.3000539 L24.7999345,48.9000614 C24.8023899,49.7147537 25.1083246,50.4990232 25.6578349,51.1000639 C25.1083246,51.7011297 24.802386,52.4854369 24.7999345,53.3000663 L24.7999345,59.9000738 C24.8009166,60.7751594 25.1490812,61.6139386 25.7673448,62.232705 C26.3860986,62.8509686 27.2248778,63.1991347 28.099976,63.2001153 L47.8999984,63.2001153 L47.8999984,70.900124 L24.7999722,70.900124 C24.1925201,70.900124 23.699971,71.3926731 23.699971,72.0001252 L23.699971,77.5001315 C23.699971,78.1075836 24.1925201,78.6001327 24.7999722,78.6001327 C25.4074244,78.6001327 25.8999735,78.1075836 25.8999735,77.5001315 Z M26.9999747,48.9000991 L26.9999747,42.3000916 C27.0004658,41.6926395 27.4925239,41.2005807 28.099976,41.2000904 L69.9000233,41.2000904 C70.5074754,41.2005814 70.9995343,41.6926395 71.0000245,42.3000916 L71.0000245,48.9000991 C70.9995335,49.5075512 70.5074754,49.99961 69.9000233,50.0001003 L28.099976,50.0001003 C27.4925239,49.9996093 27.000465,49.5075512 26.9999747,48.9000991 Z M26.9999747,31.3000792 C27.0004658,30.692627 27.4925239,30.2005682 28.099976,30.2000779 L69.9000233,30.2000779 C70.5074754,30.200569 70.9995343,30.692627 71.0000245,31.3000792 L71.0000245,37.9000866 C70.9995335,38.5075387 70.5074754,38.9995976 69.9000233,39.0000879 L28.099976,39.0000879 C27.4925239,38.9995968 27.000465,38.5075387 26.9999747,37.9000866 L26.9999747,31.3000792 Z M26.9999747,59.9001115 L26.9999747,53.3001041 C27.0004658,52.6926519 27.4925239,52.2005931 28.099976,52.2001028 L69.9000233,52.2001028 C70.5074754,52.2005939 70.9995343,52.6926519 71.0000245,53.3001041 L71.0000245,59.9001115 C70.9995335,60.5075637 70.5074754,60.9996225 69.9000233,61.0001128 L28.099976,61.0001128 C27.4925239,60.9996217 27.000465,60.5075637 26.9999747,59.9001115 Z M34.6999835,85.6728264 L34.6999835,85.1999177 C34.6975281,84.3253312 34.3488631,83.4875702 33.7306121,82.8693067 C33.1123485,82.2510431 32.2745876,81.9023867 31.3999923,81.8999353 L24.8657335,81.8999353 C24.7773399,81.8994443 24.6918956,81.8680151 24.6241229,81.8120332 L23.0728069,80.3707173 C22.6003972,79.9405351 21.9850879,79.7013886 21.3457421,79.6999177 L19.2999912,79.6999177 C18.4253959,79.702373 17.5876349,80.0510381 16.9693714,80.6692891 C16.3511078,81.2875527 16.0024514,82.1253136 16,82.9999089 L16,90.6999177 C16.0054018,91.5735323 16.3550427,92.4093824 16.972816,93.0271431 C17.5905892,93.6449164 18.4263262,93.9945533 19.3000414,93.9999797 L32.2574275,93.9999797 C32.9513083,94.0024144 33.6274634,93.7858548 34.1907897,93.3807149 C34.7535629,92.9760653 35.1744046,92.4034864 35.3924437,91.7449188 L36.1295451,89.5449163 C36.364279,88.8328572 36.3505259,88.062366 36.0907509,87.3591195 C35.8309758,86.655873 35.3403866,86.0617466 34.699595,85.6727862 L34.6999835,85.6728264 Z M19.1352801,87.60908 L18.2223797,90.8761466 L18.2223797,90.8756556 C18.208629,90.8182003 18.2012634,90.7592717 18.2002816,90.6998565 L18.2002816,82.9998478 C18.2022459,82.392886 18.693321,81.9018077 19.3002828,81.8998465 L21.3460337,81.8998465 C21.434426,81.9003376 21.5198716,81.9317667 21.5881346,81.9877486 L23.1389477,83.4285616 L23.1394388,83.4290527 C23.6108679,83.8607057 24.2266674,84.1003426 24.8660007,84.0998523 L31.4002596,84.0998523 C32.0072214,84.1018166 32.4982997,84.5928917 32.5002608,85.1998535 L22.3145007,85.1998535 C21.5945845,85.2013268 20.8948077,85.437039 20.3212984,85.8716463 C19.7477892,86.3062537 19.3312973,86.9161572 19.1353588,87.6090197 L19.1352801,87.60908 Z M34.0399827,88.8519809 L33.3028813,91.0519834 C33.1570274,91.5037759 32.7327412,91.8077408 32.2578801,91.7998836 L20.2570551,91.7998836 L21.2578551,88.2028167 C21.3924072,87.730407 21.8225894,87.4033484 22.3141454,87.3999164 L32.9949689,87.3999164 C33.3485408,87.4023717 33.680012,87.573264 33.8862591,87.8605466 C34.0929965,88.1473264 34.1499703,88.5156319 34.0399701,88.8520186 L34.0399827,88.8519809 Z M80.9000357,85.6727887 L80.9000357,85.1998918 C80.8975804,84.3252935 80.5489153,83.4875325 79.9306644,82.869269 C79.3124008,82.2510054 78.4746399,81.902349 77.6000446,81.8998976 L71.0657858,81.8998976 C70.9773922,81.8994065 70.8919478,81.8679774 70.8241752,81.8119955 L69.273362,80.3711825 L69.272871,80.3706914 C68.8004613,79.9405092 68.185152,79.7013627 67.5458062,79.6998918 L65.5000553,79.6998918 C64.62546,79.7023471 63.787699,80.0510122 63.1694355,80.6692632 C62.5511719,81.2875268 62.2025155,82.1252877 62.2000641,82.999883 L62.2000641,90.6998918 C62.2054659,91.5735064 62.5551068,92.4093565 63.1728801,93.0271172 C63.7906533,93.6448905 64.6263903,93.9945274 65.5001056,93.9999538 L78.4574917,93.9999538 C79.1513724,94.0023885 79.8275275,93.7858289 80.3908538,93.380689 C80.953627,92.9760394 81.3744687,92.4034605 81.5925078,91.7448929 L82.3296092,89.5448904 C82.5643432,88.8328313 82.55059,88.0623401 82.290815,87.3590936 C82.0310399,86.6558471 81.5404507,86.0617207 80.8996591,85.6727603 L80.9000357,85.6727887 Z M65.3353324,87.6090423 L64.4224319,90.8761089 L64.4224319,90.8756178 C64.4086813,90.8181626 64.4013157,90.7592339 64.4003339,90.6998188 L64.4003339,82.9998101 C64.4022982,82.3928482 64.8933733,81.90177 65.5003351,81.8998088 L67.546086,81.8998088 C67.6344783,81.9002999 67.7199239,81.931729 67.7881868,81.9877109 L69.339,83.4285239 L69.3394911,83.429015 C69.8109202,83.860668 70.4267197,84.1003049 71.066053,84.0998146 L77.6003118,84.0998146 C78.2072737,84.1017789 78.6983519,84.592854 78.7003131,85.1998158 L68.514553,85.1998158 C67.7946367,85.2012891 67.09486,85.4370012 66.5213507,85.8716086 C65.9478415,86.3062159 65.5313496,86.9161195 65.3354111,87.608982 L65.3353324,87.6090423 Z M80.240035,88.8519432 L79.5029336,91.0519457 C79.3570797,91.5037382 78.9327935,91.8077031 78.4579324,91.7998459 L66.4571074,91.7998459 L67.4579074,88.202779 C67.5924595,87.7303693 68.0226417,87.4033107 68.5141977,87.3998787 L79.1950212,87.3998787 C79.5485931,87.402334 79.8800643,87.5732263 80.0863114,87.8605089 C80.2930488,88.1472886 80.3500225,88.5155942 80.2400224,88.8519809 L80.240035,88.8519432 Z M57.8000096,85.672751 L57.8000096,85.1998541 C57.7975543,84.3252558 57.4488892,83.4874948 56.8306382,82.8692312 C56.2123747,82.2509677 55.3746137,81.9023113 54.5000184,81.8998599 L47.9657596,81.8998599 C47.877366,81.8993688 47.7919217,81.8679397 47.724149,81.8119578 L46.1733359,80.3711448 L46.1728448,80.3706537 C45.7004351,79.9404715 45.0851259,79.701325 44.44578,79.6998541 L42.4000291,79.6998541 C41.5254339,79.7023094 40.6876729,80.0509745 40.0694093,80.6692255 C39.4511458,81.287489 39.1024894,82.12525 39.100038,82.9998453 L39.100038,90.6998541 C39.1054398,91.5734687 39.4550807,92.4093188 40.0728539,93.0270795 C40.6906272,93.6448527 41.5263641,93.9944897 42.4000794,93.9999161 L55.3574655,93.9999161 C56.0513463,94.0023508 56.7275013,93.7857912 57.2908277,93.3806513 C57.8536009,92.9760017 58.2744425,92.4034228 58.4924816,91.7448552 L59.229583,89.5448527 C59.464317,88.8327936 59.4505639,88.0623024 59.1907888,87.3590559 C58.9310138,86.6558094 58.4404245,86.061683 57.799633,85.6727226 L57.8000096,85.672751 Z M42.2353063,87.6090046 L41.3224058,90.8760712 L41.3224058,90.8755801 C41.3086552,90.8181249 41.3012896,90.7591962 41.3003077,90.6997811 L41.3003077,82.9997724 C41.302272,82.3928105 41.7933471,81.9017323 42.400309,81.8997711 L44.4460599,81.8997711 C44.5344522,81.9002621 44.6198978,81.9316913 44.6881607,81.9876732 L46.2389739,83.4284862 L46.2394649,83.4289773 C46.710894,83.8606303 47.3266936,84.1002672 47.9660269,84.0997769 L54.5002857,84.0997769 C55.1072475,84.1017412 55.5983258,84.5928163 55.6002869,85.1997781 L45.4145268,85.1997781 C44.6946106,85.2012514 43.9948338,85.4369635 43.4213246,85.8715709 C42.8478154,86.3061782 42.4313235,86.9160818 42.235385,87.6089443 L42.2353063,87.6090046 Z M57.1400088,88.8519054 L56.4029074,91.0519079 C56.2570536,91.5037004 55.8327674,91.8076654 55.3579063,91.7998082 L43.3570812,91.7998082 L44.3578812,88.2027413 C44.4924334,87.7303316 44.9226156,87.4032729 45.4141716,87.3998409 L56.0949951,87.3998409 C56.4485669,87.4022963 56.7800382,87.5731886 56.9862852,87.8604712 C57.1930226,88.1472509 57.2499964,88.5155565 57.1399963,88.8519432 L57.1400088,88.8519054 Z" id="Shape" fill="#171C34" fill-rule="nonzero"></path>
                        </g>
                    </g>
                </g>
            </g>
        </g>
    </g>
</svg>