<?xml version="1.0" encoding="UTF-8"?>
<svg width="124px" height="124px" viewBox="0 0 124 124" version="1.1" xmlns="http://www.w3.org/2000/svg" xmlns:xlink="http://www.w3.org/1999/xlink">
    <title>Group 4</title>
    <g id="Page-1" stroke="none" stroke-width="1" fill="none" fill-rule="evenodd">
        <g id="Home" transform="translate(-1135.000000, -2838.000000)">
            <g id="Group-6-Copy" transform="translate(165.000000, 730.000000)">
                <g id="Group-15-Copy-17" transform="translate(0.000000, 2084.000000)">
                    <g id="Group-4" transform="translate(970.000000, 24.000000)">
                        <circle id="BG" fill="#F8F8F8" cx="62" cy="62" r="62"></circle>
                        <g id="Group-46" transform="translate(12.000000, 12.000000)">
                            <rect id="Rectangle-Copy-10" fill="#DEDEDE" x="2.47391705" y="5.52995392" width="95.1152074" height="19.3548387"></rect>
                            <rect id="Rectangle" fill="#ACD4F7" x="2.47391705" y="3.13364055" width="95.1152074" height="19.3548387"></rect>
                            <path d="M91.9354839,0 L8.06451613,0 C3.61824885,0 0,3.61824885 0,8.06451613 L0,91.9354839 C0,96.3817512 3.61824885,100 8.06451613,100 L91.9354839,100 C96.3817512,100 100,96.3817512 100,91.9354839 L100,8.06451613 C100,3.61824885 96.3817512,0 91.9354839,0 Z M8.06451613,3.22580645 L91.9354839,3.22580645 C94.6040553,3.22580645 96.7741935,5.3959447 96.7741935,8.06451613 L96.7741935,19.3548387 L3.22580645,19.3548387 L3.22580645,8.06451613 C3.22580645,5.3959447 5.3959447,3.22580645 8.06451613,3.22580645 Z M91.9354839,96.7741935 L8.06451613,96.7741935 C5.3959447,96.7741935 3.22580645,94.6040553 3.22580645,91.9354839 L3.22580645,22.5806452 L96.7741935,22.5806452 L96.7741935,91.9354839 C96.7741935,94.6040553 94.6040553,96.7741935 91.9354839,96.7741935 Z M88.7096774,16.1290323 C91.3782488,16.1290323 93.5483871,13.958894 93.5483871,11.2903226 C93.5483871,8.62175115 91.3782488,6.4516129 88.7096774,6.4516129 C86.041106,6.4516129 83.8709677,8.62175115 83.8709677,11.2903226 C83.8709677,13.958894 86.041106,16.1290323 88.7096774,16.1290323 Z M88.7096774,9.67741935 C89.5996498,9.67741935 90.3225806,10.4010691 90.3225806,11.2903226 C90.3225806,12.179576 89.5996498,12.9032258 88.7096774,12.9032258 C87.8197051,12.9032258 87.0967742,12.179576 87.0967742,11.2903226 C87.0967742,10.4010691 87.8197051,9.67741935 88.7096774,9.67741935 Z M75.8064516,16.1290323 C78.475023,16.1290323 80.6451613,13.958894 80.6451613,11.2903226 C80.6451613,8.62175115 78.475023,6.4516129 75.8064516,6.4516129 C73.1378802,6.4516129 70.9677419,8.62175115 70.9677419,11.2903226 C70.9677419,13.958894 73.1378802,16.1290323 75.8064516,16.1290323 Z M75.8064516,9.67741935 C76.696424,9.67741935 77.4193548,10.4010691 77.4193548,11.2903226 C77.4193548,12.179576 76.696424,12.9032258 75.8064516,12.9032258 C74.9164793,12.9032258 74.1935484,12.179576 74.1935484,11.2903226 C74.1935484,10.4010691 74.9164793,9.67741935 75.8064516,9.67741935 Z M62.9032258,16.1290323 C65.5717972,16.1290323 67.7419355,13.958894 67.7419355,11.2903226 C67.7419355,8.62175115 65.5717972,6.4516129 62.9032258,6.4516129 C60.2346544,6.4516129 58.0645161,8.62175115 58.0645161,11.2903226 C58.0645161,13.958894 60.2346544,16.1290323 62.9032258,16.1290323 Z M62.9032258,9.67741935 C63.7931982,9.67741935 64.516129,10.4010691 64.516129,11.2903226 C64.516129,12.179576 63.7931982,12.9032258 62.9032258,12.9032258 C62.0132535,12.9032258 61.2903226,12.179576 61.2903226,11.2903226 C61.2903226,10.4010691 62.0132535,9.67741935 62.9032258,9.67741935 Z M95.1612903,25.8064516 L95.1612903,30.6451613 C95.1612903,31.5358525 94.4397972,32.2580645 93.5483871,32.2580645 C92.656977,32.2580645 91.9354839,31.5358525 91.9354839,30.6451613 L91.9354839,25.8064516 C91.9354839,24.9157604 92.656977,24.1935484 93.5483871,24.1935484 C94.4397972,24.1935484 95.1612903,24.9157604 95.1612903,25.8064516 Z M44.4993682,28.9802359 C45.1664611,28.3290148 46.0689339,27.9756656 47.0007875,28.001304 C47.927438,28.0041084 48.8155188,28.3733007 49.4709406,29.0287225 C50.1124172,29.6701757 50.4801678,30.5344815 50.4981485,31.4402257 L50.4988245,31.4993529 L50.4988245,35.801565 L55.4065516,35.801565 C55.6834489,35.801565 55.9486988,35.9115816 56.1449483,36.1073656 C56.3318364,36.2942503 56.4405705,36.5448535 56.4500693,36.8080783 L56.4507489,36.8457622 L56.4507489,45.9092752 C56.4444543,46.2369622 56.2847173,46.5421122 56.0208552,46.7340303 L55.9911112,46.754884 L50.2690295,50.4827279 C49.9600087,50.6767119 49.5702288,50.6829694 49.2559977,50.5015006 L49.2248322,50.4827279 L43.5338974,46.7860309 C43.2619412,46.6026362 43.0931476,46.3026395 43.0755862,45.9767356 L43.0742597,45.9404221 L43.0742597,36.8769091 C43.0742597,36.3105706 43.5252719,35.8494453 44.0876722,35.8331571 L44.118457,35.8327119 L48.5040855,35.8327119 L48.5040855,31.4993529 C48.5040855,30.6844852 47.8467902,30.0220673 47.0319463,30.0164734 C46.1336264,30.0164734 45.6115326,30.5175688 45.5490669,31.561766 C45.5975534,32.5076298 45.2348769,33.4277764 44.5547524,34.086456 C43.8875191,34.7317641 42.9787446,35.0638841 42.054281,35.0015446 L41.9987962,34.9973302 L29.5734454,34.9973302 L29.5734454,37.8166628 L40.3286772,37.8166628 C40.7934345,37.9332072 41.1188183,38.3504206 41.1188183,38.8296296 C41.1188183,39.2977344 40.8077354,39.707463 40.3594525,39.8339486 L40.3286772,39.842131 L19.0485336,39.842131 L19.0485336,43.5285651 L40.3286772,43.5285651 C40.7831835,43.6521025 41.0992352,44.06465 41.0992352,44.535935 C41.0992352,44.996509 40.7973862,45.4014294 40.3594497,45.5349014 L40.3286772,45.5437703 L29.5734454,45.5437703 L29.5734454,83.469015 C30.7382922,83.8942121 31.744791,84.6675148 32.4561459,85.6833099 C33.1526809,86.6779426 33.5341343,87.858845 33.5510387,89.0717482 L33.5516222,89.1492095 L33.5516222,89.9533368 L37.1438995,89.9533368 L37.1438995,68.766276 C37.1498663,68.7062352 37.1623969,68.6470911 37.1810133,68.5897956 L37.1961093,68.5471855 L37.1961093,62.2820019 C37.1961093,61.7156634 37.6471215,61.254538 38.2095218,61.2382499 L38.2403066,61.2378046 L51.9294344,61.2378046 C51.9988884,61.2270829 52.0692817,61.2270829 52.1382739,61.2378046 C52.2109858,61.2280153 52.2851083,61.2280153 52.3578298,61.2378046 C53.1619224,61.2322795 53.8148968,60.5912147 53.8400021,59.7913886 L53.8407092,59.7549252 C53.8402431,58.8673336 53.2869379,58.3452326 52.2949505,58.2720457 C51.3593497,58.3191241 50.4479743,57.9634526 49.7916218,57.2949754 C49.1348038,56.6264505 48.7959039,55.7090963 48.8597682,54.7739849 C48.9763125,54.309693 49.393526,53.9838438 49.872735,53.9838438 C50.3514786,53.9838438 50.7691623,54.309693 50.8852364,54.7739849 C50.8852364,55.783399 51.291761,56.2443388 52.3553043,56.2566123 L52.3993821,56.2568643 C53.3242426,56.2540599 54.2113687,56.6227988 54.8616589,57.281013 C55.4979458,57.9249769 55.8548956,58.7929679 55.8563632,59.6971072 L55.8559734,59.7548655 C55.8559734,60.68259 55.4872465,61.5724728 54.8313593,62.22836 C54.1753648,62.8847125 53.2855178,63.2529741 52.3578648,63.2529741 C52.2851529,63.2627634 52.2110292,63.2627634 52.1383089,63.2529741 C52.0808184,63.2619087 52.0223525,63.2633978 51.9642654,63.2574414 L51.9294695,63.2529741 L39.2845389,63.2529741 L39.2845389,67.6596059 L61.2126815,67.6596059 C61.4895788,67.6596059 61.7552918,67.7696225 61.9510782,67.9654065 C62.1379652,68.1522912 62.2467003,68.4028944 62.2561992,68.6661192 L62.2568788,68.7038031 L62.2568788,89.9529192 L66.1101457,89.9529192 L66.1101457,89.1487918 C66.111542,87.9087628 66.4942552,86.6986873 67.205622,85.6828922 C67.9024712,84.6878276 68.8824373,83.9254016 70.0171995,83.4950604 L70.0883225,83.4685973 L70.0883225,45.5433526 L59.0198315,45.5433526 C58.7061069,45.6286546 58.3700066,45.5629239 58.1117498,45.3652782 C57.853493,45.1676326 57.7019948,44.8609011 57.7019948,44.5355173 C57.7019948,44.2101454 57.853493,43.903402 58.1117498,43.7062218 C58.3600737,43.516171 58.6803682,43.4480918 58.9835389,43.5189735 L59.0198315,43.5281474 L80.4049915,43.5276812 L80.4049915,39.8417246 L59.0198315,39.8417246 C58.5550742,39.7256456 58.2296904,39.3079667 58.2296904,38.8292232 C58.2296904,38.3606633 58.5407734,37.9513696 58.9890562,37.8244685 L59.0198315,37.8162563 L70.1195887,37.8162563 L70.1195887,33.879573 C70.114461,33.8203688 70.114461,33.7611658 70.1195887,33.701964 C70.3306956,32.4834156 71.1068862,31.4373328 72.2116827,30.8811993 C73.3160257,30.3250658 74.6189691,30.3250658 75.7237656,30.8811993 C76.8280609,31.4373089 77.6042157,32.4834156 77.8153823,33.701964 C77.8192281,33.7463671 77.8201896,33.7907696 77.8182666,33.8351714 L77.8153823,33.879573 L77.8153823,37.8162563 L81.4076595,37.8162563 C81.68382,37.808477 81.9527933,37.9105697 82.1541742,38.1002914 C82.3468457,38.281845 82.4630645,38.5288025 82.4805296,38.7921117 L82.4823505,38.8298332 L82.4823505,44.4997647 C82.4823505,44.7766619 82.3723338,45.0423749 82.1765498,45.2381613 C81.9896651,45.4250483 81.7390619,45.5337835 81.4758371,45.5432823 L81.4381532,45.543962 L77.8458759,45.543962 L77.8458759,83.4692067 C79.0107227,83.8944038 80.0172215,84.6677423 80.7285764,85.6835016 C81.4255671,86.6781343 81.8065832,87.8590366 81.8239067,89.0719398 L81.8245181,89.1494011 L81.8245181,90.9558027 C81.8245181,91.2327 81.7145015,91.4984154 81.5187175,91.6941994 C81.3313885,91.8810864 81.0811892,91.9898215 80.818002,91.9993204 L80.7803208,92 L18.9113345,92 C18.6344372,92 18.3687218,91.8899834 18.1729378,91.6941994 C17.9860508,91.5073146 17.8773157,91.2567114 17.8678168,90.9934866 L17.8671372,90.9558027 L17.8671372,89.1494011 C17.8685335,87.9093721 18.2512467,86.6992967 18.9626135,85.6835016 C19.6594627,84.688437 20.6394288,83.9260109 21.774191,83.4956697 L21.845314,83.4692067 L21.845314,45.5749895 L18.0441973,45.5749895 C17.7673,45.5749895 17.50205,45.4649729 17.3058006,45.2691889 C17.1189125,45.0823042 17.0101784,44.831701 17.0006796,44.5684762 L17,44.5307923 L17,38.8608608 C17,38.2945223 17.4510122,37.8333969 18.0134125,37.8171088 L18.0441973,37.8166635 L21.845314,37.8166635 L21.845314,33.8799802 C21.846712,33.8352271 21.8509952,33.7907378 21.8581624,33.7465108 L21.866291,33.7023712 C22.0677316,32.5761895 22.7529398,31.5948708 23.741192,31.0177698 C24.7289429,30.4406688 25.9204018,30.3259861 27.0005195,30.7040452 C28.0620144,31.075586 28.910975,31.8861071 29.3315085,32.9271802 L29.3532451,32.9821853 L41.9886287,32.9817192 C42.9874476,32.9817192 43.4482442,32.5653232 43.4605158,31.5015131 L43.4607678,31.4574299 C43.457498,30.5250512 43.8322992,29.631457 44.4993682,28.9802359 Z M27.5063398,85.1075448 L23.9140626,85.1075448 C22.8451626,85.1131417 21.8215032,85.5410716 21.0663278,86.2981206 C20.3261198,87.0406344 19.9029461,88.0405097 19.8843052,89.0871029 L19.8836759,89.1487195 L19.8836759,89.9528468 L31.5367265,89.9528468 L31.5367265,89.1487195 C31.5339221,88.0798195 31.1087846,87.0551696 30.3540746,86.2981206 C29.6134335,85.5556303 28.6145125,85.1297193 27.5679554,85.1083354 L27.5063398,85.1075448 Z M60.1681859,83.5207707 L51.8146078,83.5207707 L46.4579355,86.9144715 C46.3090364,87.006671 46.1400311,87.0598824 45.9654906,87.0696262 L45.9251204,87.0711011 L39.2842645,87.0711011 L39.2842645,89.9528468 L60.1681859,89.9527394 L60.1681859,87.0709937 L57.4220068,87.0709937 C56.9572495,86.9544493 56.6314003,86.5367704 56.6314003,86.0580268 C56.6314003,85.589467 56.9429282,85.1801732 57.3912308,85.0532722 L57.4220068,85.04506 L60.1681859,85.04506 L60.1681859,83.5207707 Z M75.7482535,85.1075448 L72.1559763,85.1075448 C71.0870763,85.1131417 70.0634169,85.5410716 69.3082415,86.2981206 C68.5680335,87.0406344 68.1448598,88.0405097 68.1262189,89.0871029 L68.1255896,89.1487195 L68.1255896,89.9528468 L79.820599,89.9528468 L79.820599,89.1487195 L79.7786402,89.1487195 C79.7758358,88.0798195 79.3506983,87.0551696 78.5959883,86.2981206 C77.8553472,85.5556303 76.8564262,85.1297193 75.8098691,85.1083354 L75.7482535,85.1075448 Z M52.555594,85.0452629 C52.8679224,84.9669421 53.1984257,85.0368616 53.4520165,85.2349846 C53.7056073,85.4326302 53.8538475,85.7365692 53.8538475,86.0582178 C53.8538475,86.3798663 53.7056073,86.683328 53.4520165,86.881451 C53.2081792,87.0714957 52.8932319,87.1434532 52.5917072,87.0795005 L52.555594,87.0711727 L52.2740314,87.0711727 C51.8092741,86.9546283 51.4834249,86.5369494 51.4834249,86.0582058 C51.4834249,85.589646 51.7949529,85.1803523 52.2432555,85.0534512 L52.2740314,85.045239 L52.555594,85.0452629 Z M60.1689019,75.9606631 L51.8153238,75.9606631 L46.4586515,79.3543639 C46.3107263,79.4509525 46.1396503,79.5049024 45.9636252,79.5105294 L45.9258364,79.5109935 L39.2849805,79.5109935 L39.2849805,85.0451913 L45.5501641,85.0451913 L50.9277203,81.6617535 C51.0782629,81.5638596 51.2531624,81.5098227 51.4323441,81.5053269 L51.4707984,81.5051239 L60.1689019,81.5051239 L60.1689019,79.5108861 L57.4227228,79.5108861 C56.9579655,79.3943418 56.6321163,78.9771283 56.6321163,78.4979193 C56.6321163,78.0298145 56.9436442,77.6200859 57.3919468,77.4931653 L57.4227228,77.4849525 L60.1689019,77.4849525 L60.1689019,75.9606631 Z M27.5585855,45.5013096 L23.8726288,45.5013096 L23.8726288,83.0924111 L27.5585855,83.0924111 L27.5585855,45.5013096 Z M75.8316461,45.5012737 L72.1145425,45.5012737 L72.1145425,83.0923753 L75.8316461,83.0923753 L75.8316461,45.5012737 Z M52.5555217,77.4844632 C53.020279,77.6010075 53.3461282,78.0186865 53.3461282,78.49743 C53.3461282,78.9659899 53.0346003,79.3752836 52.5862977,79.5021847 L52.5555217,79.5103968 L52.2739591,79.5103968 C51.8092018,79.3938525 51.4833526,78.976639 51.4833526,78.49743 C51.4833526,78.0293252 51.7948806,77.6195966 52.2431831,77.492676 L52.2739591,77.4844632 L52.5555217,77.4844632 Z M60.1689497,69.7057425 L39.2850043,69.7057425 L39.2850043,77.4850718 L45.5501879,77.4850718 L50.9277442,74.1021113 C51.0782868,74.0042174 51.2531862,73.9501806 51.4323679,73.9456848 L51.4708222,73.9454818 L60.1689497,73.9454818 L60.1689497,69.7057425 Z M54.3841923,41.5856295 L45.0698333,41.5856295 L45.0698333,45.3657429 L49.7267145,48.393915 L54.3837262,45.3657429 L54.3841923,41.5856295 Z M51.3132976,43.0577686 C51.7775895,43.1738475 52.1034387,43.5915265 52.1034387,44.07027 C52.1034387,44.5388299 51.7919108,44.9481236 51.3440433,45.0750247 L51.3132976,45.0832368 L48.1807058,45.0832368 C47.7159485,44.9666925 47.3900993,44.549479 47.3900993,44.07027 C47.3900993,43.6021652 47.7016273,43.1924366 48.1499299,43.0659511 L48.1807058,43.0577686 L51.3132976,43.0577686 Z M54.3841923,37.8474033 L45.0698333,37.8474033 L45.0698333,39.5703884 L54.363189,39.5703884 L54.3841923,37.8474033 Z M73.9621631,32.5118655 C73.5323595,32.5086076 73.1142152,32.6531126 72.778115,32.921155 C72.4540147,33.1792585 72.2245781,33.5363701 72.1251923,33.9375145 L72.1143039,33.9839927 L72.1143039,37.8162563 L75.8314671,37.8162563 L75.8314671,33.9839927 C75.7307826,33.5644521 75.4911781,33.1905937 75.1522735,32.9234821 C74.8133688,32.6563705 74.3938283,32.5113994 73.9621631,32.5118655 Z M25.7102251,32.5118567 C25.2818178,32.5109347 24.8664779,32.6568359 24.5322393,32.9244129 C24.2103914,33.1820797 23.9827645,33.538301 23.8834777,33.9377176 L23.872593,33.9839927 L23.872593,37.8162563 L27.5585497,37.8162563 L27.5585497,33.9839927 C27.4583306,33.567722 27.2224495,33.196656 26.88728,32.9300098 C26.552576,32.6633636 26.138155,32.516061 25.7102251,32.5118567 Z" id="Shape" fill="#171C34" fill-rule="nonzero"></path>
                        </g>
                    </g>
                </g>
            </g>
        </g>
    </g>
</svg>