<?xml version="1.0" encoding="UTF-8"?>
<svg width="124px" height="124px" viewBox="0 0 124 124" version="1.1" xmlns="http://www.w3.org/2000/svg" xmlns:xlink="http://www.w3.org/1999/xlink">
    <title>Group 4</title>
    <g id="Page-1" stroke="none" stroke-width="1" fill="none" fill-rule="evenodd">
        <g id="Home" transform="translate(-1135.000000, -1422.000000)">
            <g id="Group-6-Copy" transform="translate(165.000000, 730.000000)">
                <g id="Group-15-Copy-11" transform="translate(0.000000, 668.000000)">
                    <g id="Group-4" transform="translate(970.000000, 24.000000)">
                        <circle id="BG" fill="#F8F8F8" cx="62" cy="62" r="62"></circle>
                        <g id="Group-46" transform="translate(12.000000, 12.000000)">
                            <rect id="Rectangle-Copy-10" fill="#DEDEDE" x="2.47391705" y="5.52995392" width="95.1152074" height="19.3548387"></rect>
                            <rect id="Rectangle" fill="#ACD4F7" x="2.47391705" y="3.13364055" width="95.1152074" height="19.3548387"></rect>
                            <path d="M91.9354839,0 L8.06451613,0 C3.61824885,0 0,3.61824885 0,8.06451613 L0,91.9354839 C0,96.3817512 3.61824885,100 8.06451613,100 L91.9354839,100 C96.3817512,100 100,96.3817512 100,91.9354839 L100,8.06451613 C100,3.61824885 96.3817512,0 91.9354839,0 Z M8.06451613,3.22580645 L91.9354839,3.22580645 C94.6040553,3.22580645 96.7741935,5.3959447 96.7741935,8.06451613 L96.7741935,19.3548387 L3.22580645,19.3548387 L3.22580645,8.06451613 C3.22580645,5.3959447 5.3959447,3.22580645 8.06451613,3.22580645 Z M91.9354839,96.7741935 L8.06451613,96.7741935 C5.3959447,96.7741935 3.22580645,94.6040553 3.22580645,91.9354839 L3.22580645,22.5806452 L96.7741935,22.5806452 L96.7741935,91.9354839 C96.7741935,94.6040553 94.6040553,96.7741935 91.9354839,96.7741935 Z M88.7096774,16.1290323 C91.3782488,16.1290323 93.5483871,13.958894 93.5483871,11.2903226 C93.5483871,8.62175115 91.3782488,6.4516129 88.7096774,6.4516129 C86.041106,6.4516129 83.8709677,8.62175115 83.8709677,11.2903226 C83.8709677,13.958894 86.041106,16.1290323 88.7096774,16.1290323 Z M88.7096774,9.67741935 C89.5996498,9.67741935 90.3225806,10.4010691 90.3225806,11.2903226 C90.3225806,12.179576 89.5996498,12.9032258 88.7096774,12.9032258 C87.8197051,12.9032258 87.0967742,12.179576 87.0967742,11.2903226 C87.0967742,10.4010691 87.8197051,9.67741935 88.7096774,9.67741935 Z M75.8064516,16.1290323 C78.475023,16.1290323 80.6451613,13.958894 80.6451613,11.2903226 C80.6451613,8.62175115 78.475023,6.4516129 75.8064516,6.4516129 C73.1378802,6.4516129 70.9677419,8.62175115 70.9677419,11.2903226 C70.9677419,13.958894 73.1378802,16.1290323 75.8064516,16.1290323 Z M75.8064516,9.67741935 C76.696424,9.67741935 77.4193548,10.4010691 77.4193548,11.2903226 C77.4193548,12.179576 76.696424,12.9032258 75.8064516,12.9032258 C74.9164793,12.9032258 74.1935484,12.179576 74.1935484,11.2903226 C74.1935484,10.4010691 74.9164793,9.67741935 75.8064516,9.67741935 Z M62.9032258,16.1290323 C65.5717972,16.1290323 67.7419355,13.958894 67.7419355,11.2903226 C67.7419355,8.62175115 65.5717972,6.4516129 62.9032258,6.4516129 C60.2346544,6.4516129 58.0645161,8.62175115 58.0645161,11.2903226 C58.0645161,13.958894 60.2346544,16.1290323 62.9032258,16.1290323 Z M62.9032258,9.67741935 C63.7931982,9.67741935 64.516129,10.4010691 64.516129,11.2903226 C64.516129,12.179576 63.7931982,12.9032258 62.9032258,12.9032258 C62.0132535,12.9032258 61.2903226,12.179576 61.2903226,11.2903226 C61.2903226,10.4010691 62.0132535,9.67741935 62.9032258,9.67741935 Z M95.1612903,25.8064516 L95.1612903,30.6451613 C95.1612903,31.5358525 94.4397972,32.2580645 93.5483871,32.2580645 C92.656977,32.2580645 91.9354839,31.5358525 91.9354839,30.6451613 L91.9354839,25.8064516 C91.9354839,24.9157604 92.656977,24.1935484 93.5483871,24.1935484 C94.4397972,24.1935484 95.1612903,24.9157604 95.1612903,25.8064516 Z" id="Shape" fill="#171C34" fill-rule="nonzero"></path>
                            <path d="M43.6133173,28 C43.8956031,28 44.1664871,28.1121576 44.3660836,28.3117517 C44.5656802,28.5113458 44.6778354,28.7822322 44.6778354,29.0645181 L44.6778354,38.6461542 L50.8168808,38.6461542 C50.8895965,38.510711 50.9437725,38.3672018 51.0193339,38.2341309 L49.848364,37.063161 C49.4325328,36.6478165 49.4325328,35.9739461 49.848364,35.5581149 L54.3630156,31.0400568 C54.7783601,30.6247001 55.4522305,30.6247001 55.8680617,31.0400568 L57.0390316,32.2110267 C58.174842,31.5647609 59.3862027,31.0614932 60.6456189,30.7126719 L60.6456189,29.0645546 C60.6456189,28.4766973 61.1222797,28 61.710137,28 L68.0972455,28 C68.3795314,28 68.6504154,28.1121941 68.8500119,28.3117882 C69.0496084,28.5113823 69.1617636,28.7822687 69.1617636,29.0645546 L69.1617636,30.7126719 C70.4206931,31.0619798 71.6310806,31.5661964 72.7664044,32.2134599 L73.9373743,31.04249 C74.3593736,30.6428152 75.0204089,30.6428152 75.4424204,31.04249 L79.9604785,35.5571417 C80.3758352,35.9724862 80.3758352,36.6463566 79.9604785,37.0621878 L78.7895086,38.2331577 C79.4353,39.3689681 79.9390421,40.5798422 80.2878634,41.8387717 L81.9354819,41.8386744 C82.2177678,41.8386744 82.4886517,41.950832 82.6882483,42.1504261 C82.8878448,42.3500202 83,42.6209066 83,42.9031924 L83,49.290301 C83,49.5725869 82.8878424,49.8434708 82.6882483,50.0430674 C82.4886542,50.2426639 82.2177678,50.3548191 81.9354819,50.3548191 L80.2873646,50.3548191 C79.938081,51.6137486 79.4343389,52.8241361 78.7875498,53.9594598 L79.9585197,55.1304297 C80.3743509,55.5457743 80.3743509,56.2196446 79.9585197,56.6354758 L75.4438681,61.1535339 C75.0285236,61.5688906 74.3546532,61.5688906 73.938822,61.1535339 L72.7678521,59.982564 C71.6320417,60.6288299 70.420681,61.1320976 69.1612648,61.4809189 L69.1612648,63.1290362 C69.1612648,63.411322 69.0491072,63.682206 68.8495131,63.8818025 C68.649919,64.0813991 68.3790326,64.1935543 68.0967467,64.1935543 L65.9677105,64.1935543 L65.9677105,90.8065066 C65.9677105,91.6532547 65.6311403,92.4659504 65.0324554,93.0647448 C64.4337704,93.6635393 63.6210747,94 62.7742171,94 L20.1934934,94 C19.3467453,94 18.5340496,93.6634298 17.9352552,93.0647448 C17.3364607,92.4660598 17,91.6533642 17,90.8065066 L17,56.7419276 C17,55.8951795 17.3365702,55.0824838 17.9352552,54.4836894 C18.5339402,53.8848949 19.3466358,53.5484342 20.1934934,53.5484342 L50.7968678,53.5484342 C50.2560561,52.5333097 49.8273899,51.4626479 49.5194461,50.3548799 L47.8713288,50.3548799 C47.5890429,50.3548799 47.318159,50.2427223 47.1185624,50.0431282 C46.9189659,49.8435341 46.8068107,49.5726477 46.8068107,49.2903618 L46.8068107,42.9032533 C46.8068107,42.315396 47.2834715,41.8387352 47.8713288,41.8387352 L49.5189595,41.8387352 C49.619231,41.4766044 49.7608545,41.1277831 49.8863095,40.7742171 L44.6778354,40.7742171 L44.6778354,48.2258437 C44.6778354,48.5081296 44.5656777,48.7790136 44.3660836,48.9786101 C44.1664895,49.1782066 43.8956031,49.2903618 43.6133173,49.2903618 L18.0648831,49.2903618 C17.7825972,49.2903618 17.5117132,49.1782042 17.3121167,48.9786101 C17.1125202,48.779016 17,48.5081296 17,48.2258437 L17,29.0645181 C17,28.4766608 17.4770258,28 18.0648831,28 L43.6133173,28 Z M62.7746551,55.6775069 L20.1939314,55.6775069 C19.6060741,55.6775069 19.1294133,56.1541677 19.1294133,56.742025 L19.1294133,90.8066039 C19.1294133,91.3944612 19.6060741,91.871122 20.1939314,91.871122 L62.7746551,91.871122 C63.0569409,91.871122 63.3278249,91.7589643 63.5274214,91.5593702 C63.727018,91.3597761 63.8391732,91.0888897 63.8391732,90.8066039 L63.8391732,56.742025 C63.8391732,56.4597391 63.7270155,56.1888551 63.5274214,55.9892586 C63.3278273,55.7896621 63.0569409,55.6775069 62.7746551,55.6775069 Z M59.5811008,85.4840134 C60.7568276,85.4840134 61.710137,86.4373228 61.710137,87.6130496 C61.710137,88.7887764 60.7568276,89.7420858 59.5811008,89.7420858 C58.405374,89.7420858 57.4520646,88.7887764 57.4520646,87.6130496 C57.4520646,86.4373228 58.405374,85.4840134 59.5811008,85.4840134 Z M23.3874857,85.4840134 C24.5632125,85.4840134 25.5165219,86.4373228 25.5165219,87.6130496 C25.5165219,88.7887764 24.5632125,89.7420858 23.3874857,89.7420858 C22.2117589,89.7420858 21.2584495,88.7887764 21.2584495,87.6130496 C21.2584495,86.4373228 22.2117589,85.4840134 23.3874857,85.4840134 Z M44.634038,57.8069057 C47.467846,57.8073947 50.1428887,59.1129197 51.8865085,61.3464611 C53.6306527,63.5796376 54.2479747,66.4917941 53.5612692,69.2410489 L52.4203248,73.8045346 C53.5204891,73.9034435 54.4908916,74.5649046 54.9846577,75.5533857 C55.4779493,76.5413802 55.4247234,77.7151726 54.8425597,78.6542357 C54.260907,79.5933353 53.2338721,80.1636159 52.1294377,80.161715 L51.0649196,80.161715 C51.0649196,83.5843535 49.2390581,86.747493 46.2745882,88.4587514 C43.3101182,90.1700099 39.6583953,90.1700099 36.6939253,88.4587514 C33.7294554,86.747493 31.9035939,83.5843535 31.9035939,80.161715 L30.8390758,80.161715 C29.7745577,80.1530771 28.7836921,79.6146986 28.1977327,78.7260146 C27.6117733,77.8369291 27.5071829,76.7143552 27.9192426,75.7325897 C28.3313024,74.7508242 29.2056793,74.0389232 30.2502331,73.8340978 C29.2375297,71.4594316 28.7138293,68.9050748 28.7100275,66.3231014 C28.7100275,65.1939823 29.1586458,64.110899 29.9570344,63.312036 C30.7558488,62.5136474 31.8389564,62.0650291 32.9680998,62.0650291 L36.0955932,62.0650291 C36.4848053,62.0645546 36.862618,61.9343427 37.1691384,61.6943456 C37.4756588,61.4548351 37.6933156,61.1193234 37.786936,60.7419851 C37.996056,59.9031449 38.4798339,59.1584689 39.1613201,58.6262098 C39.8427334,58.0944252 40.6824861,57.8059576 41.5469356,57.8069057 L44.634038,57.8069057 Z M36.3052607,68.9707222 L34.0326666,72.0002798 L34.0326666,80.1619096 C34.0326666,82.8241781 35.4531595,85.2840057 37.7584799,86.6150791 C40.0638003,87.9461525 42.9047862,87.9461525 45.2101066,86.6150791 C47.5154269,85.2840057 48.9359199,82.8241781 48.9359199,80.1619096 L48.9359199,75.2042603 C48.9349344,74.5432493 48.6720411,73.9092832 48.2045047,73.4416616 C47.7369684,72.9740401 47.1029536,72.7112334 46.4419061,72.710283 C42.7237573,72.7207457 39.1258078,71.3934437 36.3052607,68.9707222 Z M43.7259202,81.8087243 L45.6292785,82.7667906 L45.5166488,82.9915803 C45.1444933,83.742388 44.5694102,84.3734951 43.8566089,84.8140353 C43.1438076,85.2545755 42.3220848,85.4864869 41.4842543,85.4836614 C40.646874,85.4855455 39.8257351,85.2526776 39.1133596,84.8121374 C38.4009476,84.3716094 37.8263877,83.7404536 37.4538063,82.9905341 L37.3411767,82.7643218 L39.2487931,81.816706 L39.3552449,82.0400602 C39.5519922,82.4359271 39.8556536,82.7685908 40.2320428,83.0009733 C40.6084321,83.2333557 41.0423175,83.355965 41.4842811,83.3545393 C41.9267313,83.3559748 42.3606289,83.2333667 42.737006,83.0009733 C43.1133831,82.7685798 43.4165822,82.434966 43.6133294,82.0386246 L43.7259202,81.8087243 Z M52.1294742,75.9038372 L51.0649561,75.9038372 L51.0649561,78.0328734 L52.1294742,78.0328734 C52.7173315,78.0328734 53.1939922,77.5562126 53.1939922,76.9683553 C53.1939922,76.380498 52.7173315,75.9038372 52.1294742,75.9038372 Z M31.9036304,75.9038372 L30.8391123,75.9038372 C30.251255,75.9038372 29.7745942,76.380498 29.7745942,76.9683553 C29.7745942,77.5562126 30.251255,78.0328734 30.8391123,78.0328734 L31.9036304,78.0328734 L31.9036304,75.9038372 Z M39.3552571,74.8388325 L39.3552571,76.9678687 L37.2262209,76.9678687 L37.2262209,74.8388325 L39.3552571,74.8388325 Z M45.7423656,74.8388325 L45.7423656,76.9678687 L43.6133294,76.9678687 L43.6133294,74.8388325 L45.7423656,74.8388325 Z M44.6374688,59.9359794 L41.5503664,59.9359794 C41.1606797,59.9355062 40.7819181,60.0657181 40.4749233,60.3057152 C40.1679284,60.5452257 39.9497983,60.8812119 39.8557022,61.2590246 C39.6465822,62.0978649 39.1628044,62.8425409 38.4813181,63.3748 C37.7999049,63.9065845 36.9601522,64.1950521 36.0957027,64.1941017 L32.9682093,64.1941017 C32.4036376,64.1941017 31.8618648,64.418417 31.4626766,64.8176052 C31.0634884,65.2167934 30.8391732,65.7585662 30.8391732,66.3231379 C30.8434556,68.3352596 31.2036763,70.330714 31.9036913,72.217405 L31.9036913,71.645704 C31.9036913,71.4152207 31.9783048,71.1913799 32.1165949,71.0069932 L35.3101491,66.7489208 C35.4954848,66.5022689 35.7782573,66.3478214 36.0862011,66.3259604 C36.394157,66.3040983 36.696395,66.4167304 36.91453,66.6348653 C39.4355521,69.1702433 42.8662202,70.5912266 46.4419061,70.5812468 C47.2578257,70.5834367 48.059049,70.8020461 48.7628718,71.2154927 C49.4667312,71.6288907 50.0479337,72.2220159 50.4476086,72.9334425 L51.4992916,68.7234255 C52.0272926,66.61057 51.5525783,64.3721622 50.2123805,62.6556724 C48.8718176,60.9391947 46.815412,59.9359794 44.6374688,59.9359794 Z M59.5811008,57.8065431 C60.7568276,57.8065431 61.710137,58.7598525 61.710137,59.9355792 C61.710137,61.111306 60.7568276,62.0646154 59.5811008,62.0646154 C58.405374,62.0646154 57.4520646,61.111306 57.4520646,59.9355792 C57.4520646,58.7598525 58.405374,57.8065431 59.5811008,57.8065431 Z M23.3874857,57.8065431 C24.5632125,57.8065431 25.5165219,58.7598525 25.5165219,59.9355792 C25.5165219,61.111306 24.5632125,62.0646154 23.3874857,62.0646154 C22.2117589,62.0646154 21.2584495,61.111306 21.2584495,59.9355792 C21.2584495,58.7598525 22.2117589,57.8065431 23.3874857,57.8065431 Z M67.0327518,30.1292065 L62.7746794,30.1292065 L62.7746794,31.5449547 C62.7746794,32.0449011 62.4272815,32.4778363 61.9392213,32.5852383 C60.344269,32.9345219 58.8245022,33.5661035 57.4520646,34.4500307 C57.0305154,34.7209049 56.4773553,34.6610364 56.1233027,34.3065093 L55.118666,33.2999732 L52.1071139,36.3115253 L53.1131748,37.3166372 C53.4677019,37.670702 53.5275825,38.2238742 53.2566961,38.645399 C52.3732556,40.0178366 51.741674,41.5371168 51.3919038,43.1310958 C51.284503,43.620105 50.852041,43.9679773 50.3516202,43.9679773 L48.9358719,43.9679773 L48.9358719,48.2260497 L50.3516202,48.2260497 C50.852041,48.2260497 51.2845018,48.573922 51.3919038,49.0629312 C51.741674,50.6567886 52.3732191,52.1757038 53.2557229,53.548628 L55.8656779,53.548628 C53.6349225,50.8430488 52.7357757,47.2792856 53.416313,43.8391281 C54.0968746,40.3993356 56.2852805,37.4463015 59.378101,35.7939261 C62.4714081,34.1420252 66.1425964,33.9652665 69.380313,35.3125206 C72.6176645,36.6597747 75.0797793,39.3885908 76.0877502,42.74748 C77.0956968,46.1058825 76.5434856,49.7395998 74.5827041,52.6470116 C72.621801,55.5545451 69.4596348,57.428328 65.9681371,57.7524404 L65.9681371,62.0646511 L67.0317062,62.0646511 L67.0317062,60.6479296 C67.0317062,60.1475087 67.3795786,59.7145735 67.8681133,59.607646 C69.4630655,59.258849 70.9828324,58.627754 72.35527,57.7438269 C72.7768191,57.4729526 73.3299792,57.5328211 73.6840319,57.8873482 L74.6886686,58.8938844 L77.7002206,55.8823323 L76.6941598,54.8772204 C76.3396327,54.5231556 76.279752,53.9699834 76.5506384,53.5484585 C77.434079,52.176021 78.0656606,50.6567407 78.4154308,49.0627618 C78.5228316,48.5737526 78.9552936,48.2258802 79.4557144,48.2258802 L80.871487,48.2258802 L80.871487,43.9679775 L79.4557387,43.9679775 C78.9553179,43.9679775 78.5228571,43.6201051 78.4154551,43.1310959 C78.0656849,41.5372386 77.4341155,40.0178367 76.5506628,38.6453992 C76.2797885,38.2243245 76.3391826,37.6711644 76.6932352,37.3166373 L77.699296,36.3120006 L74.6877439,33.3004485 L73.682632,34.3065093 C73.3290782,34.660562 72.7763804,34.7199681 72.3553301,34.4500307 C70.9833791,33.5661157 69.4639773,32.9345341 67.8696333,32.5852383 C67.3806241,32.4778376 67.0327518,32.0453756 67.0327518,31.5449547 L67.0327518,30.1292065 Z M64.9401709,36.5104339 L64.6157239,36.5147213 C62.1246299,36.5899067 59.7612781,37.6325261 58.0261744,39.4212815 C56.2910708,41.2100369 55.3216027,43.6047768 55.3230269,46.096844 C55.3145974,48.997297 56.6333833,51.7426587 58.9030575,53.548568 L62.7747402,53.548568 C63.4248992,53.5514148 64.0583787,53.752919 64.5911122,54.1255003 C65.1238458,54.498033 65.5296887,55.0241117 65.7554274,55.6338312 C68.2375186,55.4124115 70.5357827,54.2324388 72.162488,52.3442878 C73.7886945,50.4561369 74.6156,48.0087185 74.4673218,45.5209093 C74.3190192,43.0334651 73.207419,40.7015014 71.3682967,39.0201711 C69.6886538,37.4845436 67.5233057,36.6018452 65.2635875,36.5170969 L64.9401709,36.5104339 Z M65.9682702,38.6453999 L65.9682702,39.709918 C66.8150183,39.709918 67.627714,40.0464882 68.2265084,40.6451732 C68.8253029,41.2438581 69.1617636,42.0565538 69.1617636,42.9034114 L69.1617636,43.9679295 L67.0327274,43.9679295 L67.0327274,42.9034114 C67.0327274,42.6211256 66.9205698,42.3502416 66.7209757,42.1506451 C66.5213816,41.9510485 66.2504952,41.8388933 65.9682093,41.8388933 L65.9682093,45.0324476 C66.8149574,45.0324476 67.6276531,45.3690178 68.2264476,45.9677028 C68.8252421,46.5663878 69.1617636,47.3790835 69.1617636,48.2259411 L69.1617636,49.2904592 C69.1617636,50.1372073 68.8251326,50.9499029 68.2264476,51.5486974 C67.6277626,52.1474919 66.8150669,52.4839526 65.9682093,52.4839526 L65.9682093,53.5484707 L63.8391732,53.5484707 L63.8391732,52.4839526 C62.9924251,52.4839526 62.1797294,52.1473824 61.5809349,51.5486974 C60.9821404,50.9500124 60.6456797,50.1373168 60.6456797,49.2904592 L60.6456797,48.2259411 L62.7747159,48.2259411 L62.7747159,49.2904592 C62.7747159,49.8783165 63.2513767,50.3549772 63.839234,50.3549772 L63.839234,47.161423 C62.9924859,47.161423 62.1797902,46.8248528 61.5809957,46.2261678 C60.9822013,45.6274828 60.6456797,44.8147871 60.6456797,43.9679295 L60.6456797,42.9034114 C60.6456797,42.0566633 60.9823108,41.2439676 61.5809957,40.6451732 C62.1796807,40.0463787 62.9923764,39.709918 63.839234,39.709918 L63.839234,38.6453999 L65.9682702,38.6453999 Z M65.9682093,47.1613621 L65.9682093,50.3549164 C66.2504952,50.3549164 66.5213792,50.2427588 66.7209757,50.0431647 C66.9205722,49.8435706 67.0327274,49.5726842 67.0327274,49.2903983 L67.0327274,48.2258802 C67.0327274,47.9435944 66.9205698,47.6727104 66.7209757,47.4731139 C66.5213816,47.2735173 66.2504952,47.1613621 65.9682093,47.1613621 Z M42.5488113,30.1290727 L19.1294133,30.1290727 L19.1294133,47.1613621 L42.5488113,47.1613621 L42.5488113,30.1290727 Z M63.8391732,41.8387717 C63.2513159,41.8387717 62.7746551,42.3154325 62.7746551,42.9032898 L62.7746551,43.9678079 C62.7746551,44.5556652 63.2513159,45.032326 63.8391732,45.032326 Z M40.4197752,40.7742536 L40.4197752,42.9032898 L21.2584495,42.9032898 L21.2584495,40.7742536 L40.4197752,40.7742536 Z M40.4197752,36.5161812 L40.4197752,38.6452174 L21.2584495,38.6452174 L21.2584495,36.5161812 L40.4197752,36.5161812 Z M38.290739,32.2581089 L38.290739,34.387145 L25.5165219,34.387145 L25.5165219,32.2581089 L38.290739,32.2581089 Z" id="Combined-Shape" fill="#171C34" fill-rule="nonzero"></path>
                        </g>
                    </g>
                </g>
            </g>
        </g>
    </g>
</svg>