<?xml version="1.0" encoding="UTF-8"?>
<svg width="20px" height="21px" viewBox="0 0 20 21" version="1.1" xmlns="http://www.w3.org/2000/svg" xmlns:xlink="http://www.w3.org/1999/xlink">
    <title>Combined Shape</title>
    <g id="Page-1" stroke="none" stroke-width="1" fill="none" fill-rule="evenodd">
        <g id="Home" transform="translate(-400.000000, -5263.000000)" fill="#FFFFFF" fill-rule="nonzero">
            <g id="Footer" transform="translate(0.000000, 5140.000000)">
                <g id="Group-19-Copy-3" transform="translate(165.000000, 32.000000)">
                    <g id="Social-links" transform="translate(139.000000, 91.000000)">
                        <path d="M106,0.000221238937 C111.522847,0.000221238937 116,4.47737374 116,10.0002212 C116,15.5230687 111.522847,20.0002212 106,20.0002212 C100.477153,20.0002212 96,15.5230687 96,10.0002212 C96,4.47737374 100.477153,0.000221238937 106,0.000221238937 Z M108.540554,6.06603464 C107.220721,6.06603464 106.150273,7.13648278 106.150273,8.45631593 C106.150273,8.64366664 106.171486,8.82602608 106.212485,9.00107688 C104.225962,8.90142984 102.46458,7.94988076 101.285572,6.50330513 C101.07986,6.85625889 100.961852,7.26714698 100.961852,7.7051305 C100.961852,8.53421532 101.384149,9.26614872 102.02517,9.6946845 C101.633534,9.6823846 101.264715,9.57489413 100.9426,9.39538684 L100.942422,9.42569095 C100.942422,10.5838428 101.766694,11.5498309 102.859959,11.7692683 C102.659596,11.8241722 102.448002,11.8532285 102.230347,11.8532285 C102.075974,11.8532285 101.926414,11.8384329 101.780598,11.8106245 C102.084709,12.7600344 102.967272,13.4511464 104.013476,13.4705767 C103.195265,14.111776 102.164747,14.4937861 101.044565,14.4937861 C100.852045,14.4937861 100.661307,14.4825557 100.474669,14.4602733 C101.531926,15.1387289 102.788656,15.5342866 104.138436,15.5342866 C108.535028,15.5342866 110.939392,11.892089 110.939392,8.73315289 C110.939392,8.62958414 110.937074,8.5263719 110.93244,8.42405097 C111.399836,8.08714056 111.80502,7.66626994 112.125352,7.18693021 C111.696816,7.37695481 111.235837,7.50547989 110.752398,7.56287944 C111.245998,7.26714698 111.624799,6.79921586 111.803594,6.24072892 C111.341723,6.51471373 110.82994,6.71347305 110.285714,6.82060699 C109.849692,6.35624106 109.228457,6.06603464 108.540554,6.06603464 Z" id="Combined-Shape"></path>
                    </g>
                </g>
            </g>
        </g>
    </g>
</svg>